<?xml version="1.0" standalone="no"?>
<!DOCTYPE svg PUBLIC "-//W3C//DTD SVG 1.1//EN" "http://www.w3.org/Graphics/SVG/1.1/DTD/svg11.dtd" >
<svg>
<metadata>
Created by FontForge 20090622 at Mon Nov 23 08:03:00 2015
 By deploy user
Copyright (c) 2012 by Fontfabric LLC. All rights reserved.
</metadata>
<defs>
<font id="iCielPanton-Light" horiz-adv-x="660" >
  <font-face 
    font-family="iCiel Panton Light"
    font-weight="300"
    font-stretch="normal"
    units-per-em="1000"
    panose-1="0 0 4 0 0 0 0 0 0 0"
    ascent="740"
    descent="-260"
    x-height="512"
    cap-height="710"
    bbox="-371 -253 1142 1048.27"
    underline-thickness="50"
    underline-position="-50"
    unicode-range="U+0020-U+FB02"
  />
<missing-glyph horiz-adv-x="686" 
d="M600 697v-684q0 -13 -14 -13h-481q-14 0 -14 13v684q0 13 14 13h481q14 0 14 -13zM138 667v-624h415v624h-415z" />
    <glyph glyph-name="uniFB01" unicode="fi" horiz-adv-x="556" 
d="M322 740h152q11 0 11 -12v-16q0 -12 -11 -12h-152q-92 0 -124 -31q-34 -33 -34 -123v-34h310q11 0 11 -11v-489q0 -12 -11 -12h-20q-12 0 -12 12v461h-278v-461q0 -12 -12 -12h-19q-12 0 -12 12v461h-103q-12 0 -12 11v17q0 11 12 11h103v33q0 110 46 153q44 42 155 42z
" />
    <glyph glyph-name="uniFB02" unicode="fl" horiz-adv-x="521" 
d="M322 740h113q12 0 12 -12v-716q0 -12 -12 -12h-19q-12 0 -12 12v688h-82q-92 0 -124 -31q-34 -33 -34 -123v-34h134q12 0 12 -11v-17q0 -11 -12 -11h-134v-461q0 -12 -12 -12h-19q-12 0 -12 12v461h-103q-12 0 -12 11v17q0 11 12 11h103v34q0 108 46 151q44 43 155 43z
" />
    <glyph glyph-name=".notdef" horiz-adv-x="686" 
d="M600 697v-684q0 -13 -14 -13h-481q-14 0 -14 13v684q0 13 14 13h481q14 0 14 -13zM138 667v-624h415v624h-415z" />
    <glyph glyph-name=".null" horiz-adv-x="0" 
 />
    <glyph glyph-name="nonmarkingreturn" unicode=" " horiz-adv-x="244" 
 />
    <glyph glyph-name="exclam" unicode="!" horiz-adv-x="189" 
d="M83 740h23q12 0 12 -12l-6 -566q0 -11 -12 -11h-11q-11 0 -11 11l-6 566q0 12 11 12zM92 55h5q28 0 28 -27v-6q0 -27 -28 -27h-5q-27 0 -27 27v6q0 27 27 27z" />
    <glyph glyph-name="quotedbl" unicode="&#x22;" horiz-adv-x="268" 
d="M109 699l-8 -205q0 -10 -11 -10h-11q-11 0 -11 10v205q0 11 11 11h19q13 0 11 -11zM206 699l-8 -205q-1 -10 -12 -10h-11q-11 0 -11 10v205q0 11 11 11h20q11 0 11 -11z" />
    <glyph glyph-name="numbersign" unicode="#" horiz-adv-x="665" 
d="M501 469h117q12 0 9 -12l-6 -18q-1 -10 -15 -10h-117l-56 -187h117q14 0 9 -12l-6 -18q-1 -10 -15 -10h-116l-57 -190q-5 -12 -16 -12h-20q-13 0 -8 12l57 190h-176l-57 -190q-1 -12 -14 -12h-20q-12 0 -8 12l56 190h-115q-13 0 -8 11l5 18q5 11 16 11h114l56 187h-115
q-12 0 -9 11l6 18q2 11 16 11h114l50 166q3 12 15 12h20q12 0 8 -12l-50 -166h175l51 166q3 12 14 12h19q13 0 10 -12zM270 429l-56 -187h176l56 187h-176z" />
    <glyph glyph-name="dollar" unicode="$" horiz-adv-x="589" 
d="M280 788h19q12 0 12 -12v-70q84 -6 137 -47q45 -34 84 -113q7 -12 -7 -18l-18 -7q-11 -6 -17 5q-36 73 -77 102q-50 35 -132 35q-178 0 -178 -152q0 -76 61 -104q36 -17 137 -28q113 -12 161 -38q76 -40 76 -143q0 -184 -227 -193v-71q0 -12 -12 -12h-19q-12 0 -12 12v71
q-159 9 -225 173q-5 15 8 19l17 6q12 4 18 -8q31 -74 74 -109q50 -39 133 -39q199 0 199 150q0 79 -61 109q-39 18 -138 28q-113 12 -161 38q-76 40 -76 139q0 187 212 195v70q0 12 12 12z" />
    <glyph glyph-name="percent" unicode="%" horiz-adv-x="808" 
d="M38 504v75q0 68 40 107t115 39t115 -39q39 -38 39 -107v-75q0 -145 -154 -145q-75 0 -115 39q-40 37 -40 106zM656 710h19q13 0 6 -13l-505 -686q-9 -11 -25 -11h-16q-16 0 -7 13l505 686q8 11 23 11zM310 506v71q0 112 -117 112t-117 -112v-71q0 -111 117 -111t117 111z
M461 130v74q0 69 40 108q41 39 114 39q75 0 115 -39t40 -108v-74q0 -69 -40 -106q-40 -39 -115 -39q-73 0 -114 39q-40 37 -40 106zM732 132v71q0 112 -117 112t-117 -112v-71q0 -111 117 -111t117 111z" />
    <glyph glyph-name="ampersand" unicode="&#x26;" horiz-adv-x="653" 
d="M107 558q0 66 47 115q49 51 127 51q75 0 125 -49q49 -48 49 -115q0 -70 -43 -113q-38 -40 -129 -77l-10 -4l207 -199l73 69q8 8 16 0l14 -14q7 -8 0 -15l-73 -70l128 -125q12 -12 -6 -12h-27q-11 0 -19 8l-105 102q-136 -124 -249 -124q-78 0 -133 53q-55 54 -55 134
q0 132 163 204q-100 96 -100 181zM413 560q0 50 -37 87q-37 39 -95 39q-59 0 -96 -39q-36 -37 -36 -89q0 -68 96 -163l19 10q78 34 106 57q43 36 43 98zM451 139l-216 209q-77 -33 -106 -65q-41 -44 -41 -111q0 -61 43 -103q42 -42 102 -42q94 0 218 112z" />
    <glyph glyph-name="quotesingle" unicode="'" horiz-adv-x="172" 
d="M109 699l-8 -205q0 -10 -11 -10h-11q-11 0 -11 10v205q0 11 11 11h19q13 0 11 -11z" />
    <glyph glyph-name="parenleft" unicode="(" horiz-adv-x="241" 
d="M63 99v512q0 160 139 223q10 4 15 -6l8 -16q4 -9 -6 -16q-114 -52 -114 -183v-516q0 -131 114 -183q10 -7 6 -16l-8 -16q-5 -10 -15 -6q-139 63 -139 223z" />
    <glyph glyph-name="parenright" unicode=")" horiz-adv-x="241" 
d="M14 812l9 16q5 10 15 6q139 -63 139 -223v-512q0 -160 -139 -223q-10 -4 -15 6l-9 16q-4 8 7 16q114 52 114 183v516q0 131 -114 183q-11 8 -7 16z" />
    <glyph glyph-name="asterisk" unicode="*" horiz-adv-x="387" 
d="M185 673h15q10 0 8 -8l-6 -114l107 40q9 3 12 -5l5 -14q1 -10 -6 -11l-112 -29l73 -90q6 -6 -2 -12l-12 -9q-7 -5 -12 3l-62 96l-64 -96q-4 -7 -11 -3l-13 10q-8 5 -1 12l73 89l-110 30q-10 1 -7 10l5 15q5 8 12 4l106 -40l-6 114q-2 8 8 8z" />
    <glyph glyph-name="plus" unicode="+" horiz-adv-x="578" 
d="M309 347h204q12 0 12 -12v-16q0 -12 -12 -12h-204v-203q0 -13 -12 -13h-16q-12 0 -12 13v203h-203q-13 0 -13 12v16q0 12 13 12h203v203q0 13 12 13h16q12 0 12 -13v-203z" />
    <glyph glyph-name="comma" unicode="," horiz-adv-x="162" 
d="M106 45l-55 -155q-5 -11 -15 -11h-8q-10 0 -8 9l38 157q4 15 18 15h17q17 0 13 -15z" />
    <glyph glyph-name="hyphen" unicode="-" horiz-adv-x="426" 
d="M77 286h273q12 0 12 -12v-17q0 -12 -12 -12h-273q-13 0 -13 12v17q0 12 13 12z" />
    <glyph glyph-name="period" unicode="." horiz-adv-x="165" 
d="M80 55h5q27 0 27 -27v-6q0 -27 -27 -27h-5q-28 0 -28 27v6q0 27 28 27z" />
    <glyph glyph-name="slash" unicode="/" horiz-adv-x="392" 
d="M358 699l-278 -748q-5 -11 -16 -11h-21q-11 0 -8 11l278 748q5 11 16 11h21q11 0 8 -11z" />
    <glyph glyph-name="zero" unicode="0" horiz-adv-x="622" 
d="M61 213v284q0 104 65 166q67 61 185 61t185 -61q65 -62 65 -166v-284q0 -106 -65 -166q-67 -61 -185 -61t-185 61q-65 60 -65 166zM515 213v284q0 85 -53 135q-53 49 -151 49t-151 -49q-53 -50 -53 -135v-284q0 -87 53 -135q52 -49 151 -49t151 49q53 48 53 135z" />
    <glyph glyph-name="one" unicode="1" horiz-adv-x="445" 
d="M323 710h17q12 0 12 -13v-684q0 -13 -12 -13h-21q-13 0 -13 13v641l-247 -137q-10 -7 -18 5l-10 17q-7 8 5 16l269 150q8 5 18 5z" />
    <glyph glyph-name="two" unicode="2" horiz-adv-x="585" 
d="M55 562q71 162 256 162q98 0 160 -62q61 -58 61 -147q0 -104 -73 -164q-45 -38 -180 -91q-91 -36 -123 -59q-55 -42 -55 -108v-50h415q13 0 13 -12v-18q0 -13 -13 -13h-450q-13 0 -13 13v72q0 89 66 143q41 34 147 75q116 44 150 71q68 51 68 139q0 71 -48 119
q-49 49 -126 49q-151 0 -211 -135q-5 -12 -16 -7l-20 7q-13 5 -8 16z" />
    <glyph glyph-name="three" unicode="3" horiz-adv-x="592" 
d="M519 527q0 -122 -96 -160q117 -36 117 -174q0 -207 -236 -207q-112 0 -173 46q-55 42 -81 132q-4 11 8 16l19 7q11 4 16 -8q24 -79 67 -112q50 -38 144 -38q189 0 189 164q0 69 -38 109q-39 41 -110 41h-167q-12 0 -12 12v17q0 13 12 13h162q66 0 102 42q32 38 32 97
q0 157 -170 157q-91 0 -138 -35q-45 -34 -67 -111q-5 -11 -16 -7l-19 6q-12 5 -8 17q26 89 81 129q59 44 168 44q214 0 214 -197z" />
    <glyph glyph-name="four" unicode="4" horiz-adv-x="600" 
d="M453 249h105q12 0 12 -13v-16q0 -13 -12 -13h-105v-194q0 -13 -13 -13h-18q-13 0 -13 13v194h-370q-13 0 -13 13v13q0 9 4 16l371 463q7 9 18 9h21q13 0 13 -14v-458zM409 656l-327 -407h327v407z" />
    <glyph glyph-name="five" unicode="5" horiz-adv-x="580" 
d="M127 710h370q12 0 12 -13v-18q0 -12 -12 -12h-351l-24 -247h187q109 0 171 -62q55 -58 55 -150q0 -93 -62 -157q-66 -66 -175 -66q-200 0 -255 156q-4 11 7 16l21 7q11 6 16 -8q45 -128 211 -128q86 0 139 53q50 50 50 127q0 74 -45 120q-48 49 -135 49h-219
q-18 0 -15 17l30 294q1 22 24 22z" />
    <glyph glyph-name="six" unicode="6" horiz-adv-x="615" 
d="M106 476v-105q88 38 216 38q243 0 243 -212q0 -100 -67 -155q-68 -56 -186 -56q-124 0 -188 67q-64 64 -64 181v242q0 248 252 248q185 0 243 -151q5 -11 -9 -15l-19 -7q-10 -4 -16 8q-50 122 -199 122q-206 0 -206 -205zM106 326v-92q0 -99 52 -151q54 -54 154 -54
q98 0 153 44q54 44 54 124q0 169 -200 169q-123 0 -213 -40z" />
    <glyph glyph-name="seven" unicode="7" horiz-adv-x="510" 
d="M41 710h444q13 0 13 -13v-12q0 -9 -4 -18l-288 -656q-5 -11 -23 -11h-21q-12 0 -6 13l289 654h-404q-13 0 -13 12v18q0 13 13 13z" />
    <glyph glyph-name="eight" unicode="8" horiz-adv-x="610" 
d="M71 545q0 87 63 133q61 46 170 46q235 0 235 -176q0 -140 -159 -186q87 -28 125 -61q54 -48 54 -128q0 -187 -255 -187q-253 0 -253 178q0 148 181 200q-161 56 -161 181zM494 544q0 140 -189 140q-187 0 -187 -140q0 -72 60 -111q34 -22 134 -51l15 -4q167 39 167 166z
M511 173q0 79 -67 118q-37 21 -161 55q-186 -38 -186 -178q0 -142 208 -142q206 0 206 147z" />
    <glyph glyph-name="nine" unicode="9" horiz-adv-x="615" 
d="M509 234v105q-93 -38 -216 -38q-243 0 -243 212q0 100 67 155q67 56 185 56q123 0 189 -67q64 -64 64 -181v-242q0 -248 -253 -248q-185 0 -242 151q-4 10 8 15l19 7q12 4 16 -8q50 -122 199 -122q207 0 207 205zM509 384v92q0 99 -52 151q-54 54 -155 54
q-100 0 -152 -43q-54 -44 -54 -125q0 -169 199 -169q118 0 214 40z" />
    <glyph glyph-name="colon" unicode=":" horiz-adv-x="188" 
d="M92 482h5q27 0 27 -28v-5q0 -28 -27 -28h-5q-28 0 -28 28v5q0 28 28 28zM92 55h5q27 0 27 -27v-6q0 -27 -27 -27h-5q-28 0 -28 27v6q0 27 28 27z" />
    <glyph glyph-name="semicolon" unicode=";" horiz-adv-x="225" 
d="M120 482h5q27 0 27 -28v-5q0 -28 -27 -28h-5q-28 0 -28 28v5q0 28 28 28zM142 45l-55 -155q-5 -11 -14 -11h-9q-10 0 -8 9l38 157q4 15 18 15h17q19 0 13 -15z" />
    <glyph glyph-name="less" unicode="&#x3c;" horiz-adv-x="504" 
d="M50 349l374 202q15 7 15 -9v-17q0 -15 -13 -22l-330 -175v-2l330 -176q13 -7 13 -21v-19q0 -16 -15 -9l-374 202q-11 8 -11 17v12q0 12 11 17z" />
    <glyph glyph-name="equal" unicode="=" horiz-adv-x="602" 
d="M78 447h447q12 0 12 -13v-17q0 -12 -12 -12h-447q-13 0 -13 12v17q0 13 13 13zM78 249h447q12 0 12 -13v-16q0 -13 -12 -13h-447q-13 0 -13 13v16q0 13 13 13z" />
    <glyph glyph-name="greater" unicode="&#x3e;" horiz-adv-x="504" 
d="M65 524v18q0 18 14 10l374 -203q12 -4 12 -17v-12q0 -10 -12 -17l-374 -202q-14 -8 -14 9v17q0 15 13 22l330 175v2l-330 176q-13 7 -13 22z" />
    <glyph glyph-name="question" unicode="?" horiz-adv-x="553" 
d="M32 575q64 165 250 165q108 0 173 -60q62 -59 62 -146q0 -89 -47 -148q-27 -34 -97 -79q-102 -71 -102 -154q0 -13 -12 -13h-16q-12 0 -12 13q0 71 36 117q24 31 80 68q63 41 85 71q39 49 39 124q0 72 -49 118q-52 48 -141 48q-151 0 -207 -138q-5 -13 -16 -8l-19 6
q-11 5 -7 16zM249 55h5q27 0 27 -27v-6q0 -27 -27 -27h-5q-28 0 -28 27v6q0 27 28 27z" />
    <glyph glyph-name="at" unicode="@" horiz-adv-x="900" 
d="M50 257v69q0 184 105 291q107 107 292 107q190 0 297 -110q102 -106 102 -288v-69q0 -101 -54 -158q-48 -52 -121 -52q-52 0 -62 43q-79 -40 -187 -40q-171 0 -171 162v158q0 164 171 164q102 0 175 -30q34 -13 34 -48v-336q0 -39 41 -39q57 0 95 41q43 46 43 135v70
q0 168 -93 264q-96 100 -270 100q-169 0 -265 -97q-95 -98 -95 -267v-70q0 -171 95 -264q95 -92 265 -92q63 0 215 28q7 1 7 -4v-19q0 -8 -8 -11q-95 -27 -214 -27q-188 0 -292 101q-105 102 -105 288zM572 475q-57 23 -146 23q-136 0 -136 -129v-156q0 -128 136 -128
q106 0 167 39v322q0 20 -21 29z" />
    <glyph glyph-name="A" unicode="A" horiz-adv-x="632" 
d="M342 703l277 -691q5 -12 -10 -12h-18q-20 0 -22 11l-89 221h-332l-88 -221q-5 -11 -23 -11h-17q-14 0 -9 12l277 691q4 12 17 12h20q13 0 17 -12zM467 271l-142 355q-2 6 -10 43h-3q0 -19 -8 -43l-142 -355h305z" />
    <glyph glyph-name="B" unicode="B" horiz-adv-x="640" 
d="M95 710h284q90 0 139 -46t49 -133q0 -126 -104 -164v-2q128 -29 128 -176q0 -91 -54 -140q-52 -49 -145 -49h-297q-13 0 -13 13v684q0 13 13 13zM520 526q0 141 -146 141h-246v-284h246q146 0 146 143zM543 193q0 148 -153 148h-262v-298h262q153 0 153 150z" />
    <glyph glyph-name="C" unicode="C" horiz-adv-x="634" 
d="M61 233v245q0 115 68 180q71 66 201 66q210 0 263 -174q3 -11 -9 -17l-18 -6q-12 -3 -17 8q-22 75 -72 110q-53 36 -147 36q-108 0 -167 -54q-56 -53 -56 -148v-247q0 -96 57 -148q58 -55 166 -55q97 0 150 38q47 35 71 113q5 13 17 8l19 -7q12 -5 8 -16
q-53 -179 -265 -179q-130 0 -200 66q-69 64 -69 181z" />
    <glyph glyph-name="D" unicode="D" horiz-adv-x="646" 
d="M95 710h204q138 0 215 -71q75 -71 75 -193v-182q0 -122 -75 -193q-77 -71 -215 -71h-204q-13 0 -13 13v684q0 13 13 13zM543 264v182q0 104 -63 163q-62 58 -180 58h-172v-624h172q116 0 180 58q63 58 63 163z" />
    <glyph glyph-name="E" unicode="E" horiz-adv-x="570" 
d="M95 710h408q13 0 13 -13v-18q0 -12 -13 -12h-375v-286h332q12 0 12 -12v-18q0 -13 -12 -13h-332v-295h389q13 0 13 -12v-18q0 -13 -13 -13h-422q-13 0 -13 13v684q0 13 13 13z" />
    <glyph glyph-name="F" unicode="F" horiz-adv-x="551" 
d="M95 710h408q13 0 13 -13v-18q0 -12 -13 -12h-375v-296h326q13 0 13 -13v-18q0 -12 -13 -12h-326v-315q0 -13 -12 -13h-21q-13 0 -13 13v684q0 13 13 13z" />
    <glyph glyph-name="G" unicode="G" horiz-adv-x="651" 
d="M340 358h246q13 0 13 -14v-117q0 -111 -69 -175q-70 -66 -199 -66q-131 0 -201 67q-69 65 -69 181v244q0 115 68 180q71 66 201 66q210 0 263 -174q3 -11 -9 -17l-18 -6q-12 -4 -17 8q-22 75 -72 110q-53 36 -147 36q-110 0 -167 -54q-56 -53 -56 -148v-245
q0 -98 57 -150q58 -55 167 -55q107 0 166 54q57 53 57 144v87h-214q-13 0 -13 13v18q0 13 13 13z" />
    <glyph glyph-name="H" unicode="H" horiz-adv-x="679" 
d="M563 710h21q13 0 13 -13v-684q0 -13 -13 -13h-21q-12 0 -12 13v325h-423v-325q0 -13 -12 -13h-21q-13 0 -13 13v684q0 13 13 13h21q12 0 12 -13v-316h423v316q0 13 12 13z" />
    <glyph glyph-name="I" unicode="I" horiz-adv-x="210" 
d="M82 13v684q0 13 13 13h21q12 0 12 -13v-684q0 -13 -12 -13h-21q-13 0 -13 13z" />
    <glyph glyph-name="J" unicode="J" horiz-adv-x="567" 
d="M455 710h22q12 0 12 -12v-481q0 -108 -61 -169q-62 -63 -175 -63q-194 0 -232 197q-4 12 8 17l20 7q11 4 16 -8q31 -169 188 -169q92 0 142 50q48 49 48 138v481q0 12 12 12z" />
    <glyph glyph-name="K" unicode="K" horiz-adv-x="600" 
d="M453 262l126 -249q7 -13 -7 -13h-20q-19 0 -25 11l-117 233q-47 95 -155 95h-127v-326q0 -13 -12 -13h-21q-13 0 -13 13v684q0 13 13 13h21q12 0 12 -13v-316h124q20 0 25 -1l236 319q9 11 26 11h23q15 0 6 -13l-243 -325q82 -20 128 -110z" />
    <glyph glyph-name="L" unicode="L" horiz-adv-x="518" 
d="M95 710h21q12 0 12 -13v-654h364q12 0 12 -12v-18q0 -13 -12 -13h-397q-13 0 -13 13v684q0 13 13 13z" />
    <glyph glyph-name="M" unicode="M" horiz-adv-x="795" 
d="M682 710h19q12 0 12 -13v-684q0 -13 -12 -13h-20q-12 0 -12 13v459q0 90 7 167h-2q-33 -68 -75 -143l-178 -316q-4 -10 -16 -10h-13q-13 0 -17 10l-181 320q-37 63 -72 139h-2q6 -88 6 -167v-459q0 -13 -13 -13h-18q-13 0 -13 13v684q0 13 13 13h16q11 0 19 -11l268 -473
l266 472q8 12 18 12z" />
    <glyph glyph-name="N" unicode="N" horiz-adv-x="688" 
d="M574 710h20q12 0 12 -13v-684q0 -13 -12 -13h-21q-9 0 -14 8l-355 506q-18 26 -45 72q-24 43 -36 58h-2q0 -16 3 -73t3 -92v-466q0 -13 -12 -13h-20q-13 0 -13 13v684q0 13 13 13h20q10 0 14 -7l345 -493q23 -33 51 -79l41 -64h2q0 19 -3 81q-4 55 -4 99v451q0 12 13 12z
" />
    <glyph glyph-name="O" unicode="O" 
d="M61 233v244q0 117 69 181q70 66 201 66q129 0 199 -66q69 -64 69 -181v-244q0 -117 -69 -181q-70 -66 -199 -66q-131 0 -201 66q-69 64 -69 181zM553 233v244q0 97 -57 150q-58 54 -165 54q-109 0 -167 -54q-57 -53 -57 -150v-244q0 -97 57 -150q58 -54 167 -54
q107 0 165 54q57 53 57 150z" />
    <glyph glyph-name="P" unicode="P" horiz-adv-x="618" 
d="M95 710h269q103 0 161 -58q60 -58 60 -160q0 -100 -59 -159q-60 -57 -162 -57h-236v-263q0 -13 -12 -13h-21q-13 0 -13 13v684q0 13 13 13zM128 319h232q83 0 129 46q48 47 48 127q0 82 -48 129q-46 46 -129 46h-232v-348z" />
    <glyph glyph-name="Q" unicode="Q" horiz-adv-x="670" 
d="M537 59l74 -87q8 -9 -2 -18l-14 -11q-9 -9 -18 1l-75 89q-65 -47 -171 -47q-131 0 -201 66q-69 64 -69 181v244q0 117 69 181q70 66 201 66q129 0 199 -66q69 -64 69 -181v-244q0 -109 -62 -174zM107 477v-244q0 -97 57 -150q58 -54 167 -54q107 0 165 54q57 53 57 150
v244q0 97 -57 150q-58 54 -165 54q-109 0 -167 -54q-57 -53 -57 -150z" />
    <glyph glyph-name="R" unicode="R" horiz-adv-x="640" 
d="M95 710h287q96 0 149 -52q54 -52 54 -148q0 -84 -47 -136q-46 -50 -129 -57q49 -21 82 -82l112 -222q9 -13 -7 -13h-19q-20 0 -25 11l-104 206q-47 95 -155 95h-165v-299q0 -13 -12 -13h-21q-13 0 -13 13v684q0 13 13 13zM537 510q0 76 -42 116q-43 41 -118 41h-249v-312
h249q77 0 118 40q42 41 42 115z" />
    <glyph glyph-name="S" unicode="S" horiz-adv-x="622" 
d="M55 525q0 93 66 145q67 54 185 54q185 0 262 -155q8 -12 -6 -17l-20 -9q-10 -4 -16 6q-66 131 -220 131q-98 0 -150 -40q-54 -40 -54 -112q0 -80 70 -114q48 -25 154 -35q121 -14 170 -42q79 -43 79 -147q0 -204 -264 -204q-199 0 -269 175q-5 14 7 18l19 7q11 5 17 -8
q63 -148 226 -148q218 0 218 158q0 79 -66 112q-39 20 -147 34q-126 15 -177 43q-84 45 -84 148z" />
    <glyph glyph-name="T" unicode="T" horiz-adv-x="532" 
d="M26 710h480q13 0 13 -13v-18q0 -12 -13 -12h-217v-654q0 -13 -12 -13h-21q-13 0 -13 13v654h-217q-13 0 -13 12v18q0 13 13 13z" />
    <glyph glyph-name="U" unicode="U" horiz-adv-x="679" 
d="M122 697v-457q0 -98 54 -154q55 -58 164 -58q108 0 163 58q54 55 54 154v457q0 13 12 13h22q12 0 12 -13v-457q0 -118 -65 -186q-69 -69 -198 -69q-130 0 -198 69q-66 68 -66 186v457q0 13 13 13h21q12 0 12 -13z" />
    <glyph glyph-name="V" unicode="V" horiz-adv-x="613" 
d="M572 710h19q13 0 8 -12l-267 -686q-4 -12 -17 -12h-19q-12 0 -17 11l-267 687q-4 12 8 12h19q17 0 22 -11l222 -575l5 -14q5 -14 8 -24l9 -29h3l9 29q5 17 12 38l221 575q5 11 22 11z" />
    <glyph glyph-name="W" unicode="W" horiz-adv-x="870" 
d="M816 710h22q12 0 8 -12l-185 -686q-5 -12 -17 -12h-20q-15 0 -17 11l-149 527q-11 39 -21 91h-3q-9 -47 -22 -91l-149 -526q-1 -12 -17 -12h-19q-15 0 -17 11l-186 687q-3 12 8 12h25q15 0 17 -11l143 -538q4 -12 10 -49l10 -46h2l10 45l12 49l149 523q2 12 17 12h20
q15 0 17 -12l149 -525l21 -92h3l18 92l144 541q2 11 17 11z" />
    <glyph glyph-name="X" unicode="X" horiz-adv-x="607" 
d="M333 361l256 -346q11 -15 -5 -15h-26q-16 0 -24 11l-232 314l-230 -314q-8 -11 -24 -11h-25q-15 0 -6 15l257 345l-250 338q-7 12 7 12h26q15 0 23 -11l224 -302l223 302q8 11 23 11h26q16 0 6 -12z" />
    <glyph glyph-name="Y" unicode="Y" horiz-adv-x="619" 
d="M571 710h25q14 0 7 -13l-271 -405v-279q0 -13 -12 -13h-21q-13 0 -13 13v280l-270 404q-7 13 7 13h27q18 0 23 -11l237 -359l237 359q8 11 24 11z" />
    <glyph glyph-name="Z" unicode="Z" horiz-adv-x="555" 
d="M49 710h453q13 0 13 -13v-16q0 -9 -5 -16l-421 -621h425q13 0 13 -13v-18q0 -13 -13 -13h-470q-12 0 -12 13v17q0 9 5 17l420 620h-408q-13 0 -13 12v18q0 13 13 13z" />
    <glyph glyph-name="bracketleft" unicode="[" horiz-adv-x="257" 
d="M81 856h151q12 0 12 -11v-17q0 -11 -12 -11h-120v-923h120q12 0 12 -12v-17q0 -11 -12 -11h-151q-11 0 -11 12v978q0 12 11 12z" />
    <glyph glyph-name="backslash" unicode="\" horiz-adv-x="392" 
d="M312 -49l-278 748q-3 11 8 11h22q11 0 16 -11l278 -748q3 -11 -8 -11h-22q-11 0 -16 11z" />
    <glyph glyph-name="bracketright" unicode="]" horiz-adv-x="257" 
d="M25 856h150q12 0 12 -12v-978q0 -12 -12 -12h-150q-12 0 -12 11v17q0 12 12 12h120v923h-120q-12 0 -12 11v17q0 11 12 11z" />
    <glyph glyph-name="asciicircum" unicode="^" horiz-adv-x="594" 
d="M289 810h12q9 0 16 -10l220 -265q10 -15 -7 -15h-20q-14 0 -23 11l-191 233h-3l-187 -233q-9 -11 -24 -11h-19q-18 0 -6 15l216 265q7 10 16 10z" />
    <glyph glyph-name="underscore" unicode="_" horiz-adv-x="510" 
d="M42 0h427q12 0 12 -13v-16q0 -13 -12 -13h-427q-13 0 -13 13v16q0 13 13 13z" />
    <glyph glyph-name="grave" unicode="`" horiz-adv-x="257" 
d="M25 711l10 11q8 8 22 1l169 -107q10 -5 2 -13l-7 -8q-5 -7 -16 -2l-178 103q-10 4 -2 15z" />
    <glyph glyph-name="a" unicode="a" horiz-adv-x="509" 
d="M57 421q55 106 197 106q194 0 194 -195v-263q0 -42 -36 -57q-61 -26 -159 -26q-123 0 -171 39q-42 35 -42 113q0 83 50 118q50 33 167 33q40 0 148 -11v55q0 72 -29 109q-36 46 -124 46q-112 0 -157 -85q-6 -9 -16 -5l-16 6q-12 6 -6 17zM405 79v163q-115 11 -152 11
q-93 0 -131 -26t-38 -88q0 -60 32 -86q37 -31 134 -31q80 0 132 20q23 11 23 37z" />
    <glyph glyph-name="b" unicode="b" horiz-adv-x="534" 
d="M80 740h20q11 0 11 -12v-239q100 38 177 38q193 0 193 -193v-146q0 -202 -211 -202q-91 0 -163 29q-39 17 -39 55v658q0 12 12 12zM438 188v145q0 154 -154 154q-88 0 -173 -39v-366q0 -22 24 -33q58 -24 133 -24q170 0 170 163z" />
    <glyph glyph-name="c" unicode="c" horiz-adv-x="513" 
d="M53 180v153q0 92 53 142q55 52 160 52q165 0 206 -137q5 -12 -7 -17l-17 -6q-11 -4 -16 8q-35 113 -168 113q-82 0 -126 -41q-43 -40 -43 -112v-156q0 -73 43 -113q46 -41 126 -41q135 0 170 119q5 12 16 8l18 -6q12 -4 7 -16q-43 -144 -211 -144q-103 0 -158 52
q-53 50 -53 142z" />
    <glyph glyph-name="d" unicode="d" horiz-adv-x="534" 
d="M54 185v146q0 196 192 196q87 0 177 -36v237q0 12 12 12h19q12 0 12 -12v-658q0 -39 -40 -55q-73 -29 -165 -29q-207 0 -207 199zM423 82v367q-81 38 -171 38q-156 0 -156 -157v-144q0 -161 168 -161q71 0 135 23q24 10 24 34z" />
    <glyph glyph-name="e" unicode="e" horiz-adv-x="527" 
d="M51 183v135q0 98 55 153q56 56 161 56q107 0 162 -57q54 -56 54 -150v-51q0 -22 -23 -22h-366v-68q0 -156 167 -156q123 0 177 98q8 11 18 5l14 -8q12 -6 4 -18q-62 -114 -213 -114q-103 0 -159 54q-51 51 -51 143zM440 282v40q0 79 -43 122q-45 45 -130 45t-130 -45
q-43 -43 -43 -122v-40h346z" />
    <glyph glyph-name="f" unicode="f" horiz-adv-x="344" 
d="M315 740h7q12 0 12 -12v-17q0 -11 -12 -11q-93 0 -124 -31q-34 -33 -34 -124v-33h160q12 0 12 -11v-17q0 -11 -12 -11h-160v-461q0 -12 -12 -12h-19q-12 0 -12 12v461h-103q-12 0 -12 11v17q0 11 12 11h103v33q0 108 44 152q43 41 150 43z" />
    <glyph glyph-name="g" unicode="g" horiz-adv-x="534" 
d="M53 185v140q0 202 210 202q92 0 164 -29q39 -17 39 -55v-480q0 -216 -207 -216q-137 0 -194 113q-7 13 5 19l14 7q10 6 18 -5q48 -95 156 -95q165 0 165 175v68q-85 -36 -178 -36q-192 0 -192 192zM398 464q-63 23 -132 23q-170 0 -170 -163v-138q0 -154 154 -154
q86 0 173 37v362q0 23 -25 33z" />
    <glyph glyph-name="h" unicode="h" horiz-adv-x="549" 
d="M83 740h19q12 0 12 -12v-236q78 35 176 35q193 0 193 -193v-322q0 -12 -11 -12h-20q-12 0 -12 12v320q0 155 -155 155q-97 0 -171 -36v-439q0 -12 -12 -12h-19q-12 0 -12 12v716q0 12 12 12z" />
    <glyph glyph-name="i" unicode="i" horiz-adv-x="184" 
d="M90 691h5q25 0 25 -25v-6q0 -26 -25 -26h-5q-26 0 -26 26v6q0 25 26 25zM82 512h20q12 0 12 -11v-489q0 -12 -12 -12h-20q-11 0 -11 12v489q0 11 11 11z" />
    <glyph glyph-name="j" unicode="j" horiz-adv-x="185" 
d="M90 691h5q26 0 26 -25v-6q0 -26 -26 -26h-5q-26 0 -26 26v6q0 25 26 25zM83 512h19q12 0 12 -11v-510q0 -111 -43 -163q-46 -58 -154 -58q-12 0 -12 12v17q0 11 12 11q86 0 122 47q32 43 32 134v510q0 11 12 11z" />
    <glyph glyph-name="k" unicode="k" horiz-adv-x="499" 
d="M383 196l92 -183q6 -13 -7 -13h-20q-15 0 -19 10l-83 168q-32 66 -106 66h-126v-232q0 -12 -12 -12h-19q-12 0 -12 12v716q0 12 12 12h19q12 0 12 -12v-445h131l174 220q6 9 23 9h17q18 0 8 -13l-178 -223q61 -12 94 -80z" />
    <glyph glyph-name="l" unicode="l" horiz-adv-x="192" 
d="M117 728v-716q0 -12 -11 -12h-20q-11 0 -11 12v716q0 12 11 12h20q11 0 11 -12z" />
    <glyph glyph-name="m" unicode="m" horiz-adv-x="813" 
d="M387 479q84 48 183 48q176 0 176 -186v-329q0 -12 -12 -12h-19q-12 0 -12 12v327q0 148 -138 148q-81 0 -155 -41q24 -40 24 -105v-329q0 -12 -12 -12h-19q-12 0 -12 12v327q0 148 -142 148q-66 0 -117 -24q-21 -11 -21 -35v-416q0 -12 -11 -12h-20q-12 0 -12 12v427
q0 39 38 57q66 31 148 31q88 0 133 -48z" />
    <glyph glyph-name="n" unicode="n" horiz-adv-x="547" 
d="M106 494q84 33 181 33q194 0 194 -193v-322q0 -12 -12 -12h-20q-11 0 -11 12v320q0 155 -156 155q-80 0 -150 -26q-21 -11 -21 -33v-416q0 -12 -11 -12h-20q-12 0 -12 12v427q0 38 38 55z" />
    <glyph glyph-name="o" unicode="o" horiz-adv-x="537" 
d="M54 161v190q0 81 58 129q59 47 156 47q98 0 157 -47q58 -46 58 -129v-190q0 -82 -58 -128q-59 -47 -157 -47q-97 0 -156 47q-58 46 -58 128zM440 161v191q0 62 -47 100q-47 36 -125 36t-124 -36q-47 -38 -47 -100v-191q0 -61 47 -99q46 -37 124 -37q79 0 125 37
q47 36 47 99z" />
    <glyph glyph-name="p" unicode="p" horiz-adv-x="534" 
d="M108 498q73 29 167 29q206 0 206 -200v-147q0 -194 -197 -194q-84 0 -173 43v-237q0 -12 -11 -12h-20q-12 0 -12 12v651q0 39 40 55zM438 181v145q0 161 -168 161q-71 0 -134 -23q-25 -10 -25 -34v-361q90 -44 171 -44q156 0 156 156z" />
    <glyph glyph-name="q" unicode="q" horiz-adv-x="534" 
d="M264 527q91 0 163 -29q39 -17 39 -55v-651q0 -12 -12 -12h-19q-12 0 -12 12v237q-92 -43 -177 -43q-192 0 -192 192v147q0 202 210 202zM96 324v-145q0 -154 154 -154q83 0 173 44v361q0 24 -25 34q-63 23 -132 23q-170 0 -170 -163z" />
    <glyph glyph-name="r" unicode="r" horiz-adv-x="337" 
d="M284 527h31q11 0 11 -12v-16q0 -12 -11 -12h-32q-84 0 -151 -26q-21 -11 -21 -33v-416q0 -12 -11 -12h-20q-12 0 -12 12v428q0 38 38 55q74 30 178 32z" />
    <glyph glyph-name="s" unicode="s" horiz-adv-x="492" 
d="M50 383q0 144 191 144q153 0 200 -110q6 -11 -6 -17l-15 -6q-10 -4 -17 5q-36 89 -161 89q-150 0 -150 -104q0 -65 49 -87q30 -14 119 -23q93 -9 134 -33q56 -33 56 -109q0 -146 -199 -146q-163 0 -213 126q-4 11 7 16l17 5q10 4 15 -7q37 -102 173 -102q158 0 158 106
q0 57 -45 81q-34 18 -112 25q-102 11 -139 30q-62 32 -62 117z" />
    <glyph glyph-name="t" unicode="t" horiz-adv-x="344" 
d="M135 632h19q12 0 12 -11v-109h159q12 0 12 -11v-17q0 -11 -12 -11h-159v-290q0 -95 34 -126q32 -30 123 -30q12 0 12 -12v-17q0 -12 -12 -12q-112 -1 -155 40q-45 42 -45 156v291h-108q-11 0 -11 11v17q0 11 11 11h108v109q0 11 12 11z" />
    <glyph glyph-name="u" unicode="u" horiz-adv-x="547" 
d="M447 512h20q11 0 11 -11v-428q0 -39 -37 -55q-82 -32 -181 -32q-194 0 -194 193v322q0 11 12 11h19q12 0 12 -11v-320q0 -156 155 -156q83 0 150 26q21 11 21 34v416q0 11 12 11z" />
    <glyph glyph-name="v" unicode="v" horiz-adv-x="498" 
d="M454 512h15q14 0 10 -13l-209 -491q-4 -12 -17 -12h-12q-12 0 -17 12l-208 491q-6 13 9 13h15q16 0 20 -12l159 -374l16 -43q7 -24 12 -34h2q3 7 12 33l15 43l158 376q5 11 20 11z" />
    <glyph glyph-name="w" unicode="w" horiz-adv-x="729" 
d="M680 512h14q13 0 9 -13l-154 -492q-5 -12 -16 -12h-15q-11 0 -16 12l-118 361l-20 76h-3l-9 -33q-6 -24 -12 -43l-116 -361q-4 -12 -16 -12h-15q-11 0 -15 12l-154 492q-4 13 9 13h15q17 0 20 -12l109 -353q3 -8 13 -51q9 -37 11 -43h2q4 9 12 43q2 8 14 52l111 337
q4 12 19 12h10q13 0 18 -11l110 -334l16 -54q7 -34 12 -45h2q2 6 11 43l14 55l108 350q3 11 20 11z" />
    <glyph glyph-name="x" unicode="x" horiz-adv-x="477" 
d="M419 512h20q16 0 7 -12l-181 -237l193 -251q8 -12 -8 -12h-21q-13 0 -20 10l-172 223l-171 -223q-6 -10 -20 -10h-20q-15 0 -8 12l193 252l-184 236q-7 12 9 12h20q14 0 20 -9l162 -209l161 209q7 9 20 9z" />
    <glyph glyph-name="y" unicode="y" horiz-adv-x="549" 
d="M447 512h20q11 0 11 -11v-538q0 -216 -208 -216q-138 0 -195 113q-9 13 5 19l13 7q11 6 19 -5q48 -95 157 -95q166 0 166 175v65q-89 -33 -175 -33q-194 0 -194 193v315q0 11 12 11h19q12 0 12 -11v-313q0 -156 155 -156q87 0 171 34v435q0 11 12 11z" />
    <glyph glyph-name="z" unicode="z" horiz-adv-x="447" 
d="M85 39h321q11 0 11 -12v-15q0 -12 -11 -12h-364q-11 0 -11 12v15q0 7 5 14l322 432h-312q-11 0 -11 12v16q0 11 11 11h355q11 0 11 -11v-16q0 -8 -5 -15z" />
    <glyph glyph-name="braceleft" unicode="{" horiz-adv-x="306" 
d="M238 856h45q11 0 11 -12v-16q0 -12 -11 -12h-44q-81 0 -81 -88v-255q0 -92 -66 -119q66 -22 66 -119v-254q0 -88 81 -88h44q11 0 11 -12v-16q0 -12 -11 -12h-44q-68 0 -96 31q-27 28 -27 95v251q0 102 -91 102h-11q-10 0 -10 12v20q0 12 10 12h11q91 0 91 102v252
q0 66 27 95q28 31 95 31z" />
    <glyph glyph-name="bar" unicode="|" horiz-adv-x="181" 
d="M81 856h18q12 0 12 -12v-979q0 -12 -12 -12h-18q-11 0 -11 12v979q0 12 11 12z" />
    <glyph glyph-name="braceright" unicode="}" horiz-adv-x="306" 
d="M23 856h44q67 0 95 -31q28 -28 28 -95v-252q0 -102 91 -102h11q10 0 10 -12v-20q0 -12 -10 -12h-11q-91 0 -91 -102v-251q0 -67 -27 -95q-28 -31 -96 -31h-44q-12 0 -12 12v16q0 12 12 12h43q82 0 82 88v254q0 97 66 119q-66 26 -66 119v255q0 88 -82 88h-43
q-12 0 -12 12v16q0 12 12 12z" />
    <glyph glyph-name="asciitilde" unicode="~" horiz-adv-x="562" 
d="M70 314q53 50 116 50q43 0 97 -22q57 -23 89 -23q49 0 92 40q9 7 17 -1l12 -11q11 -7 0 -18q-55 -49 -117 -49q-43 0 -97 22t-89 22q-48 0 -92 -40q-7 -7 -17 1l-11 11q-10 9 0 18z" />
    <glyph glyph-name="exclamdown" unicode="&#xa1;" horiz-adv-x="178" 
d="M92 454h-5q-27 0 -27 27v6q0 27 27 27h5q27 0 27 -27v-6q0 -27 -27 -27zM101 -231h-23q-12 0 -12 12l6 566q0 12 12 12h11q11 0 11 -12l6 -566q2 -12 -11 -12z" />
    <glyph glyph-name="cent" unicode="&#xa2;" horiz-adv-x="533" 
d="M455 152l18 -6q12 -4 7 -16q-41 -134 -189 -143v-59q0 -12 -12 -12h-20q-12 0 -12 12v59q-92 5 -141 56q-49 49 -49 137v153q0 85 48 135q50 53 142 57v73q0 12 12 12h20q12 0 12 -12v-73q149 -7 186 -135q4 -12 -8 -17l-16 -6q-11 -5 -17 8q-35 113 -167 113
q-169 0 -169 -153v-156q0 -73 43 -113q46 -41 126 -41q135 0 170 119q5 12 16 8z" />
    <glyph glyph-name="sterling" unicode="&#xa3;" horiz-adv-x="629" 
d="M146 359v183q0 81 49 129q55 53 158 53q167 0 220 -155q4 -12 -8 -16l-19 -7q-10 -4 -16 8q-26 72 -69 100q-39 27 -107 27q-80 0 -123 -41q-37 -36 -37 -99v-182h277q12 0 12 -13v-15q0 -13 -12 -13h-277v-168q0 -72 -50 -108v-2q96 3 116 3h301q12 0 12 -12v-18
q0 -13 -12 -13h-511q-12 0 -12 13v18q0 11 8 11h22q39 1 61 37q17 29 17 70v169h-84q-13 0 -13 13v15q0 13 13 13h84z" />
    <glyph glyph-name="currency" unicode="&#xa4;" horiz-adv-x="594" 
d="M471 194l56 -56q9 -8 0 -17l-14 -14q-8 -8 -16 0l-57 56q-62 -54 -144 -54q-81 0 -143 52l-56 -56q-8 -8 -16 0l-14 14q-8 8 0 16l56 57q-54 60 -54 144q0 81 53 143l-57 57q-8 8 0 16l14 14q9 9 17 0l56 -56q64 53 144 53q83 0 142 -52l56 56q9 9 17 0l14 -13
q9 -8 0 -17l-56 -56q54 -62 54 -145q0 -81 -52 -142zM296 522q-77 0 -132 -53q-54 -54 -54 -132t54 -132q54 -55 132 -55t132 55q54 54 54 132t-54 132q-55 53 -132 53z" />
    <glyph glyph-name="yen" unicode="&#xa5;" horiz-adv-x="629" 
d="M569 710h22q14 0 7 -13l-242 -358h146q12 0 12 -12v-12q0 -11 -12 -11h-164v-108h164q12 0 12 -12v-12q0 -11 -12 -11h-164v-148q0 -13 -13 -13h-21q-12 0 -12 13v148h-166q-12 0 -12 11v12q0 12 12 12h166v108h-166q-12 0 -12 11v12q0 12 12 12h148l-242 358q-7 13 7 13
h24q18 0 23 -11l230 -345l229 345q8 11 24 11z" />
    <glyph glyph-name="brokenbar" unicode="&#xa6;" horiz-adv-x="190" 
d="M86 856h18q11 0 11 -12v-401q0 -12 -11 -12h-18q-11 0 -11 12v401q0 12 11 12zM86 279h18q11 0 11 -12v-401q0 -12 -11 -12h-18q-11 0 -11 12v401q0 12 11 12z" />
    <glyph glyph-name="section" unicode="&#xa7;" horiz-adv-x="590" 
d="M61 555q0 81 54 126q58 49 174 49q181 0 242 -168q5 -13 -8 -17l-18 -8q-13 -5 -17 8q-51 142 -199 142q-182 0 -182 -132q0 -73 61 -103q39 -19 135 -29q104 -10 154 -39q72 -40 72 -129q0 -100 -101 -154q109 -34 109 -149q0 -80 -58 -126q-62 -49 -181 -49
q-189 0 -247 171q-4 12 9 16l18 7q12 5 17 -9q48 -142 203 -142q193 0 193 132q0 73 -62 103q-37 17 -138 27q-113 12 -161 36q-75 39 -75 131q0 107 114 157q-108 34 -108 149zM294 380q-61 7 -77 10q-115 -34 -115 -136q0 -72 60 -100q36 -18 135 -29q21 -2 39.5 -4.5
l30.5 -4t14 -1.5q101 45 101 137q0 66 -59 98q-41 22 -129 30z" />
    <glyph glyph-name="dieresis" unicode="&#xa8;" horiz-adv-x="439" 
d="M117 676h7q22 0 22 -23v-7q0 -22 -22 -22h-7q-22 0 -22 22v7q0 23 22 23zM309 676h5q24 0 24 -23v-7q0 -22 -24 -22h-5q-24 0 -24 22v7q0 23 24 23z" />
    <glyph glyph-name="copyright" unicode="&#xa9;" horiz-adv-x="811" 
d="M47 351q0 152 104 256q103 103 256 103q151 0 254 -103t103 -256q0 -152 -103 -255q-104 -104 -254 -104q-152 0 -256 104t-104 255zM731 351q0 138 -94 232q-93 94 -230 94q-139 0 -233 -94q-94 -93 -94 -232q0 -138 94 -232q95 -95 233 -95q137 0 230 95q94 94 94 232z
M246 287v119q0 68 40 105q40 39 117 39q122 0 152 -102q4 -8 -5 -13l-12 -4q-9 -1 -13 6q-13 45 -39 63q-28 19 -84 19q-123 0 -123 -112v-120q0 -113 123 -113q100 0 125 88q2 9 13 6l11 -4q9 -4 7 -12q-33 -109 -155 -109q-75 0 -117 39q-40 37 -40 105z" />
    <glyph glyph-name="ordfeminine" unicode="&#xaa;" horiz-adv-x="373" 
d="M67 611q41 59 121 59q123 0 123 -124v-124q0 -36 -33 -52q-33 -15 -96 -15q-126 0 -126 86q0 91 128 91q53 0 92 -6v22q0 91 -89 91q-59 0 -91 -47q-6 -5 -13 -2l-11 5q-12 8 -5 16zM276 427v71q-42 6 -93 6q-92 0 -92 -62q0 -58 90 -58q46 0 74 11q21 9 21 32z" />
    <glyph glyph-name="guillemotleft" unicode="&#xab;" horiz-adv-x="552" 
d="M88 263l184 -183q8 -8 0 -15l-14 -14q-7 -7 -16 0l-203 204q-7 7 0 15l205 207q8 8 16 0l12 -13q8 -8 0 -16zM313 263l183 -183q8 -8 0 -15l-13 -14q-9 -7 -16 0l-204 204q-6 7 0 15l206 207q7 7 15 0l13 -13q7 -9 0 -16z" />
    <glyph glyph-name="logicalnot" unicode="&#xac;" horiz-adv-x="576" 
d="M81 378h417q12 0 12 -12v-215q0 -11 -12 -11h-20q-12 0 -12 11v186h-385q-12 0 -12 12v17q0 12 12 12z" />
    <glyph glyph-name="registered" unicode="&#xae;" horiz-adv-x="488" 
d="M50 516q0 80 57 137q59 57 138 57t136 -57t57 -137t-57 -137q-55 -57 -136 -57q-79 0 -138 57q-57 57 -57 137zM74 516q0 -71 50 -121q51 -51 122 -51q70 0 120 51q50 50 50 121q0 69 -50 121q-50 50 -120 50t-122 -50q-50 -50 -50 -121zM175 619h92q70 0 70 -66
q0 -50 -48 -61l40 -70q8 -9 -4 -9h-10q-6 0 -11 5l-40 71h-76v-71q0 -5 -6 -5h-11q-6 0 -6 5v192q0 9 10 9zM188 510h78q47 0 47 43q0 44 -47 44h-78v-87z" />
    <glyph glyph-name="overscore" unicode="&#xaf;" horiz-adv-x="352" 
d="M55 666h238q11 0 11 -11v-11q0 -11 -11 -11h-238q-11 0 -11 11v11q0 11 11 11z" />
    <glyph glyph-name="degree" unicode="&#xb0;" horiz-adv-x="383" 
d="M337 555q0 -60 -43 -103t-102 -43q-61 0 -103 43q-43 42 -43 103t43 103q42 42 103 42q60 0 103 -42q42 -42 42 -103zM82 555q0 -45 32 -77t78 -32q44 0 76 32q32 34 32 77q0 46 -31 77q-32 32 -77 32q-46 0 -78 -32t-32 -77z" />
    <glyph glyph-name="plusminus" unicode="&#xb1;" horiz-adv-x="659" 
d="M350 415h203q12 0 12 -13v-13q0 -12 -12 -12h-203v-130q0 -13 -13 -13h-14q-13 0 -13 13v130h-204q-13 0 -13 12v13q0 13 13 13h204v133q0 13 13 13h14q13 0 13 -13v-133zM106 171h447q12 0 12 -13v-13q0 -12 -12 -12h-447q-13 0 -13 12v13q0 13 13 13z" />
    <glyph glyph-name="uni00B2" unicode="&#xb2;" horiz-adv-x="351" 
d="M40 707q16 44 29 60q39 51 111 51q64 0 100 -33q33 -31 33 -84t-37 -81q-24 -19 -84 -38l-61 -22q-57 -22 -57 -79v-33h224q11 0 11 -11v-12q0 -11 -11 -11h-246q-14 0 -14 13v43q0 89 77 118l61 23q53 20 68 30q30 19 30 59q0 83 -95 83q-55 0 -84 -42q-9 -13 -15 -30
l-4 -15q-5 -12 -16 -9l-12 4q-14 3 -8 16z" />
    <glyph glyph-name="uni00B3" unicode="&#xb3;" horiz-adv-x="360" 
d="M37 708q32 110 151 110q58 0 92 -31q32 -30 32 -80q0 -63 -51 -89q62 -29 62 -101q0 -111 -136 -111q-119 0 -151 108q-4 13 6 16l13 5q11 3 15 -9q26 -86 117 -86q99 0 99 81q0 34 -19 54q-20 23 -52 23h-71q-11 0 -11 12v10q0 12 12 12h68q63 0 63 71q0 36 -23 59
q-23 22 -65 22q-89 0 -115 -87q-5 -14 -19 -9l-9 3q-12 5 -8 17z" />
    <glyph glyph-name="acute" unicode="&#xb4;" horiz-adv-x="257" 
d="M31 616l169 107q15 7 23 -1l9 -11q9 -10 -2 -15l-177 -103q-11 -4 -16 2l-7 8q-8 8 1 13z" />
    <glyph glyph-name="mu" unicode="&#xb5;" horiz-adv-x="542" 
d="M446 512h20q12 0 12 -11v-429q0 -37 -38 -54q-82 -33 -173 -33q-120 0 -160 85l1 -278q0 -12 -11 -12h-21q-11 0 -11 12v709q0 11 12 11h20q11 0 11 -11v-321q0 -156 156 -156q83 0 149 27q22 9 22 33v417q0 11 11 11z" />
    <glyph glyph-name="paragraph" unicode="&#xb6;" horiz-adv-x="359" 
d="M153 710h118q12 0 12 -12v-775q0 -12 -12 -12h-18q-11 0 -11 12v743h-52v-743q0 -12 -12 -12h-17q-12 0 -12 12v586q-45 2 -71 28q-27 29 -27 72q0 46 28 73q28 28 74 28z" />
    <glyph glyph-name="middot" unicode="&#xb7;" horiz-adv-x="192" 
d="M93 297h5q28 0 28 -27v-6q0 -27 -28 -27h-5q-27 0 -27 27v6q0 27 27 27z" />
    <glyph glyph-name="cedilla" unicode="&#xb8;" horiz-adv-x="251" 
d="M146 0l-29 -82q11 4 32 4q40 0 63 -20q24 -21 23 -55q-3 -93 -112 -93q-47 0 -84 22q-9 4 -9 16v13q0 11 7 4q35 -26 82 -26q78 0 78 66q0 49 -68 49q-21 0 -38 -6q-7 -1 -9.5 2.5t0.5 11.5l36 94h28z" />
    <glyph glyph-name="uni00B9" unicode="&#xb9;" horiz-adv-x="279" 
d="M198 810h8q12 0 12 -12v-372q0 -12 -12 -12h-13q-12 0 -12 12v337l-137 -76q-12 -6 -18 4l-5 10q-5 11 5 17l156 88q7 4 16 4z" />
    <glyph glyph-name="ordmasculine" unicode="&#xba;" horiz-adv-x="377" 
d="M56 474v78q0 118 132 118t132 -118v-78q0 -118 -132 -118t-132 118zM284 473v80q0 84 -96 84t-96 -84v-80q0 -84 96 -84t96 84z" />
    <glyph glyph-name="guillemotright" unicode="&#xbb;" horiz-adv-x="552" 
d="M235 263l-185 185q-7 7 0 16l13 13q7 7 15 0l206 -207q6 -8 0 -15l-204 -204q-8 -8 -16 0l-13 14q-7 7 0 15zM459 263l-184 185q-8 8 0 16l12 13q8 8 16 0l206 -207q6 -8 0 -15l-204 -204q-9 -7 -16 0l-14 14q-7 7 0 15z" />
    <glyph glyph-name="onequarter" unicode="&#xbc;" horiz-adv-x="777" 
d="M210 716h8q12 0 12 -12v-372q0 -12 -12 -12h-13q-13 0 -13 12v337l-137 -76q-11 -6 -17 4l-5 10q-6 11 5 17l156 88q7 4 16 4zM647 710h18q14 0 7 -13l-504 -685q-10 -12 -26 -12h-16q-16 0 -6 13l504 685q8 12 23 12zM653 397h16q12 0 12 -13v-240h50q11 0 11 -10v-11
q0 -11 -11 -11h-50v-101q0 -11 -11 -11h-15q-10 0 -10 11v101h-201q-11 0 -11 11v9q0 11 4 15l198 242q8 8 18 8zM477 144h168v205z" />
    <glyph glyph-name="onehalf" unicode="&#xbd;" horiz-adv-x="843" 
d="M210 718h8q12 0 12 -12v-372q0 -12 -12 -12h-13q-12 0 -12 12v337l-137 -76q-12 -6 -18 4l-5 10q-5 11 5 17l156 88q7 4 16 4zM648 710h17q17 0 7 -13l-504 -685q-7 -12 -26 -12h-15q-16 0 -6 13l504 685q7 12 23 12zM526 293q16 44 30 61q39 51 111 51q64 0 99 -34
q33 -31 33 -84q0 -51 -36 -80q-23 -17 -84 -39l-61 -22q-58 -19 -58 -79v-32h224q12 0 12 -12v-12q0 -11 -12 -11h-246q-14 0 -14 13v43q0 88 78 118l61 23q53 20 68 30q30 19 30 59q0 83 -95 83q-56 0 -85 -42q-10 -15 -14 -30l-5 -15q-4 -10 -15 -9l-13 4q-12 3 -8 16z
" />
    <glyph glyph-name="threequarters" unicode="&#xbe;" horiz-adv-x="818" 
d="M44 616q32 110 151 110q58 0 92 -31q32 -30 32 -80q0 -63 -51 -89q62 -29 62 -101q0 -111 -136 -111q-118 0 -152 108q-4 13 6 16l13 5q12 3 16 -9q26 -86 117 -86q99 0 99 81q0 34 -19 54q-20 23 -52 23h-71q-11 0 -11 12v10q0 12 12 12h67q64 0 64 72q0 80 -88 80
q-89 0 -115 -87q-5 -14 -19 -9l-10 3q-12 5 -7 17zM691 710h17q14 0 7 -13l-504 -685q-11 -12 -26 -12h-16q-16 0 -6 13l504 685q7 12 24 12zM694 397h16q12 0 12 -13v-240h50q12 0 12 -10v-11q0 -11 -12 -11h-50v-101q0 -11 -11 -11h-15q-10 0 -10 11v101h-201
q-11 0 -11 11v9q0 11 4 15l198 242q8 8 18 8zM686 144v205l-168 -205h168z" />
    <glyph glyph-name="questiondown" unicode="&#xbf;" horiz-adv-x="547" 
d="M301 455h-5q-28 0 -28 27v5q0 28 28 28h5q27 0 27 -28v-5q0 -27 -27 -27zM517 -65q-61 -165 -249 -165q-108 0 -173 60q-62 57 -62 146t47 148q25 30 96 79q103 69 103 154q0 12 12 12h15q12 0 12 -12q0 -69 -36 -116q-24 -31 -80 -69q-64 -44 -85 -71q-39 -49 -39 -124
q0 -72 49 -117q52 -49 142 -49q153 0 206 138q5 13 16 8l19 -6q11 -4 7 -16z" />
    <glyph glyph-name="Agrave" unicode="&#xc0;" horiz-adv-x="632" 
d="M212 875l10 11q8 9 22 2l172 -102q10 -5 2 -14l-7 -8q-4 -6 -16 -1l-181 98q-10 4 -2 14zM342 703l277 -691q5 -12 -10 -12h-18q-20 0 -22 11l-89 221h-332l-88 -221q-5 -11 -23 -11h-17q-14 0 -9 12l277 691q4 12 17 12h20q13 0 17 -12zM467 271l-142 355q-2 6 -10 43
h-3q0 -19 -8 -43l-142 -355h305z" />
    <glyph glyph-name="Aacute" unicode="&#xc1;" horiz-adv-x="632" 
d="M216 788l169 107q14 8 22 -2l10 -11q8 -11 -2 -15l-178 -102q-11 -5 -16 1l-7 8q-8 9 2 14zM342 703l277 -691q5 -12 -10 -12h-18q-20 0 -22 11l-89 221h-332l-88 -221q-5 -11 -23 -11h-17q-14 0 -9 12l277 691q4 12 17 12h20q13 0 17 -12zM467 271l-142 355q-2 6 -10 43
h-3q0 -19 -8 -43l-142 -355h305z" />
    <glyph glyph-name="Acircumflex" unicode="&#xc2;" horiz-adv-x="632" 
d="M313 897h5q11 0 24 -11l133 -112q7 -10 -7 -10h-18q-13 0 -20 7l-115 95l-116 -95q-7 -7 -19 -7h-18q-17 0 -7 10l134 112q11 11 24 11zM342 703l277 -691q5 -12 -10 -12h-18q-20 0 -22 11l-89 221h-332l-88 -221q-5 -11 -23 -11h-17q-14 0 -9 12l277 691q4 12 17 12h20
q13 0 17 -12zM467 271l-142 355q-2 6 -10 43h-3q0 -19 -8 -43l-142 -355h305z" />
    <glyph glyph-name="Atilde" unicode="&#xc3;" horiz-adv-x="632" 
d="M446 875h13q9 0 9 -8q0 -94 -75 -94q-37 0 -82 36t-74 36q-48 0 -48 -64q0 -8 -8 -8h-14q-8 0 -8 8q0 94 75 94q38 0 84 -36q45 -36 72 -36q48 0 48 64q0 8 8 8zM342 703l277 -691q5 -12 -10 -12h-18q-20 0 -22 11l-89 221h-332l-88 -221q-5 -11 -23 -11h-17q-14 0 -9 12
l277 691q4 12 17 12h20q13 0 17 -12zM467 271l-142 355q-2 6 -10 43h-3q0 -19 -8 -43l-142 -355h305z" />
    <glyph glyph-name="Adieresis" unicode="&#xc4;" horiz-adv-x="632" 
d="M216 853h6q23 0 23 -23v-7q0 -22 -23 -22h-6q-23 0 -23 22v7q0 23 23 23zM408 853h5q23 0 23 -23v-7q0 -22 -23 -22h-5q-24 0 -24 22v7q0 23 24 23zM342 703l277 -691q5 -12 -10 -12h-18q-20 0 -22 11l-89 221h-332l-88 -221q-5 -11 -23 -11h-17q-14 0 -9 12l277 691
q4 12 17 12h20q13 0 17 -12zM467 271l-142 355q-2 6 -10 43h-3q0 -19 -8 -43l-142 -355h305z" />
    <glyph glyph-name="Aring" unicode="&#xc5;" horiz-adv-x="632" 
d="M214 786q0 45 28 72q29 27 74 27q46 0 73 -27t27 -72q0 -78 -71 -92l274 -682q5 -12 -10 -12h-18q-20 0 -22 11l-89 221h-332l-88 -221q-5 -11 -23 -11h-17q-14 0 -9 12l274 683q-71 14 -71 91zM388 786q0 71 -72 71q-74 0 -74 -71t74 -71q72 0 72 71zM467 271l-142 355
q-2 6 -10 43h-3q0 -19 -8 -43l-142 -355h305z" />
    <glyph glyph-name="AE" unicode="&#xc6;" horiz-adv-x="817" 
d="M468 43h296q12 0 12 -12v-18q0 -13 -12 -13h-329q-12 0 -12 13v174h-270l-106 -176q-8 -11 -22 -11h-20q-13 0 -9 12l418 686q8 12 17 12h319q12 0 12 -13v-18q0 -12 -12 -12h-282v-286h238q13 0 13 -13v-18q0 -12 -13 -12h-238v-295zM423 635l-246 -409h246v409z" />
    <glyph glyph-name="Ccedilla" unicode="&#xc7;" horiz-adv-x="634" 
d="M568 188l19 -7q12 -5 8 -16q-25 -87 -83 -131q-63 -46 -177 -48l-25 -68q11 4 32 4q41 0 64 -20q23 -22 22 -55q-3 -93 -112 -93q-49 0 -83 22q-9 4 -9 16l-1 13q0 10 8 4q35 -26 81 -26q79 0 79 66q0 49 -69 49q-20 0 -37 -6q-7 -1 -9.5 2.5t0.5 11.5l31 80
q-119 6 -183 72q-63 64 -63 175v245q0 115 68 180q71 66 201 66q210 0 263 -174q3 -11 -9 -17l-18 -6q-12 -3 -17 8q-22 75 -72 110q-53 36 -147 36q-108 0 -167 -54q-56 -53 -56 -148v-247q0 -96 57 -148q58 -55 166 -55q97 0 150 38q47 35 71 113q5 13 17 8z" />
    <glyph glyph-name="Egrave" unicode="&#xc8;" horiz-adv-x="570" 
d="M197 875l9 11q8 10 22 2l173 -102q8 -7 1 -14l-7 -8q-4 -6 -16 -1l-180 98q-12 4 -2 14zM95 710h408q13 0 13 -13v-18q0 -12 -13 -12h-375v-286h332q12 0 12 -12v-18q0 -13 -12 -13h-332v-295h389q13 0 13 -12v-18q0 -13 -13 -13h-422q-13 0 -13 13v684q0 13 13 13z" />
    <glyph glyph-name="Eacute" unicode="&#xc9;" horiz-adv-x="570" 
d="M200 788l169 107q15 8 23 -2l9 -11q9 -10 -2 -15l-177 -102q-11 -4 -16 1l-7 8q-8 10 1 14zM95 710h408q13 0 13 -13v-18q0 -12 -13 -12h-375v-286h332q12 0 12 -12v-18q0 -13 -12 -13h-332v-295h389q13 0 13 -12v-18q0 -13 -13 -13h-422q-13 0 -13 13v684q0 13 13 13z
" />
    <glyph glyph-name="Ecircumflex" unicode="&#xca;" horiz-adv-x="570" 
d="M297 897h6q12 0 23 -11l133 -112q10 -10 -6 -10h-19q-13 0 -20 7l-115 95l-116 -95q-7 -7 -19 -7h-18q-16 0 -6 10l133 112q11 11 24 11zM95 710h408q13 0 13 -13v-18q0 -12 -13 -12h-375v-286h332q12 0 12 -12v-18q0 -13 -12 -13h-332v-295h389q13 0 13 -12v-18
q0 -13 -13 -13h-422q-13 0 -13 13v684q0 13 13 13z" />
    <glyph glyph-name="Edieresis" unicode="&#xcb;" horiz-adv-x="570" 
d="M201 853h6q23 0 23 -23v-7q0 -22 -23 -22h-6q-23 0 -23 22v7q0 23 23 23zM392 853h6q23 0 23 -23v-7q0 -22 -23 -22h-6q-24 0 -24 22v7q0 23 24 23zM95 710h408q13 0 13 -13v-18q0 -12 -13 -12h-375v-286h332q12 0 12 -12v-18q0 -13 -12 -13h-332v-295h389q13 0 13 -12
v-18q0 -13 -13 -13h-422q-13 0 -13 13v684q0 13 13 13z" />
    <glyph glyph-name="Igrave" unicode="&#xcc;" horiz-adv-x="210" 
d="M2 875l9 11q8 10 23 2l172 -102q9 -4 1 -14l-7 -8q-4 -5 -16 -1l-180 98q-10 4 -2 14zM82 13v684q0 13 12 13h21q13 0 13 -13v-684q0 -13 -13 -13h-21q-12 0 -12 13z" />
    <glyph glyph-name="Iacute" unicode="&#xcd;" horiz-adv-x="210" 
d="M4 788l170 107q14 8 22 -2l10 -11q8 -11 -2 -15l-178 -102q-10 -5 -16 1l-7 8q-7 7 1 14zM81 13v684q0 13 13 13h21q12 0 12 -13v-684q0 -13 -12 -13h-21q-13 0 -13 13z" />
    <glyph glyph-name="Icircumflex" unicode="&#xce;" horiz-adv-x="210" 
d="M104 897h5q11 0 24 -11l132 -112q10 -10 -6 -10h-18q-14 0 -21 7l-114 95l-116 -95q-7 -7 -19 -7h-18q-17 0 -7 10l134 112q11 11 24 11zM83 13v684q0 13 13 13h21q12 0 12 -13v-684q0 -13 -12 -13h-21q-13 0 -13 13z" />
    <glyph glyph-name="Idieresis" unicode="&#xcf;" horiz-adv-x="210" 
d="M6 853h6q23 0 23 -23v-7q0 -22 -23 -22h-6q-23 0 -23 22v7q0 23 23 23zM198 853h5q23 0 23 -23v-7q0 -22 -23 -22h-5q-24 0 -24 22v7q0 23 24 23zM82 13v684q0 13 13 13h21q12 0 12 -13v-684q0 -13 -12 -13h-21q-13 0 -13 13z" />
    <glyph glyph-name="Eth" unicode="&#xd0;" horiz-adv-x="655" 
d="M104 710h205q138 0 215 -71q75 -71 75 -193v-182q0 -122 -75 -193q-77 -71 -215 -71h-205q-13 0 -13 13v328h-80q-10 0 -10 10v13q0 10 10 10h80v323q0 13 13 13zM553 264v182q0 104 -63 163q-64 58 -181 58h-171v-293h191q10 0 10 -10v-13q0 -10 -10 -10h-191v-298h171
q117 0 181 58q63 58 63 163z" />
    <glyph glyph-name="Ntilde" unicode="&#xd1;" horiz-adv-x="688" 
d="M476 875h13q8 0 8 -8q0 -94 -75 -94q-36 0 -82 36q-45 36 -73 36q-48 0 -48 -64q0 -8 -8 -8h-14q-8 0 -8 8q0 94 75 94q38 0 83 -36q47 -36 73 -36q48 0 48 64q0 8 8 8zM574 710h20q12 0 12 -13v-684q0 -13 -12 -13h-21q-9 0 -14 8l-355 506q-18 26 -45 72q-24 43 -36 58
h-2q0 -16 3 -73t3 -92v-466q0 -13 -12 -13h-20q-13 0 -13 13v684q0 13 13 13h20q10 0 14 -7l345 -493q23 -33 51 -79l41 -64h2q0 19 -3 81q-4 55 -4 99v451q0 12 13 12z" />
    <glyph glyph-name="Ograve" unicode="&#xd2;" 
d="M228 885l9 11q8 10 23 2l172 -102q9 -4 1 -14l-7 -8q-4 -5 -16 -1l-180 98q-10 4 -2 14zM61 233v244q0 117 69 181q70 66 201 66q129 0 199 -66q69 -64 69 -181v-244q0 -117 -69 -181q-70 -66 -199 -66q-131 0 -201 66q-69 64 -69 181zM553 233v244q0 97 -57 150
q-58 54 -165 54q-109 0 -167 -54q-57 -53 -57 -150v-244q0 -97 57 -150q58 -54 167 -54q107 0 165 54q57 53 57 150z" />
    <glyph glyph-name="Oacute" unicode="&#xd3;" 
d="M231 798l169 107q15 8 23 -2l9 -11q10 -10 -2 -15l-177 -102q-11 -5 -16 1l-7 8q-7 7 1 14zM61 233v244q0 117 69 181q70 66 201 66q129 0 199 -66q69 -64 69 -181v-244q0 -117 -69 -181q-70 -66 -199 -66q-131 0 -201 66q-69 64 -69 181zM553 233v244q0 97 -57 150
q-58 54 -165 54q-109 0 -167 -54q-57 -53 -57 -150v-244q0 -97 57 -150q58 -54 167 -54q107 0 165 54q57 53 57 150z" />
    <glyph glyph-name="Ocircumflex" unicode="&#xd4;" 
d="M328 907h6q11 0 24 -11l132 -112q10 -10 -6 -10h-18q-14 0 -21 7l-114 95l-116 -95q-7 -7 -19 -7h-19q-16 0 -6 10l133 112q13 11 24 11zM61 233v244q0 117 69 181q70 66 201 66q129 0 199 -66q69 -64 69 -181v-244q0 -117 -69 -181q-70 -66 -199 -66q-131 0 -201 66
q-69 64 -69 181zM553 233v244q0 97 -57 150q-58 54 -165 54q-109 0 -167 -54q-57 -53 -57 -150v-244q0 -97 57 -150q58 -54 167 -54q107 0 165 54q57 53 57 150z" />
    <glyph glyph-name="Otilde" unicode="&#xd5;" 
d="M462 885h13q8 0 8 -8q0 -94 -75 -94q-36 0 -82 36q-45 36 -73 36q-48 0 -48 -64q0 -8 -8 -8h-14q-8 0 -8 8q0 94 75 94q38 0 83 -36q46 -36 73 -36q48 0 48 64q0 8 8 8zM61 233v244q0 117 69 181q70 66 201 66q129 0 199 -66q69 -64 69 -181v-244q0 -117 -69 -181
q-70 -66 -199 -66q-131 0 -201 66q-69 64 -69 181zM553 233v244q0 97 -57 150q-58 54 -165 54q-109 0 -167 -54q-57 -53 -57 -150v-244q0 -97 57 -150q58 -54 167 -54q107 0 165 54q57 53 57 150z" />
    <glyph glyph-name="Odieresis" unicode="&#xd6;" 
d="M232 863h6q23 0 23 -23v-7q0 -22 -23 -22h-6q-23 0 -23 22v7q0 23 23 23zM423 863h6q23 0 23 -23v-7q0 -22 -23 -22h-6q-23 0 -23 22v7q0 23 23 23zM61 233v244q0 117 69 181q70 66 201 66q129 0 199 -66q69 -64 69 -181v-244q0 -117 -69 -181q-70 -66 -199 -66
q-131 0 -201 66q-69 64 -69 181zM553 233v244q0 97 -57 150q-58 54 -165 54q-109 0 -167 -54q-57 -53 -57 -150v-244q0 -97 57 -150q58 -54 167 -54q107 0 165 54q57 53 57 150z" />
    <glyph glyph-name="multiply" unicode="&#xd7;" horiz-adv-x="504" 
d="M278 324l157 -157q9 -9 0 -18l-10 -10q-9 -9 -18 0l-157 157l-157 -156q-9 -9 -18 0l-10 10q-9 8 0 18l157 156l-157 158q-9 9 0 18l10 10q9 9 18 0l157 -158l157 158q9 9 18 0l10 -10q9 -9 0 -18z" />
    <glyph glyph-name="Oslash" unicode="&#xd8;" 
d="M575 749h27q5 0 3 -5l-63 -98q57 -62 57 -169v-244q0 -117 -69 -181q-70 -66 -199 -66q-114 0 -179 49l-47 -73q-3 -5 -12 -5h-25q-6 0 -3 5l60 94q-64 64 -64 177v244q0 117 69 181q70 66 201 66q117 0 185 -56l49 77q4 4 10 4zM154 100l338 530q-57 51 -161 51
q-109 0 -167 -54q-57 -53 -57 -150v-244q0 -83 47 -133zM514 601l-338 -527q57 -45 155 -45q107 0 165 54q57 53 57 150v244q0 77 -39 124z" />
    <glyph glyph-name="Ugrave" unicode="&#xd9;" horiz-adv-x="679" 
d="M237 875l9 11q8 10 23 2l172 -102q9 -4 1 -14l-7 -8q-4 -5 -16 -1l-180 98q-10 4 -2 14zM122 697v-457q0 -98 54 -154q55 -58 164 -58q108 0 163 58q54 55 54 154v457q0 13 12 13h22q12 0 12 -13v-457q0 -118 -65 -186q-69 -69 -198 -69q-130 0 -198 69q-66 68 -66 186
v457q0 13 13 13h21q12 0 12 -13z" />
    <glyph glyph-name="Uacute" unicode="&#xda;" horiz-adv-x="679" 
d="M240 788l169 107q15 8 23 -2l9 -11q10 -10 -2 -15l-177 -102q-11 -5 -16 1l-7 8q-7 7 1 14zM122 697v-457q0 -98 54 -154q55 -58 164 -58q108 0 163 58q54 55 54 154v457q0 13 12 13h22q12 0 12 -13v-457q0 -118 -65 -186q-69 -69 -198 -69q-130 0 -198 69
q-66 68 -66 186v457q0 13 13 13h21q12 0 12 -13z" />
    <glyph glyph-name="Ucircumflex" unicode="&#xdb;" horiz-adv-x="679" 
d="M337 897h6q11 0 24 -11l132 -112q10 -10 -6 -10h-18q-14 0 -21 7l-114 95l-116 -95q-7 -7 -19 -7h-19q-16 0 -6 10l133 112q13 11 24 11zM122 697v-457q0 -98 54 -154q55 -58 164 -58q108 0 163 58q54 55 54 154v457q0 13 12 13h22q12 0 12 -13v-457q0 -118 -65 -186
q-69 -69 -198 -69q-130 0 -198 69q-66 68 -66 186v457q0 13 13 13h21q12 0 12 -13z" />
    <glyph glyph-name="Udieresis" unicode="&#xdc;" horiz-adv-x="679" 
d="M241 853h6q23 0 23 -23v-7q0 -22 -23 -22h-6q-23 0 -23 22v7q0 23 23 23zM432 853h6q23 0 23 -23v-7q0 -22 -23 -22h-6q-23 0 -23 22v7q0 23 23 23zM122 697v-457q0 -98 54 -154q55 -58 164 -58q108 0 163 58q54 55 54 154v457q0 13 12 13h22q12 0 12 -13v-457
q0 -118 -65 -186q-69 -69 -198 -69q-130 0 -198 69q-66 68 -66 186v457q0 13 13 13h21q12 0 12 -13z" />
    <glyph glyph-name="Yacute" unicode="&#xdd;" horiz-adv-x="619" 
d="M211 788l169 107q15 8 23 -2l9 -11q9 -10 -2 -15l-177 -102q-11 -4 -16 1l-7 8q-8 10 1 14zM571 710h25q14 0 7 -13l-271 -405v-279q0 -13 -12 -13h-21q-13 0 -13 13v280l-270 404q-7 13 7 13h27q18 0 23 -11l237 -359l237 359q8 11 24 11z" />
    <glyph glyph-name="Thorn" unicode="&#xde;" horiz-adv-x="616" 
d="M128 587h226q107 0 168 -61q63 -61 63 -167q0 -105 -63 -166q-62 -60 -168 -60h-226v-120q0 -13 -12 -13h-21q-13 0 -13 13v684q0 13 13 13h21q12 0 12 -13v-110zM128 176h222q87 0 136 49q51 49 51 134t-51 135q-50 50 -136 50h-222v-368z" />
    <glyph glyph-name="germandbls" unicode="&#xdf;" horiz-adv-x="547" 
d="M71 13v515q0 102 51 161q52 61 150 61q205 0 205 -199q0 -125 -98 -163v-1q124 -34 124 -183q0 -204 -202 -204h-96q-12 0 -12 13v17q0 12 12 12h92q160 0 160 166q0 71 -39 113q-41 42 -112 42h-97q-12 0 -12 13v16q0 13 12 13h94q65 0 101 48q29 41 29 94
q0 161 -161 161q-78 0 -118 -49q-40 -46 -40 -131v-515q0 -13 -13 -13h-17q-13 0 -13 13z" />
    <glyph glyph-name="agrave" unicode="&#xe0;" horiz-adv-x="509" 
d="M150 703l9 11q8 11 22 1l170 -106q8 -7 1 -14l-7 -8q-4 -6 -16 -1l-177 102q-12 5 -2 15zM57 421q55 106 197 106q194 0 194 -195v-263q0 -42 -36 -57q-61 -26 -159 -26q-123 0 -171 39q-42 35 -42 113q0 83 50 118q50 33 167 33q40 0 148 -11v55q0 72 -29 109
q-36 46 -124 46q-112 0 -157 -85q-6 -9 -16 -5l-16 6q-12 6 -6 17zM405 79v163q-115 11 -152 11q-93 0 -131 -26t-38 -88q0 -60 32 -86q37 -31 134 -31q80 0 132 20q23 11 23 37z" />
    <glyph glyph-name="aacute" unicode="&#xe1;" horiz-adv-x="509" 
d="M151 609l170 106q14 10 22 -1l10 -11q8 -11 -2 -15l-178 -102q-12 -5 -16 1l-7 8q-7 7 1 14zM57 421q55 106 197 106q194 0 194 -195v-263q0 -42 -36 -57q-61 -26 -159 -26q-123 0 -171 39q-42 35 -42 113q0 83 50 118q50 33 167 33q40 0 148 -11v55q0 72 -29 109
q-36 46 -124 46q-112 0 -157 -85q-6 -9 -16 -5l-16 6q-12 6 -6 17zM405 79v163q-115 11 -152 11q-93 0 -131 -26t-38 -88q0 -60 32 -86q37 -31 134 -31q80 0 132 20q23 11 23 37z" />
    <glyph glyph-name="acircumflex" unicode="&#xe2;" horiz-adv-x="509" 
d="M249 712h5q11 0 24 -11l132 -112q7 -10 -6 -10h-18q-14 0 -21 7l-114 95l-116 -95q-7 -7 -19 -7h-18q-14 0 -7 10l134 112q11 11 24 11zM57 421q55 106 197 106q194 0 194 -195v-263q0 -42 -36 -57q-61 -26 -159 -26q-123 0 -171 39q-42 35 -42 113q0 83 50 118
q50 33 167 33q40 0 148 -11v55q0 72 -29 109q-36 46 -124 46q-112 0 -157 -85q-6 -9 -16 -5l-16 6q-12 6 -6 17zM405 79v163q-115 11 -152 11q-93 0 -131 -26t-38 -88q0 -60 32 -86q37 -31 134 -31q80 0 132 20q23 11 23 37z" />
    <glyph glyph-name="atilde" unicode="&#xe3;" horiz-adv-x="509" 
d="M382 697h13q8 0 8 -9q0 -93 -74 -93q-37 0 -82 36q-46 36 -74 36q-48 0 -48 -64q0 -8 -8 -8h-14q-8 0 -8 8q0 94 75 94q38 0 84 -36q45 -36 72 -36q48 0 48 63q0 9 8 9zM57 421q55 106 197 106q194 0 194 -195v-263q0 -42 -36 -57q-61 -26 -159 -26q-123 0 -171 39
q-42 35 -42 113q0 83 50 118q50 33 167 33q40 0 148 -11v55q0 72 -29 109q-36 46 -124 46q-112 0 -157 -85q-6 -9 -16 -5l-16 6q-12 6 -6 17zM405 79v163q-115 11 -152 11q-93 0 -131 -26t-38 -88q0 -60 32 -86q37 -31 134 -31q80 0 132 20q23 11 23 37z" />
    <glyph glyph-name="adieresis" unicode="&#xe4;" horiz-adv-x="509" 
d="M152 676h6q23 0 23 -23v-7q0 -22 -23 -22h-6q-23 0 -23 22v7q0 23 23 23zM344 676h5q23 0 23 -23v-7q0 -22 -23 -22h-5q-24 0 -24 22v7q0 23 24 23zM57 421q55 106 197 106q194 0 194 -195v-263q0 -42 -36 -57q-61 -26 -159 -26q-123 0 -171 39q-42 35 -42 113
q0 83 50 118q50 33 167 33q40 0 148 -11v55q0 72 -29 109q-36 46 -124 46q-112 0 -157 -85q-6 -9 -16 -5l-16 6q-12 6 -6 17zM405 79v163q-115 11 -152 11q-93 0 -131 -26t-38 -88q0 -60 32 -86q37 -31 134 -31q80 0 132 20q23 11 23 37z" />
    <glyph glyph-name="aring" unicode="&#xe5;" horiz-adv-x="509" 
d="M155 681q0 43 27 69q28 26 72 26q43 0 69 -26t26 -69q0 -42 -26 -68t-69 -26q-44 0 -72 26q-27 25 -27 68zM324 681q0 70 -70 70q-74 0 -74 -70q0 -69 74 -69q70 0 70 69zM57 421q55 106 197 106q194 0 194 -195v-263q0 -42 -36 -57q-61 -26 -159 -26q-123 0 -171 39
q-42 35 -42 113q0 83 50 118q50 33 167 33q40 0 148 -11v55q0 72 -29 109q-36 46 -124 46q-112 0 -157 -85q-6 -9 -16 -5l-16 6q-12 6 -6 17zM405 79v163q-115 11 -152 11q-93 0 -131 -26t-38 -88q0 -60 32 -86q37 -31 134 -31q80 0 132 20q23 11 23 37z" />
    <glyph glyph-name="ae" unicode="&#xe6;" horiz-adv-x="783" 
d="M58 422q56 105 175 105q125 0 153 -102q38 102 163 102q189 0 189 -205v-53q0 -22 -23 -22h-311v-69q0 -155 142 -155q58 0 93 26q25 19 53 70q8 11 19 5l13 -7q11 -6 5 -18q-30 -58 -64 -81q-46 -32 -119 -32q-108 0 -149 71q-45 -71 -164 -71q-109 0 -153 38
q-39 34 -39 112q0 83 44 118q43 34 152 34q64 0 124 -12v62q0 72 -22 106q-30 44 -107 44q-90 0 -136 -84q-8 -9 -16 -5l-15 6q-11 4 -7 17zM695 282v42q0 165 -146 165q-145 0 -145 -165v-42h291zM361 169v71q-63 12 -129 12q-82 0 -115 -27q-32 -26 -32 -89q0 -59 29 -85
q32 -29 115 -29q117 0 141 72q-9 33 -9 75z" />
    <glyph glyph-name="ccedilla" unicode="&#xe7;" horiz-adv-x="513" 
d="M450 152l18 -6q12 -4 7 -16q-40 -136 -196 -144l-25 -68q11 4 32 4q40 0 63 -20q24 -21 23 -55q-3 -93 -112 -93q-47 0 -84 22q-9 4 -9 16v13q0 11 7 4q35 -26 82 -26q78 0 78 66q0 49 -68 49q-22 0 -37 -6q-8 -1 -10.5 2.5t1.5 11.5l30 80q-197 8 -197 194v153
q0 92 53 142q55 52 160 52q165 0 206 -137q5 -12 -7 -17l-17 -6q-11 -4 -16 8q-35 113 -168 113q-82 0 -126 -41q-43 -40 -43 -112v-156q0 -73 43 -113q46 -41 126 -41q135 0 170 119q5 12 16 8z" />
    <glyph glyph-name="egrave" unicode="&#xe8;" horiz-adv-x="527" 
d="M166 704l9 11q9 9 22 1l170 -107q9 -5 1 -13l-7 -8q-5 -7 -16 -2l-177 103q-11 5 -2 15zM51 183v135q0 98 55 153q56 56 161 56q107 0 162 -57q54 -56 54 -150v-51q0 -22 -23 -22h-366v-68q0 -156 167 -156q123 0 177 98q8 11 18 5l14 -8q12 -6 4 -18q-62 -114 -213 -114
q-103 0 -159 54q-51 51 -51 143zM440 282v40q0 79 -43 122q-45 45 -130 45t-130 -45q-43 -43 -43 -122v-40h346z" />
    <glyph glyph-name="eacute" unicode="&#xe9;" horiz-adv-x="527" 
d="M167 609l170 107q13 8 22 -1l10 -11q8 -11 -2 -15l-178 -103q-11 -5 -16 2l-7 8q-8 8 1 13zM51 183v135q0 98 55 153q56 56 161 56q107 0 162 -57q54 -56 54 -150v-51q0 -22 -23 -22h-366v-68q0 -156 167 -156q123 0 177 98q8 11 18 5l14 -8q12 -6 4 -18
q-62 -114 -213 -114q-103 0 -159 54q-51 51 -51 143zM440 282v40q0 79 -43 122q-45 45 -130 45t-130 -45q-43 -43 -43 -122v-40h346z" />
    <glyph glyph-name="ecircumflex" unicode="&#xea;" horiz-adv-x="527" 
d="M265 708h5q12 0 23 -11l130 -109q10 -10 -6 -10h-18q-13 0 -20 7l-112 93l-114 -93q-7 -7 -18 -7h-18q-16 0 -6 10l130 109q11 11 24 11zM51 183v135q0 98 55 153q56 56 161 56q107 0 162 -57q54 -56 54 -150v-51q0 -22 -23 -22h-366v-68q0 -156 167 -156q123 0 177 98
q8 11 18 5l14 -8q12 -6 4 -18q-62 -114 -213 -114q-103 0 -159 54q-51 51 -51 143zM440 282v40q0 79 -43 122q-45 45 -130 45t-130 -45q-43 -43 -43 -122v-40h346z" />
    <glyph glyph-name="edieresis" unicode="&#xeb;" horiz-adv-x="527" 
d="M168 677h6q23 0 23 -23v-7q0 -22 -23 -22h-6q-23 0 -23 22v7q0 23 23 23zM360 677h5q23 0 23 -23v-7q0 -22 -23 -22h-5q-24 0 -24 22v7q0 23 24 23zM51 183v135q0 98 55 153q56 56 161 56q107 0 162 -57q54 -56 54 -150v-51q0 -22 -23 -22h-366v-68q0 -156 167 -156
q123 0 177 98q8 11 18 5l14 -8q12 -6 4 -18q-62 -114 -213 -114q-103 0 -159 54q-51 51 -51 143zM440 282v40q0 79 -43 122q-45 45 -130 45t-130 -45q-43 -43 -43 -122v-40h346z" />
    <glyph glyph-name="igrave" unicode="&#xec;" horiz-adv-x="183" 
d="M11 698l9 11q7 10 22 2l133 -102q8 -8 2 -15l-6 -7q-4 -5 -16 -1l-142 98q-10 4 -2 14zM81 512h20q12 0 12 -11v-489q0 -12 -12 -12h-20q-11 0 -11 12v489q0 11 11 11z" />
    <glyph glyph-name="iacute" unicode="&#xed;" horiz-adv-x="183" 
d="M8 608l134 103q14 8 21 -2l10 -11q7 -10 -3 -14l-142 -98q-10 -6 -16 0l-6 7q-6 10 2 15zM81 512h19q12 0 12 -11v-489q0 -12 -12 -12h-19q-12 0 -12 12v489q0 11 12 11z" />
    <glyph glyph-name="icircumflex" unicode="&#xee;" horiz-adv-x="183" 
d="M117 699l97 -104q10 -10 -6 -10h-16q-16 0 -20 7l-81 88l-81 -88q-4 -7 -19 -7h-17q-13 0 -6 10l98 104q11 11 23 11h5q12 0 23 -11zM82 512h19q12 0 12 -11v-489q0 -12 -12 -12h-19q-12 0 -12 12v489q0 11 12 11z" />
    <glyph glyph-name="idieresis" unicode="&#xef;" horiz-adv-x="183" 
d="M18 691h6q23 0 23 -22v-7q0 -23 -23 -23h-6q-23 0 -23 23v7q0 22 23 22zM159 691h5q23 0 23 -22v-7q0 -23 -23 -23h-5q-24 0 -24 23v7q0 22 24 22zM82 512h19q12 0 12 -11v-489q0 -12 -12 -12h-19q-12 0 -12 12v489q0 11 12 11z" />
    <glyph glyph-name="eth" unicode="&#xf0;" horiz-adv-x="550" 
d="M370 687l57 59q5 5 12 1l11 -9q8 -5 0 -11l-55 -58q90 -81 90 -268v-226q0 -90 -55 -139q-56 -50 -161 -50q-106 0 -162 50q-55 49 -55 139v140q0 89 54 139q56 51 156 51q141 0 181 -91q-1 156 -76 224l-79 -82q-5 -5 -11 0l-11 8q-6 6 0 11l76 79q-71 47 -198 47
q-12 0 -13 12v16q0 12 12 12q145 0 227 -54zM442 175v141q0 71 -44 110q-44 40 -129 40q-174 0 -174 -151v-140q0 -150 174 -150q85 0 129 40q44 39 44 110z" />
    <glyph glyph-name="ntilde" unicode="&#xf1;" horiz-adv-x="547" 
d="M403 697h13q8 0 8 -8q0 -94 -75 -94q-35 0 -82 36q-45 36 -73 36q-49 0 -49 -63q0 -9 -8 -9h-13q-8 0 -8 9q0 93 75 93q38 0 83 -36q46 -36 73 -36q48 0 48 64q0 8 8 8zM106 494q84 33 181 33q194 0 194 -193v-322q0 -12 -12 -12h-20q-11 0 -11 12v320q0 155 -156 155
q-80 0 -150 -26q-21 -11 -21 -33v-416q0 -12 -11 -12h-20q-12 0 -12 12v427q0 38 38 55z" />
    <glyph glyph-name="ograve" unicode="&#xf2;" horiz-adv-x="537" 
d="M167 703l9 11q7 9 23 1l169 -106q9 -4 1 -14l-7 -8q-4 -5 -16 -1l-177 102q-11 5 -2 15zM54 161v190q0 81 58 129q59 47 156 47q98 0 157 -47q58 -46 58 -129v-190q0 -82 -58 -128q-59 -47 -157 -47q-97 0 -156 47q-58 46 -58 128zM440 161v191q0 62 -47 100
q-47 36 -125 36t-124 -36q-47 -38 -47 -100v-191q0 -61 47 -99q46 -37 124 -37q79 0 125 37q47 36 47 99z" />
    <glyph glyph-name="oacute" unicode="&#xf3;" horiz-adv-x="537" 
d="M169 609l169 106q14 10 22 -1l10 -11q8 -11 -2 -15l-178 -102q-12 -5 -16 1l-6 8q-8 10 1 14zM54 161v190q0 81 58 129q59 47 156 47q98 0 157 -47q58 -46 58 -129v-190q0 -82 -58 -128q-59 -47 -157 -47q-97 0 -156 47q-58 46 -58 128zM440 161v191q0 62 -47 100
q-47 36 -125 36t-124 -36q-47 -38 -47 -100v-191q0 -61 47 -99q46 -37 124 -37q79 0 125 37q47 36 47 99z" />
    <glyph glyph-name="ocircumflex" unicode="&#xf4;" horiz-adv-x="537" 
d="M266 707h5q13 0 23 -10l130 -110q10 -10 -6 -10h-18q-13 0 -20 7l-112 93l-113 -93q-7 -7 -19 -7h-18q-16 0 -6 10l131 110q10 10 23 10zM54 161v190q0 81 58 129q59 47 156 47q98 0 157 -47q58 -46 58 -129v-190q0 -82 -58 -128q-59 -47 -157 -47q-97 0 -156 47
q-58 46 -58 128zM440 161v191q0 62 -47 100q-47 36 -125 36t-124 -36q-47 -38 -47 -100v-191q0 -61 47 -99q46 -37 124 -37q79 0 125 37q47 36 47 99z" />
    <glyph glyph-name="otilde" unicode="&#xf5;" horiz-adv-x="537" 
d="M399 697h14q8 0 8 -9q0 -93 -75 -93q-36 0 -82 36q-45 36 -74 36q-48 0 -48 -64q0 -8 -8 -8h-14q-8 0 -8 8q0 94 75 94q37 0 84 -36q45 -36 73 -36q47 0 47 63q0 9 8 9zM54 161v190q0 81 58 129q59 47 156 47q98 0 157 -47q58 -46 58 -129v-190q0 -82 -58 -128
q-59 -47 -157 -47q-97 0 -156 47q-58 46 -58 128zM440 161v191q0 62 -47 100q-47 36 -125 36t-124 -36q-47 -38 -47 -100v-191q0 -61 47 -99q46 -37 124 -37q79 0 125 37q47 36 47 99z" />
    <glyph glyph-name="odieresis" unicode="&#xf6;" horiz-adv-x="537" 
d="M169 676h7q22 0 22 -23v-7q0 -22 -22 -22h-7q-22 0 -22 22v7q0 23 22 23zM361 676h5q24 0 24 -23v-7q0 -22 -24 -22h-5q-24 0 -24 22v7q0 23 24 23zM54 161v190q0 81 58 129q59 47 156 47q98 0 157 -47q58 -46 58 -129v-190q0 -82 -58 -128q-59 -47 -157 -47
q-97 0 -156 47q-58 46 -58 128zM440 161v191q0 62 -47 100q-47 36 -125 36t-124 -36q-47 -38 -47 -100v-191q0 -61 47 -99q46 -37 124 -37q79 0 125 37q47 36 47 99z" />
    <glyph glyph-name="divide" unicode="&#xf7;" horiz-adv-x="591" 
d="M293 556h5q27 0 27 -27v-6q0 -27 -27 -27h-5q-27 0 -27 27v6q0 27 27 27zM73 345h445q13 0 13 -12v-17q0 -12 -13 -12h-445q-13 0 -13 12v17q0 12 13 12zM293 155h5q27 0 27 -27v-6q0 -27 -27 -27h-5q-27 0 -27 27v6q0 27 27 27z" />
    <glyph glyph-name="oslash" unicode="&#xf8;" horiz-adv-x="537" 
d="M447 552h20q5 0 3 -5l-43 -68q56 -47 56 -128v-190q0 -82 -58 -128q-59 -47 -157 -47q-80 0 -133 32l-31 -48q-5 -5 -10 -5h-20q-7 0 -2 5l40 63q-58 49 -58 128v190q0 81 58 129q59 47 156 47q82 0 135 -33l35 54q3 4 9 4zM137 73l245 386q-49 29 -114 29
q-78 0 -124 -36q-47 -38 -47 -100v-191q0 -54 40 -88zM401 439l-245 -386q46 -28 112 -28q79 0 125 37q47 36 47 99v191q0 54 -39 87z" />
    <glyph glyph-name="ugrave" unicode="&#xf9;" horiz-adv-x="547" 
d="M171 703l9 11q7 9 23 1l169 -106q9 -4 1 -14l-7 -8q-4 -5 -16 -1l-177 102q-11 5 -2 15zM447 512h20q11 0 11 -11v-428q0 -39 -37 -55q-82 -32 -181 -32q-194 0 -194 193v322q0 11 12 11h19q12 0 12 -11v-320q0 -156 155 -156q83 0 150 26q21 11 21 34v416q0 11 12 11z
" />
    <glyph glyph-name="uacute" unicode="&#xfa;" horiz-adv-x="547" 
d="M173 609l169 106q14 10 22 -1l10 -11q8 -11 -2 -15l-178 -102q-12 -5 -16 1l-6 8q-8 10 1 14zM447 512h20q11 0 11 -11v-428q0 -39 -37 -55q-82 -32 -181 -32q-194 0 -194 193v322q0 11 12 11h19q12 0 12 -11v-320q0 -156 155 -156q83 0 150 26q21 11 21 34v416
q0 11 12 11z" />
    <glyph glyph-name="ucircumflex" unicode="&#xfb;" horiz-adv-x="547" 
d="M270 712h6q12 0 23 -11l133 -112q7 -10 -7 -10h-18q-13 0 -20 7l-115 95l-116 -95q-7 -7 -19 -7h-18q-13 0 -6 10l133 112q11 11 24 11zM447 512h20q11 0 11 -11v-428q0 -39 -37 -55q-82 -32 -181 -32q-194 0 -194 193v322q0 11 12 11h19q12 0 12 -11v-320
q0 -156 155 -156q83 0 150 26q21 11 21 34v416q0 11 12 11z" />
    <glyph glyph-name="udieresis" unicode="&#xfc;" horiz-adv-x="547" 
d="M173 676h7q22 0 22 -23v-7q0 -22 -22 -22h-7q-22 0 -22 22v7q0 23 22 23zM365 676h5q24 0 24 -23v-7q0 -22 -24 -22h-5q-24 0 -24 22v7q0 23 24 23zM447 512h20q11 0 11 -11v-428q0 -39 -37 -55q-82 -32 -181 -32q-194 0 -194 193v322q0 11 12 11h19q12 0 12 -11v-320
q0 -156 155 -156q83 0 150 26q21 11 21 34v416q0 11 12 11z" />
    <glyph glyph-name="yacute" unicode="&#xfd;" horiz-adv-x="549" 
d="M173 609l169 106q14 10 22 -1l10 -11q8 -11 -2 -15l-178 -102q-12 -5 -16 1l-6 8q-8 10 1 14zM447 512h20q11 0 11 -11v-538q0 -216 -208 -216q-138 0 -195 113q-9 13 5 19l13 7q11 6 19 -5q48 -95 157 -95q166 0 166 175v65q-89 -33 -175 -33q-194 0 -194 193v315
q0 11 12 11h19q12 0 12 -11v-313q0 -156 155 -156q87 0 171 34v435q0 11 12 11z" />
    <glyph glyph-name="thorn" unicode="&#xfe;" horiz-adv-x="537" 
d="M71 -208v936q0 12 12 12h19q12 0 12 -12v-244q80 36 163 36q206 0 206 -199v-141q0 -195 -196 -195q-84 0 -173 43v-236q0 -12 -12 -12h-19q-12 0 -12 12zM440 181v139q0 160 -167 160q-85 0 -159 -38v-373q82 -45 171 -45q155 0 155 157z" />
    <glyph glyph-name="ydieresis" unicode="&#xff;" horiz-adv-x="549" 
d="M173 676h7q22 0 22 -23v-7q0 -22 -22 -22h-7q-22 0 -22 22v7q0 23 22 23zM365 676h5q24 0 24 -23v-7q0 -22 -24 -22h-5q-24 0 -24 22v7q0 23 24 23zM447 512h20q11 0 11 -11v-538q0 -216 -208 -216q-138 0 -195 113q-9 13 5 19l13 7q11 6 19 -5q48 -95 157 -95
q166 0 166 175v65q-89 -33 -175 -33q-194 0 -194 193v315q0 11 12 11h19q12 0 12 -11v-313q0 -156 155 -156q87 0 171 34v435q0 11 12 11z" />
    <glyph glyph-name="Amacron" unicode="&#x100;" horiz-adv-x="632" 
d="M196 839h238q11 0 11 -11v-10q0 -12 -11 -12h-238q-11 0 -11 12v10q0 11 11 11zM342 703l277 -691q5 -12 -10 -12h-18q-20 0 -22 11l-89 221h-332l-88 -221q-5 -11 -23 -11h-17q-14 0 -9 12l277 691q4 12 17 12h20q13 0 17 -12zM467 271l-142 355q-2 6 -10 43h-3
q0 -19 -8 -43l-142 -355h305z" />
    <glyph glyph-name="amacron" unicode="&#x101;" horiz-adv-x="509" 
d="M132 658h238q11 0 11 -11v-10q0 -11 -11 -11h-238q-11 0 -11 11v10q0 11 11 11zM57 421q55 106 197 106q194 0 194 -195v-263q0 -42 -36 -57q-61 -26 -159 -26q-123 0 -171 39q-42 35 -42 113q0 83 50 118q50 33 167 33q40 0 148 -11v55q0 72 -29 109q-36 46 -124 46
q-112 0 -157 -85q-6 -9 -16 -5l-16 6q-12 6 -6 17zM405 79v163q-115 11 -152 11q-93 0 -131 -26t-38 -88q0 -60 32 -86q37 -31 134 -31q80 0 132 20q23 11 23 37z" />
    <glyph glyph-name="Abreve" unicode="&#x102;" horiz-adv-x="632" 
d="M465 876q-31 -112 -150 -112t-150 112q-3 8 6 11l16 6q9 3 12 -5q26 -90 116 -90q91 0 116 90q3 8 11 5l18 -6q8 -3 5 -11zM342 703l277 -691q5 -12 -10 -12h-18q-20 0 -22 11l-89 221h-332l-88 -221q-5 -11 -23 -11h-17q-14 0 -9 12l277 691q4 12 17 12h20q13 0 17 -12z
M467 271l-142 355q-2 6 -10 43h-3q0 -19 -8 -43l-142 -355h305z" />
    <glyph glyph-name="abreve" unicode="&#x103;" horiz-adv-x="509" 
d="M401 695q-31 -112 -150 -112t-150 112q-3 8 6 11l16 6q9 3 12 -5q25 -90 116 -90q90 0 116 90q3 8 11 5l18 -6q8 -3 5 -11zM57 421q55 106 197 106q194 0 194 -195v-263q0 -42 -36 -57q-61 -26 -159 -26q-123 0 -171 39q-42 35 -42 113q0 83 50 118q50 33 167 33
q40 0 148 -11v55q0 72 -29 109q-36 46 -124 46q-112 0 -157 -85q-6 -9 -16 -5l-16 6q-12 6 -6 17zM405 79v163q-115 11 -152 11q-93 0 -131 -26t-38 -88q0 -60 32 -86q37 -31 134 -31q80 0 132 20q23 11 23 37z" />
    <glyph glyph-name="Aogonek" unicode="&#x104;" horiz-adv-x="631" 
d="M307 715h19q12 0 17 -12l276 -688q3 -10 -2 -15q-58 -47 -87 -98q-29 -53 -17 -83q11 -32 44 -32q38 0 65 28q5 5 8 -2l5 -15q2 -6 -2 -10q-35 -35 -87 -35q-56 0 -71 47q-14 42 14 96q28 56 95 109q-13 0 -16 12l-90 223h-325l-92 -229q-5 -11 -23 -11h-16q-16 0 -9 12
l277 691q4 12 17 12zM464 279l-81 208q-6 15 -35 97l-31 83h-3q-10 -22 -30 -83q-27 -78 -35 -97l-82 -208h297z" />
    <glyph glyph-name="aogonek" unicode="&#x105;" horiz-adv-x="511" 
d="M57 421q55 106 197 106q194 0 194 -195v-263q0 -31 -13 -44q-59 -51 -90 -114q-29 -59 -17 -92q10 -31 46 -31t62 27q6 5 9 -2l5 -14q2 -6 -2 -10q-36 -36 -87 -36q-57 0 -71 47q-12 37 11 95q25 60 75 106q-52 -15 -123 -15q-123 0 -171 39q-42 35 -42 113q0 83 50 118
q50 33 167 33q40 0 148 -11v55q0 72 -29 109q-36 46 -124 46q-112 0 -157 -85q-6 -9 -16 -5l-16 6q-12 6 -6 17zM405 79v163q-115 11 -152 11q-93 0 -131 -26t-38 -88q0 -60 32 -86q37 -31 134 -31q80 0 132 20q23 11 23 37z" />
    <glyph glyph-name="Cacute" unicode="&#x106;" horiz-adv-x="634" 
d="M232 788l169 107q15 8 23 -2l9 -11q9 -10 -2 -15l-178 -102q-11 -5 -16 1l-6 8q-8 10 1 14zM61 233v245q0 115 68 180q71 66 201 66q210 0 263 -174q3 -11 -9 -17l-18 -6q-12 -3 -17 8q-22 75 -72 110q-53 36 -147 36q-108 0 -167 -54q-56 -53 -56 -148v-247
q0 -96 57 -148q58 -55 166 -55q97 0 150 38q47 35 71 113q5 13 17 8l19 -7q12 -5 8 -16q-53 -179 -265 -179q-130 0 -200 66q-69 64 -69 181z" />
    <glyph glyph-name="cacute" unicode="&#x107;" horiz-adv-x="513" 
d="M166 609l170 106q14 10 22 -1l10 -11q8 -11 -2 -15l-178 -102q-12 -5 -16 1l-7 8q-7 7 1 14zM53 180v153q0 92 53 142q55 52 160 52q165 0 206 -137q5 -12 -7 -17l-17 -6q-11 -4 -16 8q-35 113 -168 113q-82 0 -126 -41q-43 -40 -43 -112v-156q0 -73 43 -113
q46 -41 126 -41q135 0 170 119q5 12 16 8l18 -6q12 -4 7 -16q-43 -144 -211 -144q-103 0 -158 52q-53 50 -53 142z" />
    <glyph glyph-name="Ccircumflex" unicode="&#x108;" horiz-adv-x="634" 
d="M329 897h6q12 0 23 -11l133 -112q10 -10 -6 -10h-19q-13 0 -20 7l-115 95l-116 -95q-7 -7 -19 -7h-18q-16 0 -6 10l133 112q11 11 24 11zM61 233v245q0 115 68 180q71 66 201 66q210 0 263 -174q3 -11 -9 -17l-18 -6q-12 -3 -17 8q-22 75 -72 110q-53 36 -147 36
q-108 0 -167 -54q-56 -53 -56 -148v-247q0 -96 57 -148q58 -55 166 -55q97 0 150 38q47 35 71 113q5 13 17 8l19 -7q12 -5 8 -16q-53 -179 -265 -179q-130 0 -200 66q-69 64 -69 181z" />
    <glyph glyph-name="ccircumflex" unicode="&#x109;" horiz-adv-x="513" 
d="M264 707h5q13 0 23 -10l130 -110q10 -10 -6 -10h-18q-13 0 -20 7l-112 93l-114 -93q-7 -7 -18 -7h-18q-16 0 -6 10l130 110q10 10 24 10zM53 180v153q0 92 53 142q55 52 160 52q165 0 206 -137q5 -12 -7 -17l-17 -6q-11 -4 -16 8q-35 113 -168 113q-82 0 -126 -41
q-43 -40 -43 -112v-156q0 -73 43 -113q46 -41 126 -41q135 0 170 119q5 12 16 8l18 -6q12 -4 7 -16q-43 -144 -211 -144q-103 0 -158 52q-53 50 -53 142z" />
    <glyph glyph-name="Cdotaccent" unicode="&#x10a;" horiz-adv-x="634" 
d="M329 849h5q23 0 23 -24v-5q0 -23 -23 -23h-5q-24 0 -24 23v5q0 24 24 24zM61 233v245q0 115 68 180q71 66 201 66q210 0 263 -174q3 -11 -9 -17l-18 -6q-12 -3 -17 8q-22 75 -72 110q-53 36 -147 36q-108 0 -167 -54q-56 -53 -56 -148v-247q0 -96 57 -148q58 -55 166 -55
q97 0 150 38q47 35 71 113q5 13 17 8l19 -7q12 -5 8 -16q-53 -179 -265 -179q-130 0 -200 66q-69 64 -69 181z" />
    <glyph glyph-name="cdotaccent" unicode="&#x10b;" horiz-adv-x="513" 
d="M264 669h4q24 0 24 -24v-4q0 -24 -24 -24h-4q-24 0 -24 24v4q0 24 24 24zM53 180v153q0 92 53 142q55 52 160 52q165 0 206 -137q5 -12 -7 -17l-17 -6q-11 -4 -16 8q-35 113 -168 113q-82 0 -126 -41q-43 -40 -43 -112v-156q0 -73 43 -113q46 -41 126 -41q135 0 170 119
q5 12 16 8l18 -6q12 -4 7 -16q-43 -144 -211 -144q-103 0 -158 52q-53 50 -53 142z" />
    <glyph glyph-name="Ccaron" unicode="&#x10c;" horiz-adv-x="634" 
d="M465 898h19q16 0 5 -11l-132 -111q-12 -12 -23 -12h-6q-12 0 -24 12l-133 111q-11 11 6 11h18q12 0 19 -7l116 -95l115 95q7 7 20 7zM61 233v245q0 115 68 180q71 66 201 66q210 0 263 -174q3 -11 -9 -17l-18 -6q-12 -3 -17 8q-22 75 -72 110q-53 36 -147 36
q-108 0 -167 -54q-56 -53 -56 -148v-247q0 -96 57 -148q58 -55 166 -55q97 0 150 38q47 35 71 113q5 13 17 8l19 -7q12 -5 8 -16q-53 -179 -265 -179q-130 0 -200 66q-69 64 -69 181z" />
    <glyph glyph-name="ccaron" unicode="&#x10d;" horiz-adv-x="513" 
d="M389 697h16q16 0 6 -10l-121 -103q-11 -11 -22 -11h-5q-11 0 -22 11l-122 103q-10 10 4 10h18q11 0 18 -7l106 -88l105 88q7 7 19 7zM53 180v153q0 92 53 142q55 52 160 52q165 0 206 -137q5 -12 -7 -17l-17 -6q-11 -4 -16 8q-35 113 -168 113q-82 0 -126 -41
q-43 -40 -43 -112v-156q0 -73 43 -113q46 -41 126 -41q135 0 170 119q5 12 16 8l18 -6q12 -4 7 -16q-43 -144 -211 -144q-103 0 -158 52q-53 50 -53 142z" />
    <glyph glyph-name="Dcaron" unicode="&#x10e;" horiz-adv-x="646" 
d="M442 898h19q16 0 5 -11l-132 -111q-12 -12 -23 -12h-6q-12 0 -24 12l-132 111q-4 3 -3 7q0 4 8 4h18q12 0 19 -7l116 -95l115 95q7 7 20 7zM95 710h204q138 0 215 -71q75 -71 75 -193v-182q0 -122 -75 -193q-77 -71 -215 -71h-204q-13 0 -13 13v684q0 13 13 13zM543 264
v182q0 104 -63 163q-62 58 -180 58h-172v-624h172q116 0 180 58q63 58 63 163z" />
    <glyph glyph-name="dcaron" unicode="&#x10f;" horiz-adv-x="559" 
d="M54 185v146q0 196 192 196q87 0 177 -36v237q0 12 12 12h19q12 0 12 -12v-658q0 -39 -40 -55q-73 -29 -165 -29q-207 0 -207 199zM634 728l-53 -208q-3 -11 -13 -11h-11q-11 0 -9 9l45 210q1 12 13 12h17q14 0 11 -12zM423 82v367q-81 38 -171 38q-156 0 -156 -157v-144
q0 -161 168 -161q71 0 135 23q24 10 24 34z" />
    <glyph glyph-name="Dcroat" unicode="&#x110;" horiz-adv-x="655" 
d="M104 710h205q138 0 215 -71q75 -71 75 -193v-182q0 -122 -75 -193q-77 -71 -215 -71h-205q-13 0 -13 13v328h-80q-10 0 -10 10v13q0 10 10 10h80v323q0 13 13 13zM553 264v182q0 104 -63 163q-64 58 -181 58h-171v-293h191q10 0 10 -10v-13q0 -10 -10 -10h-191v-298h171
q117 0 181 58q63 58 63 163z" />
    <glyph glyph-name="dslash" unicode="&#x111;" horiz-adv-x="536" 
d="M467 647h74q10 0 10 -10v-9q0 -10 -10 -10h-74v-548q0 -38 -39 -55q-75 -29 -165 -29q-208 0 -208 199v146q0 195 192 195q92 0 177 -35v127h-168q-9 0 -9 10v9q0 10 9 10h168v81q0 12 12 12h20q11 0 11 -12v-81zM424 82v367q-81 38 -170 38q-156 0 -156 -157v-144
q0 -161 168 -161q71 0 134 23q24 10 24 34z" />
    <glyph glyph-name="Emacron" unicode="&#x112;" horiz-adv-x="570" 
d="M181 839h237q11 0 11 -11v-10q0 -12 -11 -12h-237q-11 0 -11 12v10q0 11 11 11zM95 710h408q13 0 13 -13v-18q0 -12 -13 -12h-375v-286h332q12 0 12 -12v-18q0 -13 -12 -13h-332v-295h389q13 0 13 -12v-18q0 -13 -13 -13h-422q-13 0 -13 13v684q0 13 13 13z" />
    <glyph glyph-name="emacron" unicode="&#x113;" horiz-adv-x="527" 
d="M158 653h218q10 0 10 -10v-11q0 -10 -10 -10h-218q-10 0 -10 10v11q0 10 10 10zM51 183v135q0 98 55 153q56 56 161 56q107 0 162 -57q54 -56 54 -150v-51q0 -22 -23 -22h-366v-68q0 -156 167 -156q123 0 177 98q8 11 18 5l14 -8q12 -6 4 -18q-62 -114 -213 -114
q-103 0 -159 54q-51 51 -51 143zM440 282v40q0 79 -43 122q-45 45 -130 45t-130 -45q-43 -43 -43 -122v-40h346z" />
    <glyph glyph-name="Ebreve" unicode="&#x114;" horiz-adv-x="570" 
d="M450 876q-31 -112 -151 -112q-118 0 -149 112q-3 8 5 11l16 6q8 3 13 -5q22 -90 115 -90t116 90q4 6 11 5l18 -6q9 -3 6 -11zM95 710h408q13 0 13 -13v-18q0 -12 -13 -12h-375v-286h332q12 0 12 -12v-18q0 -13 -12 -13h-332v-295h389q13 0 13 -12v-18q0 -13 -13 -13h-422
q-13 0 -13 13v684q0 13 13 13z" />
    <glyph glyph-name="ebreve" unicode="&#x115;" horiz-adv-x="527" 
d="M417 695q-31 -111 -150 -111t-150 111q-3 9 6 12l16 6q9 3 12 -5q25 -90 116 -90t116 90q3 8 11 5l18 -6q7 -4 5 -12zM51 183v135q0 98 55 153q56 56 161 56q107 0 162 -57q54 -56 54 -150v-51q0 -22 -23 -22h-366v-68q0 -156 167 -156q123 0 177 98q8 11 18 5l14 -8
q12 -6 4 -18q-62 -114 -213 -114q-103 0 -159 54q-51 51 -51 143zM440 282v40q0 79 -43 122q-45 45 -130 45t-130 -45q-43 -43 -43 -122v-40h346z" />
    <glyph glyph-name="Edotaccent" unicode="&#x116;" horiz-adv-x="570" 
d="M297 849h5q23 0 23 -24v-5q0 -23 -23 -23h-5q-24 0 -24 23v5q0 24 24 24zM95 710h408q13 0 13 -13v-18q0 -12 -13 -12h-375v-286h332q12 0 12 -12v-18q0 -13 -12 -13h-332v-295h389q13 0 13 -12v-18q0 -13 -13 -13h-422q-13 0 -13 13v684q0 13 13 13z" />
    <glyph glyph-name="edotaccent" unicode="&#x117;" horiz-adv-x="527" 
d="M265 670h4q24 0 24 -24v-5q0 -24 -24 -24h-4q-24 0 -24 24v5q0 24 24 24zM51 183v135q0 98 55 153q56 56 161 56q107 0 162 -57q54 -56 54 -150v-51q0 -22 -23 -22h-366v-68q0 -156 167 -156q123 0 177 98q8 11 18 5l14 -8q12 -6 4 -18q-62 -114 -213 -114
q-103 0 -159 54q-51 51 -51 143zM440 282v40q0 79 -43 122q-45 45 -130 45t-130 -45q-43 -43 -43 -122v-40h346z" />
    <glyph glyph-name="Eogonek" unicode="&#x118;" horiz-adv-x="570" 
d="M95 710h408q13 0 13 -13v-18q0 -12 -13 -12h-375v-286h332q12 0 12 -13v-18q0 -12 -12 -12h-332v-295h389q13 0 13 -12v-18q0 -6 -4 -11q-141 -111 -114 -183q11 -30 46 -30t61 27q6 5 9 -2l5 -14q3 -6 -2 -11q-37 -36 -87 -36q-55 0 -70 48q-13 40 15 94q30 55 97 105
h-391q-13 0 -13 13v684q0 13 13 13z" />
    <glyph glyph-name="eogonek" unicode="&#x119;" horiz-adv-x="527" 
d="M51 183v135q0 98 55 153q56 56 161 56q107 0 162 -57q54 -56 54 -150v-51q0 -22 -23 -22h-366v-68q0 -156 167 -156q123 0 177 98q8 11 18 5l14 -8q12 -6 4 -18q-19 -36 -45 -59q-56 -58 -88 -126q-30 -65 -18 -96q12 -32 46 -32q35 0 63 28q7 4 8 -2l6 -14q2 -6 -2 -10
q-36 -36 -87 -36q-57 0 -71 47q-28 79 82 206q-46 -20 -107 -20q-103 0 -159 54q-51 51 -51 143zM440 282v40q0 79 -43 122q-45 45 -130 45t-130 -45q-43 -43 -43 -122v-40h346z" />
    <glyph glyph-name="Ecaron" unicode="&#x11a;" horiz-adv-x="570" 
d="M433 898h19q16 0 5 -11l-132 -111q-12 -12 -23 -12h-6q-12 0 -24 12l-132 111q-4 3 -3 7q0 4 8 4h18q12 0 19 -7l116 -95l115 95q7 7 20 7zM95 710h408q13 0 13 -13v-18q0 -12 -13 -12h-375v-286h332q12 0 12 -12v-18q0 -13 -12 -13h-332v-295h389q13 0 13 -12v-18
q0 -13 -13 -13h-422q-13 0 -13 13v684q0 13 13 13z" />
    <glyph glyph-name="ecaron" unicode="&#x11b;" horiz-adv-x="527" 
d="M390 697h16q15 0 6 -9l-121 -104q-10 -10 -22 -10h-5q-12 0 -22 10l-122 104q-9 9 4 9h18q10 0 18 -6l106 -88l105 88q8 6 19 6zM51 183v135q0 98 55 153q56 56 161 56q107 0 162 -57q54 -56 54 -150v-51q0 -22 -23 -22h-366v-68q0 -156 167 -156q123 0 177 98q8 11 18 5
l14 -8q12 -6 4 -18q-62 -114 -213 -114q-103 0 -159 54q-51 51 -51 143zM440 282v40q0 79 -43 122q-45 45 -130 45t-130 -45q-43 -43 -43 -122v-40h346z" />
    <glyph glyph-name="Gcircumflex" unicode="&#x11c;" horiz-adv-x="651" 
d="M328 907h5q11 0 24 -11l132 -112q10 -10 -6 -10h-18q-14 0 -21 7l-114 95l-116 -95q-7 -7 -19 -7h-18q-17 0 -7 10l134 112q11 11 24 11zM340 358h246q13 0 13 -14v-117q0 -111 -69 -175q-70 -66 -199 -66q-131 0 -201 67q-69 65 -69 181v244q0 115 68 180q71 66 201 66
q210 0 263 -174q3 -11 -9 -17l-18 -6q-12 -4 -17 8q-22 75 -72 110q-53 36 -147 36q-110 0 -167 -54q-56 -53 -56 -148v-245q0 -98 57 -150q58 -55 167 -55q107 0 166 54q57 53 57 144v87h-214q-13 0 -13 13v18q0 13 13 13z" />
    <glyph glyph-name="gcircumflex" unicode="&#x11d;" horiz-adv-x="534" 
d="M271 707h6q12 0 23 -10l129 -110q10 -10 -6 -10h-18q-13 0 -20 7l-112 93l-113 -93q-7 -7 -19 -7h-18q-13 0 -6 10l131 110q10 10 23 10zM53 185v140q0 202 210 202q92 0 164 -29q39 -17 39 -55v-480q0 -216 -207 -216q-137 0 -194 113q-7 13 5 19l14 7q10 6 18 -5
q48 -95 156 -95q165 0 165 175v68q-85 -36 -178 -36q-192 0 -192 192zM398 464q-63 23 -132 23q-170 0 -170 -163v-138q0 -154 154 -154q86 0 173 37v362q0 23 -25 33z" />
    <glyph glyph-name="Gbreve" unicode="&#x11e;" horiz-adv-x="651" 
d="M480 886q-31 -112 -150 -112t-150 112q-3 8 6 11l16 6q9 3 12 -5q26 -90 116 -90t116 90q3 8 11 5l18 -6q8 -3 5 -11zM340 358h246q13 0 13 -14v-117q0 -111 -69 -175q-70 -66 -199 -66q-131 0 -201 67q-69 65 -69 181v244q0 115 68 180q71 66 201 66q210 0 263 -174
q3 -11 -9 -17l-18 -6q-12 -4 -17 8q-22 75 -72 110q-53 36 -147 36q-110 0 -167 -54q-56 -53 -56 -148v-245q0 -98 57 -150q58 -55 167 -55q107 0 166 54q57 53 57 144v87h-214q-13 0 -13 13v18q0 13 13 13z" />
    <glyph glyph-name="gbreve" unicode="&#x11f;" horiz-adv-x="534" 
d="M424 695q-31 -112 -151 -112q-118 0 -149 112q-3 8 5 11l16 6q8 3 13 -5q22 -90 115 -90t116 90q4 6 11 5l18 -6q9 -3 6 -11zM53 185v140q0 202 210 202q92 0 164 -29q39 -17 39 -55v-480q0 -216 -207 -216q-137 0 -194 113q-7 13 5 19l14 7q10 6 18 -5q48 -95 156 -95
q165 0 165 175v68q-85 -36 -178 -36q-192 0 -192 192zM398 464q-63 23 -132 23q-170 0 -170 -163v-138q0 -154 154 -154q86 0 173 37v362q0 23 -25 33z" />
    <glyph glyph-name="Gdotaccent" unicode="&#x120;" horiz-adv-x="651" 
d="M328 859h4q24 0 24 -24v-5q0 -23 -24 -23h-4q-24 0 -24 23v5q0 24 24 24zM340 358h246q13 0 13 -14v-117q0 -111 -69 -175q-70 -66 -199 -66q-131 0 -201 67q-69 65 -69 181v244q0 115 68 180q71 66 201 66q210 0 263 -174q3 -11 -9 -17l-18 -6q-12 -4 -17 8
q-22 75 -72 110q-53 36 -147 36q-110 0 -167 -54q-56 -53 -56 -148v-245q0 -98 57 -150q58 -55 167 -55q107 0 166 54q57 53 57 144v87h-214q-13 0 -13 13v18q0 13 13 13z" />
    <glyph glyph-name="gdotaccent" unicode="&#x121;" horiz-adv-x="534" 
d="M271 669h5q23 0 23 -24v-4q0 -24 -23 -24h-5q-24 0 -24 24v4q0 24 24 24zM53 185v140q0 202 210 202q92 0 164 -29q39 -17 39 -55v-480q0 -216 -207 -216q-137 0 -194 113q-7 13 5 19l14 7q10 6 18 -5q48 -95 156 -95q165 0 165 175v68q-85 -36 -178 -36q-192 0 -192 192
zM398 464q-63 23 -132 23q-170 0 -170 -163v-138q0 -154 154 -154q86 0 173 37v362q0 23 -25 33z" />
    <glyph glyph-name="uni0122" unicode="&#x122;" horiz-adv-x="651" 
d="M340 358h246q13 0 13 -14v-117q0 -111 -69 -175q-70 -66 -199 -66q-131 0 -201 67q-69 65 -69 181v244q0 115 68 180q71 66 201 66q210 0 263 -174q3 -11 -9 -17l-18 -6q-12 -4 -17 8q-22 75 -72 110q-53 36 -147 36q-110 0 -167 -54q-56 -53 -56 -148v-245
q0 -98 57 -150q58 -55 167 -55q107 0 166 54q57 53 57 144v87h-214q-13 0 -13 13v18q0 13 13 13zM373 -91l-48 -143q-5 -11 -14 -11h-14q-9 0 -8 9l39 146q2 12 15 12h19q15 0 11 -13z" />
    <glyph glyph-name="uni0123" unicode="&#x123;" horiz-adv-x="534" 
d="M237 589l53 132q4 12 15 12h11q12 0 9 -10l-46 -134q-4 -13 -16 -13h-16q-16 0 -10 13zM53 185v140q0 202 210 202q92 0 164 -29q39 -17 39 -55v-480q0 -216 -207 -216q-137 0 -194 113q-7 13 5 19l14 7q10 6 18 -5q48 -95 156 -95q165 0 165 175v68q-85 -36 -178 -36
q-192 0 -192 192zM398 464q-63 23 -132 23q-170 0 -170 -163v-138q0 -154 154 -154q86 0 173 37v362q0 23 -25 33z" />
    <glyph glyph-name="Hcircumflex" unicode="&#x124;" horiz-adv-x="679" 
d="M337 897h6q12 0 23 -11l133 -112q10 -10 -6 -10h-19q-13 0 -20 7l-115 95l-116 -95q-7 -7 -19 -7h-18q-16 0 -6 10l133 112q11 11 24 11zM563 710h21q13 0 13 -13v-684q0 -13 -13 -13h-21q-12 0 -12 13v325h-423v-325q0 -13 -12 -13h-21q-13 0 -13 13v684q0 13 13 13h21
q12 0 12 -13v-316h423v316q0 13 12 13z" />
    <glyph glyph-name="hcircumflex" unicode="&#x125;" horiz-adv-x="549" 
d="M90 917h5q12 0 23 -11l127 -108q9 -9 -6 -9h-17q-12 0 -20 6l-110 92l-111 -92q-8 -6 -19 -6h-17q-15 0 -6 9l128 108q11 11 23 11zM82 740h20q12 0 12 -12v-236q78 35 175 35q194 0 194 -193v-322q0 -12 -11 -12h-20q-12 0 -12 12v320q0 155 -155 155q-97 0 -171 -36
v-439q0 -12 -12 -12h-20q-11 0 -11 12v716q0 12 11 12z" />
    <glyph glyph-name="Hbar" unicode="&#x126;" horiz-adv-x="685" 
d="M600 584h68q9 0 9 -10v-10q0 -11 -9 -11h-68v-540q0 -13 -13 -13h-21q-12 0 -12 13v325h-423v-325q0 -13 -12 -13h-21q-13 0 -13 13v540h-67q-9 0 -9 11v10q0 10 9 10h67v113q0 13 13 13h21q12 0 12 -13v-113h423v113q0 13 12 13h21q13 0 13 -13v-113zM131 553v-172h423
v172h-423z" />
    <glyph glyph-name="hbar" unicode="&#x127;" horiz-adv-x="549" 
d="M113 623v-131q78 35 176 35q194 0 194 -193v-322q0 -12 -12 -12h-20q-11 0 -11 12v320q0 155 -156 155q-96 0 -171 -36v-439q0 -12 -11 -12h-20q-12 0 -12 12v611h-61q-10 0 -10 11v8q0 10 10 10h61v76q0 12 12 12h20q11 0 11 -12v-76h168q9 0 9 -10v-8q0 -11 -9 -11
h-168z" />
    <glyph glyph-name="Itilde" unicode="&#x128;" horiz-adv-x="210" 
d="M236 875h13q8 0 8 -8q0 -94 -74 -94q-37 0 -82 36q-47 36 -74 36q-48 0 -48 -64q0 -8 -8 -8h-14q-8 0 -8 8q0 94 75 94q38 0 84 -36q45 -36 72 -36q48 0 48 64q0 8 8 8zM82 13v684q0 13 13 13h21q12 0 12 -13v-684q0 -13 -12 -13h-21q-13 0 -13 13z" />
    <glyph glyph-name="itilde" unicode="&#x129;" horiz-adv-x="183" 
d="M185 703h11q7 0 7 -8q0 -92 -56 -92q-30 0 -57 34q-28 34 -50 34q-38 0 -38 -60q0 -8 -7 -8h-11q-7 0 -7 8q0 92 59 92q30 0 59 -35q27 -35 49 -35q34 0 34 62q0 8 7 8zM82 512h19q12 0 12 -11v-489q0 -12 -12 -12h-19q-12 0 -12 12v489q0 11 12 11z" />
    <glyph glyph-name="Imacron" unicode="&#x12a;" horiz-adv-x="210" 
d="M-14 839h238q11 0 11 -11v-10q0 -12 -11 -12h-238q-11 0 -11 12v10q0 11 11 11zM82 13v684q0 13 13 13h21q12 0 12 -13v-684q0 -13 -12 -13h-21q-13 0 -13 13z" />
    <glyph glyph-name="imacron" unicode="&#x12b;" horiz-adv-x="183" 
d="M18 660h148q6 0 6 -10v-11q0 -11 -6 -11h-148q-7 0 -7 11v11q0 10 7 10zM82 512h19q12 0 12 -11v-489q0 -12 -12 -12h-19q-12 0 -12 12v489q0 11 12 11z" />
    <glyph glyph-name="Ibreve" unicode="&#x12c;" horiz-adv-x="210" 
d="M255 876q-31 -112 -150 -112t-150 112q-3 8 6 11l16 6q9 3 12 -5q25 -90 116 -90t116 90q3 8 11 5l18 -6q8 -3 5 -11zM82 13v684q0 13 13 13h21q12 0 12 -13v-684q0 -13 -12 -13h-21q-13 0 -13 13z" />
    <glyph glyph-name="ibreve" unicode="&#x12d;" horiz-adv-x="183" 
d="M192 710l17 -5q7 -5 6 -12q-23 -107 -124 -107q-102 0 -122 107q-3 9 5 12l15 5q12 2 13 -5q13 -85 89 -85q77 0 90 85q1 7 11 5zM82 512h19q12 0 12 -11v-489q0 -12 -12 -12h-19q-12 0 -12 12v489q0 11 12 11z" />
    <glyph glyph-name="Iogonek" unicode="&#x12e;" horiz-adv-x="210" 
d="M181 -187l6 -14q2 -6 -2 -10q-36 -36 -87 -36q-57 0 -71 47q-27 73 65 201q-11 0 -11 12v684q0 13 13 13h21q12 0 12 -13v-684q0 -8 -3 -11q-84 -119 -59 -183q10 -31 45 -31q36 0 63 27q7 4 8 -2z" />
    <glyph glyph-name="iogonek" unicode="&#x12f;" horiz-adv-x="184" 
d="M95 634h-5q-26 0 -26 26v6q0 25 26 25h5q25 0 25 -25v-6q0 -26 -25 -26zM153 -187l6 -11q5 -4 -1 -10q-24 -38 -69 -38q-62 0 -68 58q-8 96 58 190q-8 0 -8 10v489q0 11 11 11h20q12 0 12 -11v-489q0 -8 -3 -9q-59 -102 -52 -178q3 -38 40 -38q27 0 45 27q3 5 9 -1z" />
    <glyph glyph-name="Idotaccent" unicode="&#x130;" horiz-adv-x="210" 
d="M103 849h4q24 0 24 -24v-5q0 -23 -24 -23h-4q-24 0 -24 23v5q0 24 24 24zM82 13v684q0 13 13 13h21q12 0 12 -13v-684q0 -13 -12 -13h-21q-13 0 -13 13z" />
    <glyph glyph-name="dotlessi" unicode="&#x131;" horiz-adv-x="184" 
d="M82 512h20q12 0 12 -11v-489q0 -12 -12 -12h-20q-11 0 -11 12v489q0 11 11 11z" />
    <glyph glyph-name="IJ" unicode="&#x132;" horiz-adv-x="780" 
d="M82 13v684q0 13 13 13h21q12 0 12 -13v-684q0 -13 -12 -13h-21q-13 0 -13 13zM669 710h22q12 0 12 -12v-481q0 -108 -61 -169q-62 -63 -175 -63q-194 0 -232 197q-4 12 8 17l20 7q11 4 16 -8q31 -169 188 -169q92 0 142 50q48 49 48 138v481q0 12 12 12z" />
    <glyph glyph-name="ij" unicode="&#x133;" horiz-adv-x="429" 
d="M90 691h5q25 0 25 -25v-6q0 -26 -25 -26h-5q-26 0 -26 26v6q0 25 26 25zM334 691h5q26 0 26 -25v-6q0 -26 -26 -26h-5q-25 0 -25 26v6q0 25 25 25zM82 512h20q12 0 12 -11v-489q0 -12 -12 -12h-20q-11 0 -11 12v489q0 11 11 11zM327 512h19q12 0 12 -11v-510
q0 -111 -43 -163q-46 -58 -154 -58q-12 0 -12 12v17q0 11 12 11q87 0 122 47q32 43 32 134v510q0 11 12 11z" />
    <glyph glyph-name="Jcircumflex" unicode="&#x134;" horiz-adv-x="567" 
d="M463 897h6q11 0 24 -11l132 -112q10 -10 -6 -10h-18q-14 0 -21 7l-114 95l-116 -95q-7 -7 -20 -7h-18q-16 0 -6 10l133 112q13 11 24 11zM455 710h22q12 0 12 -12v-481q0 -108 -61 -169q-62 -63 -175 -63q-194 0 -232 197q-4 12 8 17l20 7q11 4 16 -8q31 -169 188 -169
q92 0 142 50q48 49 48 138v481q0 12 12 12z" />
    <glyph glyph-name="jcircumflex" unicode="&#x135;" horiz-adv-x="184" 
d="M89 708h6q12 0 23 -11l106 -110q7 -10 -6 -10h-17q-14 0 -20 7l-89 94l-91 -94q-6 -7 -19 -7h-18q-12 0 -5 10l107 110q11 11 23 11zM83 512h19q12 0 12 -11v-510q0 -111 -43 -163q-46 -58 -154 -58q-12 0 -12 12v17q0 11 12 11q86 0 122 47q32 43 32 134v510q0 11 12 11
z" />
    <glyph glyph-name="uni0136" unicode="&#x136;" horiz-adv-x="600" 
d="M453 262l126 -249q7 -13 -7 -13h-20q-19 0 -25 11l-117 233q-47 95 -155 95h-127v-326q0 -13 -12 -13h-21q-13 0 -13 13v684q0 13 13 13h21q12 0 12 -13v-316h124q20 0 25 -1l236 319q9 11 26 11h23q15 0 6 -13l-243 -325q82 -20 128 -110zM353 -91l-48 -143
q-2 -11 -14 -11h-14q-9 0 -8 9l39 146q2 12 15 12h19q15 0 11 -13z" />
    <glyph glyph-name="uni0137" unicode="&#x137;" horiz-adv-x="499" 
d="M383 196l92 -183q6 -13 -7 -13h-20q-15 0 -19 10l-83 168q-32 66 -106 66h-126v-232q0 -12 -12 -12h-19q-12 0 -12 12v716q0 12 12 12h19q12 0 12 -12v-445h131l174 220q6 9 23 9h17q18 0 8 -13l-178 -223q61 -12 94 -80zM296 -67l-42 -149q-3 -12 -15 -12h-12
q-10 0 -9 10l35 151q1 13 15 13h17q15 0 11 -13z" />
    <glyph glyph-name="kgreenlandic" unicode="&#x138;" horiz-adv-x="459" 
d="M240 294l199 -279q11 -15 -7 -15h-19q-17 0 -24 10l-178 251l-97 -103v-146q0 -12 -12 -12h-19q-12 0 -12 12v489q0 11 12 11h19q12 0 12 -11v-283l267 285q7 9 25 9h17q20 0 7 -13z" />
    <glyph glyph-name="Lacute" unicode="&#x139;" horiz-adv-x="518" 
d="M5 788l169 107q15 8 23 -2l9 -11q10 -10 -2 -15l-177 -102q-11 -5 -16 1l-7 8q-7 7 1 14zM94 710h21q12 0 12 -13v-654h364q12 0 12 -12v-18q0 -13 -12 -13h-397q-13 0 -13 13v684q0 13 13 13z" />
    <glyph glyph-name="lacute" unicode="&#x13a;" horiz-adv-x="192" 
d="M10 800l138 82q12 6 20 -3l11 -13q7 -10 -3 -14l-146 -76q-9 -4 -16 1l-7 9q-4 10 3 14zM116 728v-716q0 -12 -11 -12h-20q-12 0 -12 12v716q0 12 12 12h20q11 0 11 -12z" />
    <glyph glyph-name="uni013B" unicode="&#x13b;" horiz-adv-x="518" 
d="M95 710h21q12 0 12 -13v-654h364q12 0 12 -12v-18q0 -13 -12 -13h-397q-13 0 -13 13v684q0 13 13 13zM319 -91l-48 -143q-2 -11 -14 -11h-13q-10 0 -9 9l40 146q1 12 14 12h19q15 0 11 -13z" />
    <glyph glyph-name="uni013C" unicode="&#x13c;" horiz-adv-x="192" 
d="M116 728v-716q0 -12 -11 -12h-20q-11 0 -11 12v716q0 12 11 12h20q11 0 11 -12zM119 -52l-41 -156q-4 -12 -15 -12h-11q-10 0 -9 10l35 158q1 13 15 13h16q16 0 10 -13z" />
    <glyph glyph-name="Lcaron" unicode="&#x13d;" horiz-adv-x="518" 
d="M95 710h21q12 0 12 -13v-654h364q12 0 12 -12v-18q0 -13 -12 -13h-397q-13 0 -13 13v684q0 13 13 13zM409 697l-50 -197q-3 -12 -14 -12h-11q-9 0 -8 10l40 200q2 12 14 12h18q15 0 11 -13z" />
    <glyph glyph-name="lcaron" unicode="&#x13e;" horiz-adv-x="198" 
d="M117 728v-716q0 -12 -11 -12h-20q-11 0 -11 12v716q0 12 11 12h20q11 0 11 -12zM286 727l-43 -178q-5 -11 -14 -11h-11q-9 0 -8 10l33 180q1 12 15 12h18q16 0 10 -13z" />
    <glyph glyph-name="Ldot" unicode="&#x13f;" horiz-adv-x="518" 
d="M95 710h21q12 0 12 -13v-654h364q12 0 12 -12v-18q0 -13 -12 -13h-397q-13 0 -13 13v684q0 13 13 13zM336 383h5q27 0 27 -27v-5q0 -28 -27 -28h-5q-28 0 -28 28v5q0 27 28 27z" />
    <glyph glyph-name="ldot" unicode="&#x140;" horiz-adv-x="298" 
d="M117 728v-716q0 -12 -11 -12h-20q-11 0 -11 12v716q0 12 11 12h20q11 0 11 -12zM243 404h5q28 0 28 -27v-6q0 -27 -28 -27h-5q-27 0 -27 27v6q0 27 27 27z" />
    <glyph glyph-name="Lslash" unicode="&#x141;" horiz-adv-x="544" 
d="M154 43h364q12 0 12 -12v-18q0 -13 -12 -13h-398q-12 0 -12 13v285l-90 -44q-10 -4 -13 5l-7 14q-6 9 3 13l107 52v359q0 13 12 13h21q13 0 13 -13v-338l235 114q11 5 15 -4l7 -14q4 -8 -5 -13l-252 -122v-277z" />
    <glyph glyph-name="lslash" unicode="&#x142;" horiz-adv-x="261" 
d="M242 448l8 -12q4 -7 -5 -12l-97 -58v-354q0 -12 -11 -12h-20q-12 0 -12 12v330l-75 -45q-9 -4 -13 3l-8 13q-5 8 4 13l92 54v348q0 12 12 12h20q11 0 11 -12v-324l80 47q8 5 14 -3z" />
    <glyph glyph-name="Nacute" unicode="&#x143;" horiz-adv-x="688" 
d="M245 788l169 107q15 8 23 -2l9 -11q10 -10 -2 -15l-177 -102q-11 -5 -16 1l-7 8q-7 7 1 14zM574 710h20q12 0 12 -13v-684q0 -13 -12 -13h-21q-9 0 -14 8l-355 506q-18 26 -45 72q-24 43 -36 58h-2q0 -16 3 -73t3 -92v-466q0 -13 -12 -13h-20q-13 0 -13 13v684
q0 13 13 13h20q10 0 14 -7l345 -493q23 -33 51 -79l41 -64h2q0 19 -3 81q-4 55 -4 99v451q0 12 13 12z" />
    <glyph glyph-name="nacute" unicode="&#x144;" horiz-adv-x="547" 
d="M172 609l169 107q14 8 23 -1l9 -11q9 -10 -2 -15l-177 -103q-11 -5 -16 2l-7 8q-8 8 1 13zM106 494q84 33 181 33q194 0 194 -193v-322q0 -12 -12 -12h-20q-11 0 -11 12v320q0 155 -156 155q-80 0 -150 -26q-21 -11 -21 -33v-416q0 -12 -11 -12h-20q-12 0 -12 12v427
q0 38 38 55z" />
    <glyph glyph-name="uni0145" unicode="&#x145;" horiz-adv-x="688" 
d="M574 710h20q12 0 12 -13v-684q0 -13 -12 -13h-21q-9 0 -14 8l-355 506q-18 26 -45 72q-24 43 -36 58h-2q0 -16 3 -73t3 -92v-466q0 -13 -12 -13h-20q-13 0 -13 13v684q0 13 13 13h20q10 0 14 -7l345 -493q23 -33 51 -79l41 -64h2q0 19 -3 81q-4 55 -4 99v451q0 12 13 12z
M372 -91l-47 -143q-5 -11 -14 -11h-14q-9 0 -8 9l39 146q2 12 15 12h18q15 0 11 -13z" />
    <glyph glyph-name="uni0146" unicode="&#x146;" horiz-adv-x="547" 
d="M106 494q84 33 181 33q194 0 194 -193v-322q0 -12 -12 -12h-20q-11 0 -11 12v320q0 155 -156 155q-80 0 -150 -26q-21 -11 -21 -33v-416q0 -12 -11 -12h-20q-12 0 -12 12v427q0 38 38 55zM304 -52l-41 -153q-5 -12 -15 -12h-12q-10 0 -9 10l35 155q1 13 15 13h17
q14 0 10 -13z" />
    <glyph glyph-name="Ncaron" unicode="&#x147;" horiz-adv-x="688" 
d="M479 898h18q15 0 6 -11l-132 -111q-13 -12 -24 -12h-6q-11 0 -23 12l-133 111q-4 3 -3 7q0 4 8 4h19q12 0 19 -7l116 -95l114 95q7 7 21 7zM574 710h20q12 0 12 -13v-684q0 -13 -12 -13h-21q-9 0 -14 8l-355 506q-18 26 -45 72q-24 43 -36 58h-2q0 -16 3 -73t3 -92v-466
q0 -13 -12 -13h-20q-13 0 -13 13v684q0 13 13 13h20q10 0 14 -7l345 -493q23 -33 51 -79l41 -64h2q0 19 -3 81q-4 55 -4 99v451q0 12 13 12z" />
    <glyph glyph-name="ncaron" unicode="&#x148;" horiz-adv-x="547" 
d="M394 697h17q15 0 5 -9l-121 -104q-10 -10 -21 -10h-5q-12 0 -22 10l-123 104q-8 9 5 9h18q9 0 17 -6l107 -88l105 88q6 6 18 6zM106 494q84 33 181 33q194 0 194 -193v-322q0 -12 -12 -12h-20q-11 0 -11 12v320q0 155 -156 155q-80 0 -150 -26q-21 -11 -21 -33v-416
q0 -12 -11 -12h-20q-12 0 -12 12v427q0 38 38 55z" />
    <glyph glyph-name="napostrophe" unicode="&#x149;" horiz-adv-x="547" 
d="M167 727l-90 -179q-5 -9 -15 -9h-11q-10 0 -6 10l80 180q5 11 14 11h20q15 0 8 -13zM105 494q84 33 181 33q194 0 194 -193v-322q0 -12 -12 -12h-20q-11 0 -11 12v320q0 155 -156 155q-80 0 -150 -26q-21 -11 -21 -33v-416q0 -12 -11 -12h-20q-12 0 -12 12v427
q0 38 38 55z" />
    <glyph glyph-name="Eng" unicode="&#x14a;" horiz-adv-x="688" 
d="M574 710h20q12 0 12 -13v-710q0 -103 -57 -159q-58 -58 -165 -58q-11 0 -11 12v17q0 11 11 11q86 0 132 48q45 46 45 131v16l-357 509q-18 26 -45 72q-24 43 -36 58h-2q0 -13 3 -64t3 -83v-484q0 -13 -12 -13h-20q-13 0 -13 13v684q0 13 13 13h20q10 0 14 -7l345 -493
q23 -33 51 -79l41 -64h2q0 19 -3 81q-4 55 -4 99v451q0 12 13 12z" />
    <glyph glyph-name="eng" unicode="&#x14b;" horiz-adv-x="547" 
d="M106 494q84 33 181 33q194 0 194 -193v-349q0 -101 -57 -158t-162 -57q-11 0 -11 11v17q0 11 11 11q84 0 131 47q45 46 45 130v346q0 155 -156 155q-80 0 -150 -26q-21 -11 -21 -33v-416q0 -12 -11 -12h-20q-12 0 -12 12v427q0 38 38 55z" />
    <glyph glyph-name="Omacron" unicode="&#x14c;" 
d="M212 849h237q12 0 12 -11v-10q0 -12 -12 -12h-237q-11 0 -11 12v10q0 11 11 11zM61 233v244q0 117 69 181q70 66 201 66q129 0 199 -66q69 -64 69 -181v-244q0 -117 -69 -181q-70 -66 -199 -66q-131 0 -201 66q-69 64 -69 181zM553 233v244q0 97 -57 150q-58 54 -165 54
q-109 0 -167 -54q-57 -53 -57 -150v-244q0 -97 57 -150q58 -54 167 -54q107 0 165 54q57 53 57 150z" />
    <glyph glyph-name="omacron" unicode="&#x14d;" horiz-adv-x="537" 
d="M159 652h218q10 0 10 -10v-10q0 -11 -10 -11h-218q-10 0 -10 11v10q0 10 10 10zM54 161v190q0 81 58 129q59 47 156 47q98 0 157 -47q58 -46 58 -129v-190q0 -82 -58 -128q-59 -47 -157 -47q-97 0 -156 47q-58 46 -58 128zM440 161v191q0 62 -47 100q-47 36 -125 36
t-124 -36q-47 -38 -47 -100v-191q0 -61 47 -99q46 -37 124 -37q79 0 125 37q47 36 47 99z" />
    <glyph glyph-name="Obreve" unicode="&#x14e;" 
d="M481 886q-31 -112 -150 -112t-150 112q-3 8 5 11l17 6q8 2 12 -5q23 -90 116 -90q91 0 116 90q3 8 11 5l17 -6q9 -3 6 -11zM61 233v244q0 117 69 181q70 66 201 66q129 0 199 -66q69 -64 69 -181v-244q0 -117 -69 -181q-70 -66 -199 -66q-131 0 -201 66q-69 64 -69 181z
M553 233v244q0 97 -57 150q-58 54 -165 54q-109 0 -167 -54q-57 -53 -57 -150v-244q0 -97 57 -150q58 -54 167 -54q107 0 165 54q57 53 57 150z" />
    <glyph glyph-name="obreve" unicode="&#x14f;" horiz-adv-x="537" 
d="M418 695q-31 -112 -150 -112q-118 0 -149 112q-5 8 5 11l16 6q9 3 12 -5q26 -90 116 -90q91 0 116 90q4 6 11 5l18 -6q8 -3 5 -11zM54 161v190q0 81 58 129q59 47 156 47q98 0 157 -47q58 -46 58 -129v-190q0 -82 -58 -128q-59 -47 -157 -47q-97 0 -156 47
q-58 46 -58 128zM440 161v191q0 62 -47 100q-47 36 -125 36t-124 -36q-47 -38 -47 -100v-191q0 -61 47 -99q46 -37 124 -37q79 0 125 37q47 36 47 99z" />
    <glyph glyph-name="Ohungarumlaut" unicode="&#x150;" 
d="M196 788l101 113q8 10 20 8l15 -4q12 -4 5 -14l-113 -113q-8 -8 -15 -5l-9 3q-10 3 -4 12zM369 787l103 114q8 10 20 8l16 -4q14 -5 4 -14l-115 -114q-9 -9 -15 -5l-9 3q-11 3 -4 12zM61 233v244q0 117 69 181q70 66 201 66q129 0 199 -66q69 -64 69 -181v-244
q0 -117 -69 -181q-70 -66 -199 -66q-131 0 -201 66q-69 64 -69 181zM553 233v244q0 97 -57 150q-58 54 -165 54q-109 0 -167 -54q-57 -53 -57 -150v-244q0 -97 57 -150q58 -54 167 -54q107 0 165 54q57 53 57 150z" />
    <glyph glyph-name="ohungarumlaut" unicode="&#x151;" horiz-adv-x="537" 
d="M144 587l93 103q9 10 19 7l14 -3q12 -4 4 -12l-104 -105q-7 -7 -14 -4l-9 2q-9 5 -3 12zM302 587l98 102q8 11 18 7l15 -4q13 -3 4 -12l-109 -102q-8 -8 -14 -5l-9 3q-11 3 -3 11zM54 161v190q0 81 58 129q59 47 156 47q98 0 157 -47q58 -46 58 -129v-190q0 -82 -58 -128
q-59 -47 -157 -47q-97 0 -156 47q-58 46 -58 128zM440 161v191q0 62 -47 100q-47 36 -125 36t-124 -36q-47 -38 -47 -100v-191q0 -61 47 -99q46 -37 124 -37q79 0 125 37q47 36 47 99z" />
    <glyph glyph-name="OE" unicode="&#x152;" horiz-adv-x="838" 
d="M474 43h311q12 0 12 -12v-18q0 -13 -12 -13h-344q-53 -15 -110 -15q-131 0 -201 67q-69 64 -69 181v244q0 117 69 181q70 67 201 67q57 0 110 -15h330q13 0 13 -13v-18q0 -12 -13 -12h-297v-286h253q13 0 13 -13v-18q0 -12 -13 -12h-253v-295zM107 477v-244
q0 -97 57 -150q58 -55 167 -55q56 0 96 14v626q-50 14 -96 14q-109 0 -167 -54q-57 -54 -57 -151z" />
    <glyph glyph-name="oe" unicode="&#x153;" horiz-adv-x="811" 
d="M413 423q38 104 165 104q188 0 188 -205v-53q0 -22 -22 -22h-311v-69q0 -155 142 -155q58 0 93 26q25 19 53 70q8 11 18 5l14 -7q12 -6 4 -18q-28 -54 -64 -81q-44 -32 -119 -32q-126 0 -162 99q-38 -99 -168 -99q-84 0 -136 47q-52 46 -52 127v192q0 82 52 128
q52 47 136 47q134 0 169 -104zM724 282v42q0 165 -146 165q-145 0 -145 -165v-42h291zM390 160v192q0 63 -40 100q-41 36 -106 36q-64 0 -105 -36q-40 -37 -40 -100v-192q0 -62 40 -99q41 -36 105 -36q66 0 106 36q40 37 40 99z" />
    <glyph glyph-name="Racute" unicode="&#x154;" horiz-adv-x="640" 
d="M213 788l169 107q14 8 22 -2l10 -11q8 -11 -2 -15l-178 -102q-11 -5 -16 1l-7 8q-8 9 2 14zM95 710h287q96 0 149 -52q54 -52 54 -148q0 -84 -47 -136q-46 -50 -129 -57q49 -21 82 -82l112 -222q9 -13 -7 -13h-19q-20 0 -25 11l-104 206q-47 95 -155 95h-165v-299
q0 -13 -12 -13h-21q-13 0 -13 13v684q0 13 13 13zM537 510q0 76 -42 116q-43 41 -118 41h-249v-312h249q77 0 118 40q42 41 42 115z" />
    <glyph glyph-name="racute" unicode="&#x155;" horiz-adv-x="337" 
d="M101 609l170 106q14 10 22 -1l10 -11q8 -11 -2 -15l-178 -102q-12 -5 -16 1l-7 8q-7 7 1 14zM284 527h31q11 0 11 -12v-16q0 -12 -11 -12h-32q-84 0 -151 -26q-21 -11 -21 -33v-416q0 -12 -11 -12h-20q-12 0 -12 12v428q0 38 38 55q74 30 178 32z" />
    <glyph glyph-name="uni0156" unicode="&#x156;" horiz-adv-x="640" 
d="M95 710h287q96 0 149 -52q54 -52 54 -148q0 -84 -47 -136q-46 -50 -129 -57q49 -21 82 -82l112 -222q9 -13 -7 -13h-19q-20 0 -25 11l-104 206q-47 95 -155 95h-165v-299q0 -13 -12 -13h-21q-13 0 -13 13v684q0 13 13 13zM537 510q0 76 -42 116q-43 41 -118 41h-249v-312
h249q77 0 118 40q42 41 42 115zM366 -91l-48 -143q-2 -11 -14 -11h-13q-11 0 -9 9l40 146q2 12 14 12h19q15 0 11 -13z" />
    <glyph glyph-name="uni0157" unicode="&#x157;" horiz-adv-x="337" 
d="M283 527h31q11 0 11 -12v-16q0 -12 -11 -12h-32q-84 0 -151 -26q-21 -11 -21 -33v-416q0 -12 -11 -12h-20q-12 0 -12 12v428q0 38 38 55q74 30 178 32zM114 -56l-40 -154q-5 -11 -15 -11h-13q-10 0 -9 10l34 155q1 13 15 13h17q14 0 11 -13z" />
    <glyph glyph-name="Rcaron" unicode="&#x158;" horiz-adv-x="640" 
d="M446 898h18q17 0 6 -11l-132 -111q-14 -12 -24 -12h-5q-12 0 -24 12l-133 111q-4 3 -3 7t9 4h18q12 0 19 -7l116 -95l115 95q7 7 20 7zM95 710h287q96 0 149 -52q54 -52 54 -148q0 -84 -47 -136q-46 -50 -129 -57q49 -21 82 -82l112 -222q9 -13 -7 -13h-19q-20 0 -25 11
l-104 206q-47 95 -155 95h-165v-299q0 -13 -12 -13h-21q-13 0 -13 13v684q0 13 13 13zM537 510q0 76 -42 116q-43 41 -118 41h-249v-312h249q77 0 118 40q42 41 42 115z" />
    <glyph glyph-name="rcaron" unicode="&#x159;" horiz-adv-x="337" 
d="M325 697h16q7 0 8 -3q1 -4 -3 -7l-120 -103q-11 -11 -22 -11h-5q-11 0 -22 11l-122 103q-10 10 4 10h18q11 0 18 -7l106 -88l105 88q7 7 19 7zM285 527h31q11 0 11 -12v-16q0 -12 -11 -12h-32q-84 0 -151 -26q-21 -11 -21 -33v-416q0 -12 -11 -12h-20q-12 0 -12 12v428
q0 38 38 55q74 30 178 32z" />
    <glyph glyph-name="Sacute" unicode="&#x15a;" horiz-adv-x="622" 
d="M214 797l169 107q15 7 23 -1l9 -11q10 -10 -2 -15l-177 -103q-11 -5 -16 2l-7 8q-7 7 1 13zM55 525q0 93 66 145q67 54 185 54q185 0 262 -155q8 -12 -6 -17l-20 -9q-10 -4 -16 6q-66 131 -220 131q-98 0 -150 -40q-54 -40 -54 -112q0 -80 70 -114q48 -25 154 -35
q121 -14 170 -42q79 -43 79 -147q0 -204 -264 -204q-199 0 -269 175q-5 14 7 18l19 7q11 5 17 -8q63 -148 226 -148q218 0 218 158q0 79 -66 112q-39 20 -147 34q-126 15 -177 43q-84 45 -84 148z" />
    <glyph glyph-name="sacute" unicode="&#x15b;" horiz-adv-x="492" 
d="M147 609l169 107q14 10 22 -1l10 -11q8 -11 -2 -15l-178 -103q-11 -5 -16 2l-7 8q-6 8 2 13zM50 383q0 144 191 144q153 0 200 -110q6 -11 -6 -17l-15 -6q-10 -4 -17 5q-36 89 -161 89q-150 0 -150 -104q0 -65 49 -87q30 -14 119 -23q93 -9 134 -33q56 -33 56 -109
q0 -146 -199 -146q-163 0 -213 126q-4 11 7 16l17 5q10 4 15 -7q37 -102 173 -102q158 0 158 106q0 57 -45 81q-34 18 -112 25q-102 11 -139 30q-62 32 -62 117z" />
    <glyph glyph-name="Scircumflex" unicode="&#x15c;" horiz-adv-x="622" 
d="M311 907h6q10 0 24 -11l132 -113q10 -10 -6 -10h-18q-14 0 -21 7l-114 95l-116 -95q-7 -7 -19 -7h-19q-16 0 -6 10l133 113q14 11 24 11zM55 525q0 93 66 145q67 54 185 54q185 0 262 -155q8 -12 -6 -17l-20 -9q-10 -4 -16 6q-66 131 -220 131q-98 0 -150 -40
q-54 -40 -54 -112q0 -80 70 -114q48 -25 154 -35q121 -14 170 -42q79 -43 79 -147q0 -204 -264 -204q-199 0 -269 175q-5 14 7 18l19 7q11 5 17 -8q63 -148 226 -148q218 0 218 158q0 79 -66 112q-39 20 -147 34q-126 15 -177 43q-84 45 -84 148z" />
    <glyph glyph-name="scircumflex" unicode="&#x15d;" horiz-adv-x="492" 
d="M244 708h5q12 0 23 -11l130 -109q10 -10 -6 -10h-18q-13 0 -20 7l-112 93l-113 -93q-7 -7 -19 -7h-18q-16 0 -6 10l130 109q11 11 24 11zM50 383q0 144 191 144q153 0 200 -110q6 -11 -6 -17l-15 -6q-10 -4 -17 5q-36 89 -161 89q-150 0 -150 -104q0 -65 49 -87
q30 -14 119 -23q93 -9 134 -33q56 -33 56 -109q0 -146 -199 -146q-163 0 -213 126q-4 11 7 16l17 5q10 4 15 -7q37 -102 173 -102q158 0 158 106q0 57 -45 81q-34 18 -112 25q-102 11 -139 30q-62 32 -62 117z" />
    <glyph glyph-name="Scedilla" unicode="&#x15e;" horiz-adv-x="622" 
d="M326 379q119 -14 170 -42q79 -43 79 -147q0 -195 -244 -204l-25 -70q15 4 32 4q40 0 63 -20q24 -21 23 -55q-5 -93 -112 -93q-50 0 -84 22q-9 4 -9 15v13q0 9 7 5q34 -27 82 -27q78 0 78 66q0 49 -68 49q-23 0 -38 -5q-8 -2 -10 1.5t1 11.5l31 83q-191 3 -261 175
q-5 14 8 18l19 7q11 5 16 -8q64 -148 226 -148q218 0 218 158q0 79 -65 112q-41 20 -147 34q-126 15 -177 43q-84 45 -84 148q0 93 66 145q67 54 185 54q185 0 262 -155q8 -12 -7 -17l-19 -9q-11 -5 -17 6q-65 131 -219 131q-98 0 -150 -40q-54 -40 -54 -112q0 -80 70 -114
q48 -25 154 -35z" />
    <glyph glyph-name="scedilla" unicode="&#x15f;" horiz-adv-x="492" 
d="M50 383q0 144 191 144q153 0 200 -110q6 -11 -6 -17l-15 -6q-10 -4 -17 5q-36 89 -161 89q-150 0 -150 -104q0 -65 49 -87q30 -14 119 -23q93 -9 134 -33q56 -33 56 -109q0 -140 -189 -146l-26 -70q12 3 31 3q40 0 62 -19q23 -20 22 -53q-3 -89 -109 -89q-47 0 -82 21
q-9 5 -9 15v12q0 9 7 5q35 -26 80 -26q76 0 76 64q0 47 -66 47q-22 0 -37 -5q-8 -2 -10 1t1 12l32 82q-150 6 -195 126q-4 11 7 16l17 5q10 4 15 -7q37 -102 173 -102q158 0 158 106q0 57 -45 81q-34 18 -112 25q-102 11 -139 30q-62 32 -62 117z" />
    <glyph glyph-name="Scaron" unicode="&#x160;" horiz-adv-x="622" 
d="M448 907h18q15 0 6 -11l-132 -111q-13 -11 -24 -11h-6q-12 0 -23 11l-133 111q-11 11 5 11h19q12 0 19 -7l116 -95l114 95q7 7 21 7zM55 525q0 93 66 145q67 54 185 54q185 0 262 -155q8 -12 -6 -17l-20 -9q-10 -4 -16 6q-66 131 -220 131q-98 0 -150 -40
q-54 -40 -54 -112q0 -80 70 -114q48 -25 154 -35q121 -14 170 -42q79 -43 79 -147q0 -204 -264 -204q-199 0 -269 175q-5 14 7 18l19 7q11 5 17 -8q63 -148 226 -148q218 0 218 158q0 79 -66 112q-39 20 -147 34q-126 15 -177 43q-84 45 -84 148z" />
    <glyph glyph-name="scaron" unicode="&#x161;" horiz-adv-x="492" 
d="M367 694h17q12 0 5 -10l-119 -101q-10 -10 -22 -10h-5q-11 0 -21 10l-121 102q-9 9 4 9h18q10 0 17 -7l105 -86l104 86q6 7 18 7zM50 383q0 144 191 144q153 0 200 -110q6 -11 -6 -17l-15 -6q-10 -4 -17 5q-36 89 -161 89q-150 0 -150 -104q0 -65 49 -87q30 -14 119 -23
q93 -9 134 -33q56 -33 56 -109q0 -146 -199 -146q-163 0 -213 126q-4 11 7 16l17 5q10 4 15 -7q37 -102 173 -102q158 0 158 106q0 57 -45 81q-34 18 -112 25q-102 11 -139 30q-62 32 -62 117z" />
    <glyph glyph-name="Tcaron" unicode="&#x164;" horiz-adv-x="532" 
d="M401 898h18q15 0 6 -11l-132 -111q-13 -12 -24 -12h-6q-11 0 -24 12l-132 111q-4 3 -3 7q0 4 8 4h19q12 0 19 -7l116 -95l114 95q7 7 21 7zM26 710h480q13 0 13 -13v-18q0 -12 -13 -12h-217v-654q0 -13 -12 -13h-21q-13 0 -13 13v654h-217q-13 0 -13 12v18q0 13 13 13z
" />
    <glyph glyph-name="tcaron" unicode="&#x165;" horiz-adv-x="344" 
d="M348 728l-44 -162q-5 -11 -14 -11h-11q-9 0 -8 9l35 164q2 12 14 12h17q15 0 11 -12zM135 632h19q12 0 12 -11v-109h159q12 0 12 -11v-17q0 -11 -12 -11h-159v-290q0 -95 34 -126q32 -30 123 -30q12 0 12 -12v-17q0 -12 -12 -12q-112 -1 -155 40q-45 42 -45 156v291h-108
q-11 0 -11 11v17q0 11 11 11h108v109q0 11 12 11z" />
    <glyph glyph-name="Tbar" unicode="&#x166;" horiz-adv-x="555" 
d="M38 710h480q13 0 13 -13v-18q0 -12 -13 -12h-217v-319h151q10 0 10 -10v-15q0 -10 -10 -10h-151v-300q0 -13 -12 -13h-22q-12 0 -12 13v300h-151q-10 0 -10 10v15q0 10 10 10h151v319h-217q-13 0 -13 12v18q0 13 13 13z" />
    <glyph glyph-name="tbar" unicode="&#x167;" horiz-adv-x="353" 
d="M143 633h20q12 0 12 -12v-108h159q11 0 11 -12v-17q0 -11 -11 -11h-159v-194h129q10 0 10 -10v-12q0 -10 -10 -10h-129v-64q0 -95 33 -126q32 -30 124 -30q12 0 12 -12v-17q0 -12 -12 -12q-111 -1 -156 40q-44 42 -44 157v64h-98q-9 0 -9 10v12q0 10 9 10h98v194h-108
q-11 0 -11 11v17q0 12 11 12h108v108q0 12 11 12z" />
    <glyph glyph-name="Utilde" unicode="&#x168;" horiz-adv-x="679" 
d="M471 875h13q8 0 8 -8q0 -94 -75 -94q-35 0 -82 36q-45 36 -73 36q-48 0 -48 -64q0 -8 -8 -8h-14q-8 0 -8 8q0 94 75 94q38 0 83 -36q46 -36 73 -36q48 0 48 64q0 8 8 8zM122 697v-457q0 -98 54 -154q55 -58 164 -58q108 0 163 58q54 55 54 154v457q0 13 12 13h22
q12 0 12 -13v-457q0 -118 -65 -186q-69 -69 -198 -69q-130 0 -198 69q-66 68 -66 186v457q0 13 13 13h21q12 0 12 -13z" />
    <glyph glyph-name="utilde" unicode="&#x169;" horiz-adv-x="547" 
d="M403 697h14q8 0 8 -9q0 -93 -75 -93q-36 0 -82 36q-45 36 -74 36q-48 0 -48 -64q0 -8 -8 -8h-14q-8 0 -8 8q0 94 75 94q37 0 84 -36q45 -36 73 -36q47 0 47 63q0 9 8 9zM447 512h20q11 0 11 -11v-428q0 -39 -37 -55q-82 -32 -181 -32q-194 0 -194 193v322q0 11 12 11h19
q12 0 12 -11v-320q0 -156 155 -156q83 0 150 26q21 11 21 34v416q0 11 12 11z" />
    <glyph glyph-name="Umacron" unicode="&#x16a;" horiz-adv-x="679" 
d="M221 839h237q12 0 12 -11v-10q0 -12 -12 -12h-237q-11 0 -11 12v10q0 11 11 11zM122 697v-457q0 -98 54 -154q55 -58 164 -58q108 0 163 58q54 55 54 154v457q0 13 12 13h22q12 0 12 -13v-457q0 -118 -65 -186q-69 -69 -198 -69q-130 0 -198 69q-66 68 -66 186v457
q0 13 13 13h21q12 0 12 -13z" />
    <glyph glyph-name="umacron" unicode="&#x16b;" horiz-adv-x="547" 
d="M153 658h238q11 0 11 -11v-10q0 -11 -11 -11h-238q-11 0 -11 11v10q0 11 11 11zM447 512h20q11 0 11 -11v-428q0 -39 -37 -55q-82 -32 -181 -32q-194 0 -194 193v322q0 11 12 11h19q12 0 12 -11v-320q0 -156 155 -156q83 0 150 26q21 11 21 34v416q0 11 12 11z" />
    <glyph glyph-name="Ubreve" unicode="&#x16c;" horiz-adv-x="679" 
d="M490 876q-31 -112 -150 -112t-150 112q-3 8 5 11l17 6q8 2 12 -5q22 -90 116 -90q90 0 116 90q3 8 11 5l17 -6q9 -3 6 -11zM122 697v-457q0 -98 54 -154q55 -58 164 -58q108 0 163 58q54 55 54 154v457q0 13 12 13h22q12 0 12 -13v-457q0 -118 -65 -186q-69 -69 -198 -69
q-130 0 -198 69q-66 68 -66 186v457q0 13 13 13h21q12 0 12 -13z" />
    <glyph glyph-name="ubreve" unicode="&#x16d;" horiz-adv-x="547" 
d="M422 695q-31 -112 -150 -112q-118 0 -149 112q-5 8 5 11l16 6q9 3 12 -5q26 -90 116 -90t116 90q4 6 11 5l18 -6q8 -3 5 -11zM447 512h20q11 0 11 -11v-428q0 -39 -37 -55q-82 -32 -181 -32q-194 0 -194 193v322q0 11 12 11h19q12 0 12 -11v-320q0 -156 155 -156
q83 0 150 26q21 11 21 34v416q0 11 12 11z" />
    <glyph glyph-name="Uring" unicode="&#x16e;" horiz-adv-x="679" 
d="M243 837q0 43 27 69q26 26 71 26q44 0 70 -26t26 -69q0 -42 -26 -68t-70 -26q-45 0 -71 26q-27 25 -27 68zM412 837q0 70 -71 70q-73 0 -73 -70q0 -69 73 -69q71 0 71 69zM122 697v-457q0 -98 54 -154q55 -58 164 -58q108 0 163 58q54 55 54 154v457q0 13 12 13h22
q12 0 12 -13v-457q0 -118 -65 -186q-69 -69 -198 -69q-130 0 -198 69q-66 68 -66 186v457q0 13 13 13h21q12 0 12 -13z" />
    <glyph glyph-name="uring" unicode="&#x16f;" horiz-adv-x="547" 
d="M180 646q0 44 27 69q26 26 71 26q44 0 70 -26t26 -69t-26 -69q-25 -25 -70 -25q-46 0 -71 25q-27 25 -27 69zM349 646q0 70 -71 70q-73 0 -73 -70t73 -70q71 0 71 70zM447 512h20q11 0 11 -11v-428q0 -39 -37 -55q-82 -32 -181 -32q-194 0 -194 193v322q0 11 12 11h19
q12 0 12 -11v-320q0 -156 155 -156q83 0 150 26q21 11 21 34v416q0 11 12 11z" />
    <glyph glyph-name="Uhungarumlaut" unicode="&#x170;" horiz-adv-x="679" 
d="M205 778l101 113q8 10 20 8l15 -4q12 -4 5 -14l-113 -113q-8 -8 -15 -5l-9 3q-10 3 -4 12zM378 777l103 114q8 10 20 8l16 -4q13 -5 4 -14l-115 -114q-9 -9 -15 -5l-9 3q-11 3 -4 12zM122 697v-457q0 -98 54 -154q55 -58 164 -58q108 0 163 58q54 55 54 154v457
q0 13 12 13h22q12 0 12 -13v-457q0 -118 -65 -186q-69 -69 -198 -69q-130 0 -198 69q-66 68 -66 186v457q0 13 13 13h21q12 0 12 -13z" />
    <glyph glyph-name="uhungarumlaut" unicode="&#x171;" horiz-adv-x="547" 
d="M137 593l102 113q8 10 19 8l16 -4q14 -4 4 -14l-113 -113q-8 -8 -15 -5l-9 3q-10 3 -4 12zM309 593l106 111q9 11 20 8l16 -4q14 -5 4 -13l-118 -112q-8 -8 -15 -5l-9 3q-11 3 -4 12zM447 512h20q11 0 11 -11v-428q0 -39 -37 -55q-82 -32 -181 -32q-194 0 -194 193v322
q0 11 12 11h19q12 0 12 -11v-320q0 -156 155 -156q83 0 150 26q21 11 21 34v416q0 11 12 11z" />
    <glyph glyph-name="Uogonek" unicode="&#x172;" horiz-adv-x="679" 
d="M569 710h22q12 0 12 -13v-457q0 -142 -92 -207q-64 -53 -105 -119q-39 -64 -27 -95q10 -31 45 -31q36 0 63 27q7 4 8 -2l6 -14q2 -6 -2 -10q-36 -36 -87 -36q-57 0 -71 47q-25 79 99 200q-42 -15 -100 -15q-130 0 -198 69q-66 68 -66 186v457q0 13 13 13h21q12 0 12 -13
v-457q0 -98 54 -154q55 -58 164 -58q108 0 163 58q54 55 54 154v457q0 13 12 13z" />
    <glyph glyph-name="uogonek" unicode="&#x173;" horiz-adv-x="547" 
d="M447 512h20q11 0 11 -11v-428q0 -29 -17 -43q-58 -49 -89 -116q-29 -62 -17 -95q10 -31 46 -31t63 27q5 5 8 -2l5 -14q2 -6 -2 -10q-36 -36 -87 -36q-57 0 -71 47q-12 38 12 96q26 63 77 111q-68 -21 -146 -21q-194 0 -194 193v322q0 11 12 11h19q12 0 12 -11v-320
q0 -156 155 -156q83 0 150 26q21 11 21 34v416q0 11 12 11z" />
    <glyph glyph-name="Wcircumflex" unicode="&#x174;" horiz-adv-x="870" 
d="M435 897h6q12 0 23 -11l133 -112q10 -10 -6 -10h-19q-13 0 -20 7l-114 95l-116 -95q-7 -7 -20 -7h-18q-16 0 -6 10l133 112q13 11 24 11zM816 710h22q12 0 8 -12l-185 -686q-5 -12 -17 -12h-20q-15 0 -17 11l-149 527q-11 39 -21 91h-3q-9 -47 -22 -91l-149 -526
q-1 -12 -17 -12h-19q-15 0 -17 11l-186 687q-3 12 8 12h25q15 0 17 -11l143 -538q4 -12 10 -49l10 -46h2l10 45l12 49l149 523q2 12 17 12h20q15 0 17 -12l149 -525l21 -92h3l18 92l144 541q2 11 17 11z" />
    <glyph glyph-name="wcircumflex" unicode="&#x175;" horiz-adv-x="729" 
d="M362 707h6q13 0 23 -10l130 -110q7 -10 -6 -10h-18q-13 0 -20 7l-112 93l-114 -93q-7 -7 -19 -7h-17q-14 0 -7 10l131 110q10 10 23 10zM680 512h14q13 0 9 -13l-154 -492q-5 -12 -16 -12h-15q-11 0 -16 12l-118 361l-20 76h-3l-9 -33q-6 -24 -12 -43l-116 -361
q-4 -12 -16 -12h-15q-11 0 -15 12l-154 492q-4 13 9 13h15q17 0 20 -12l109 -353q3 -8 13 -51q9 -37 11 -43h2q4 9 12 43q2 8 14 52l111 337q4 12 19 12h10q13 0 18 -11l110 -334l16 -54q7 -34 12 -45h2q2 6 11 43l14 55l108 350q3 11 20 11z" />
    <glyph glyph-name="Ycircumflex" unicode="&#x176;" horiz-adv-x="619" 
d="M308 897h6q12 0 23 -11l133 -112q10 -10 -6 -10h-19q-13 0 -20 7l-115 95l-116 -95q-7 -7 -19 -7h-18q-16 0 -6 10l133 112q11 11 24 11zM571 710h25q14 0 7 -13l-271 -405v-279q0 -13 -12 -13h-21q-13 0 -13 13v280l-270 404q-7 13 7 13h27q18 0 23 -11l237 -359
l237 359q8 11 24 11z" />
    <glyph glyph-name="ycircumflex" unicode="&#x177;" horiz-adv-x="549" 
d="M270 707h5q13 0 23 -10l130 -110q10 -10 -6 -10h-18q-13 0 -20 7l-112 93l-113 -93q-7 -7 -19 -7h-18q-16 0 -6 10l131 110q10 10 23 10zM447 512h20q11 0 11 -11v-538q0 -216 -208 -216q-138 0 -195 113q-9 13 5 19l13 7q11 6 19 -5q48 -95 157 -95q166 0 166 175v65
q-89 -33 -175 -33q-194 0 -194 193v315q0 11 12 11h19q12 0 12 -11v-313q0 -156 155 -156q87 0 171 34v435q0 11 12 11z" />
    <glyph glyph-name="Ydieresis" unicode="&#x178;" horiz-adv-x="619" 
d="M212 853h6q23 0 23 -23v-7q0 -22 -23 -22h-6q-23 0 -23 22v7q0 23 23 23zM403 853h6q23 0 23 -23v-7q0 -22 -23 -22h-6q-23 0 -23 22v7q0 23 23 23zM571 710h25q14 0 7 -13l-271 -405v-279q0 -13 -12 -13h-21q-13 0 -13 13v280l-270 404q-7 13 7 13h27q18 0 23 -11
l237 -359l237 359q8 11 24 11z" />
    <glyph glyph-name="Zacute" unicode="&#x179;" horiz-adv-x="555" 
d="M182 788l169 107q15 8 23 -2l9 -11q9 -10 -2 -15l-178 -102q-11 -5 -16 1l-6 8q-8 10 1 14zM49 710h453q13 0 13 -13v-16q0 -9 -5 -16l-421 -621h425q13 0 13 -13v-18q0 -13 -13 -13h-470q-12 0 -12 13v17q0 9 5 17l420 620h-408q-13 0 -13 12v18q0 13 13 13z" />
    <glyph glyph-name="zacute" unicode="&#x17a;" horiz-adv-x="447" 
d="M124 609l170 106q14 10 22 -1l9 -11q10 -10 -2 -15l-177 -102q-12 -5 -16 1l-7 8q-7 7 1 14zM85 39h321q11 0 11 -12v-15q0 -12 -11 -12h-364q-11 0 -11 12v15q0 7 5 14l322 432h-312q-11 0 -11 12v16q0 11 11 11h355q11 0 11 -11v-16q0 -8 -5 -15z" />
    <glyph glyph-name="Zdotaccent" unicode="&#x17b;" horiz-adv-x="555" 
d="M279 849h5q23 0 23 -24v-5q0 -23 -23 -23h-5q-24 0 -24 23v5q0 24 24 24zM49 710h453q13 0 13 -13v-16q0 -9 -5 -16l-421 -621h425q13 0 13 -13v-18q0 -13 -13 -13h-470q-12 0 -12 13v17q0 9 5 17l420 620h-408q-13 0 -13 12v18q0 13 13 13z" />
    <glyph glyph-name="zdotaccent" unicode="&#x17c;" horiz-adv-x="447" 
d="M221 669h5q24 0 24 -24v-4q0 -24 -24 -24h-5q-23 0 -23 24v4q0 24 23 24zM85 39h321q11 0 11 -12v-15q0 -12 -11 -12h-364q-11 0 -11 12v15q0 7 5 14l322 432h-312q-11 0 -11 12v16q0 11 11 11h355q11 0 11 -11v-16q0 -8 -5 -15z" />
    <glyph glyph-name="Zcaron" unicode="&#x17d;" horiz-adv-x="555" 
d="M415 898h19q16 0 5 -11l-132 -111q-12 -12 -23 -12h-6q-12 0 -24 12l-133 111q-11 11 6 11h18q12 0 19 -7l116 -95l115 95q7 7 20 7zM49 710h453q13 0 13 -13v-16q0 -9 -5 -16l-421 -621h425q13 0 13 -13v-18q0 -13 -13 -13h-470q-12 0 -12 13v17q0 9 5 17l420 620h-408
q-13 0 -13 12v18q0 13 13 13z" />
    <glyph glyph-name="zcaron" unicode="&#x17e;" horiz-adv-x="447" 
d="M345 693h16q15 0 5 -10l-119 -101q-10 -10 -21 -10h-5q-11 0 -21 10l-121 102q-9 9 5 9h17q11 0 18 -7l104 -86l103 86q7 7 19 7zM85 39h321q11 0 11 -12v-15q0 -12 -11 -12h-364q-11 0 -11 12v15q0 7 5 14l322 432h-312q-11 0 -11 12v16q0 11 11 11h355q11 0 11 -11v-16
q0 -8 -5 -15z" />
    <glyph glyph-name="longs" unicode="&#x17f;" horiz-adv-x="243" 
d="M109 512v34q0 108 46 151q44 43 155 43q11 0 11 -12v-17q0 -11 -11 -11q-90 0 -124 -32q-34 -33 -34 -125v-531q0 -12 -12 -12h-19q-12 0 -12 12v461h-89q-12 0 -12 11v17q0 11 12 11h89z" />
    <glyph glyph-name="florin" unicode="&#x192;" horiz-adv-x="437" 
d="M191 378l18 164q19 198 208 198q12 0 12 -12v-17q0 -11 -12 -11q-147 0 -165 -160l-17 -162h153q12 0 12 -12v-17q0 -11 -12 -11h-158l-38 -359q-22 -199 -209 -199q-12 0 -12 12v17q0 11 12 11q149 0 165 162l39 356h-145q-12 0 -12 11v17q0 12 12 12h149z" />
    <glyph glyph-name="Ohorn" unicode="&#x1a0;" 
d="M553 233v244q0 97 -57 150q-58 54 -165 54q-109 0 -167 -54q-57 -53 -57 -150v-244q0 -97 57 -150q58 -54 167 -54q107 0 165 54q57 53 57 150zM594 537q5 -32 5 -60v-244q0 -117 -69 -181q-70 -66 -199 -66q-131 0 -201 66q-69 64 -69 181v244q0 117 69 181
q70 66 201 66q129 0 199 -66q34 -33 50 -74q6 4 12 12q43 40 43 102q-1 10 9 12h25q9 0 9 -11q0 -77 -48 -126q-18 -23 -36 -36z" />
    <glyph glyph-name="ohorn" unicode="&#x1a1;" horiz-adv-x="565" 
d="M440 161v191q0 62 -47 100q-47 36 -125 36t-124 -36q-47 -38 -47 -100v-191q0 -61 47 -99q46 -37 124 -37q79 0 125 37q47 36 47 99zM483 346v-185q0 -82 -58 -128q-59 -47 -157 -47q-97 0 -156 47q-58 46 -58 128v190q0 81 58 129q59 47 156 47q98 0 157 -47
q38 -31 52 -79q42 41 42 101q-1 10 9 12h25q9 0 9 -11q0 -77 -48 -126q-15 -18 -31 -31z" />
    <glyph glyph-name="Uhorn" unicode="&#x1af;" horiz-adv-x="679" 
d="M603 532v-292q0 -118 -65 -186q-69 -69 -198 -69q-130 0 -198 69q-66 68 -66 186v457q0 13 13 13h21q12 0 12 -13v-457q0 -98 54 -154q55 -58 164 -58q108 0 163 58q54 55 54 154v457q0 13 12 13h22q12 0 12 -13v-116q10 7 17 15q43 40 43 102q-1 10 9 12h25q9 0 9 -11
q0 -77 -48 -126q-24 -27 -55 -41z" />
    <glyph glyph-name="uhorn" unicode="&#x1b0;" horiz-adv-x="567" 
d="M478 341v-268q0 -39 -37 -55q-82 -32 -181 -32q-194 0 -194 193v322q0 11 12 11h19q12 0 12 -11v-320q0 -156 155 -156q83 0 150 26q21 11 21 34v416q0 11 12 11h20q11 0 11 -11v-100q41 41 41 100q-1 11 9 12h25q9 0 9 -11q0 -76 -48 -126q-19 -22 -36 -35z" />
    <glyph glyph-name="Aringacute" unicode="&#x1fa;" horiz-adv-x="632" 
d="M229 881l156 73q15 6 21 -1l8 -10q7 -7 -2 -11l-168 -71q-10 -4 -15 1l-6 7q-7 7 6 12zM218 761q0 39 27 65q28 26 70 26q41 0 69 -26q26 -26 26 -65q0 -65 -64 -75l272 -674q8 -12 -9 -12h-18q-18 0 -23 11l-91 229h-326l-92 -229q-5 -11 -22 -11h-17q-14 0 -9 12
l273 674q-66 14 -66 75zM383 762q0 29 -19 47q-20 18 -49 18q-31 0 -50 -18t-19 -47q0 -26 19 -42q20 -17 50 -17q29 0 49 17q19 16 19 42zM463 279l-102 257l-25 71q-12 40 -20 58h-3q-8 -17 -20 -57q-19 -57 -24 -71l-104 -258h298z" />
    <glyph glyph-name="aringacute" unicode="&#x1fb;" horiz-adv-x="509" 
d="M159 806l158 79q13 7 21 -1l9 -8q7 -7 -2 -11l-166 -76q-11 -3 -15 1l-6 6q-7 5 1 10zM158 671q0 43 27 69q26 26 71 26q44 0 70 -26t26 -69t-26 -69q-25 -25 -70 -25q-46 0 -71 25q-27 26 -27 69zM327 671q0 70 -71 70q-73 0 -73 -70t73 -70q71 0 71 70zM57 421
q55 106 197 106q194 0 194 -195v-263q0 -42 -36 -57q-61 -26 -159 -26q-123 0 -171 39q-42 35 -42 113q0 83 50 118q50 33 167 33q40 0 148 -11v55q0 72 -29 109q-36 46 -124 46q-112 0 -157 -85q-6 -9 -16 -5l-16 6q-12 6 -6 17zM405 79v163q-115 11 -152 11
q-93 0 -131 -26t-38 -88q0 -60 32 -86q37 -31 134 -31q80 0 132 20q23 11 23 37z" />
    <glyph glyph-name="AEacute" unicode="&#x1fc;" horiz-adv-x="817" 
d="M490 788l170 107q14 8 22 -2l9 -11q10 -10 -2 -15l-177 -102q-10 -5 -16 1l-7 8q-7 7 1 14zM468 43h296q12 0 12 -12v-18q0 -13 -12 -13h-329q-12 0 -12 13v174h-270l-106 -176q-8 -11 -22 -11h-20q-13 0 -9 12l418 686q8 12 17 12h319q12 0 12 -13v-18q0 -12 -12 -12
h-282v-286h238q13 0 13 -13v-18q0 -12 -13 -12h-238v-295zM423 635l-246 -409h246v409z" />
    <glyph glyph-name="aeacute" unicode="&#x1fd;" horiz-adv-x="783" 
d="M291 616l169 107q15 7 23 -1l9 -11q8 -11 -2 -15l-178 -103q-11 -5 -16 2l-6 8q-8 8 1 13zM58 422q56 105 175 105q125 0 153 -102q38 102 163 102q189 0 189 -205v-53q0 -22 -23 -22h-311v-69q0 -155 142 -155q58 0 93 26q25 19 53 70q8 11 19 5l13 -7q11 -6 5 -18
q-30 -58 -64 -81q-46 -32 -119 -32q-108 0 -149 71q-45 -71 -164 -71q-109 0 -153 38q-39 34 -39 112q0 83 44 118q43 34 152 34q64 0 124 -12v62q0 72 -22 106q-30 44 -107 44q-90 0 -136 -84q-8 -9 -16 -5l-15 6q-11 4 -7 17zM695 282v42q0 165 -146 165q-145 0 -145 -165
v-42h291zM361 169v71q-63 12 -129 12q-82 0 -115 -27q-32 -26 -32 -89q0 -59 29 -85q32 -29 115 -29q117 0 141 72q-9 33 -9 75z" />
    <glyph glyph-name="Oslashacute" unicode="&#x1fe;" 
d="M237 798l170 107q14 8 22 -2l9 -11q10 -10 -2 -15l-177 -102q-11 -5 -16 1l-7 8q-7 7 1 14zM575 749h27q5 0 3 -5l-63 -98q57 -62 57 -169v-244q0 -117 -69 -181q-70 -66 -199 -66q-114 0 -179 49l-47 -73q-3 -5 -12 -5h-25q-6 0 -3 5l60 94q-64 64 -64 177v244
q0 117 69 181q70 66 201 66q117 0 185 -56l49 77q4 4 10 4zM154 100l338 530q-57 51 -161 51q-109 0 -167 -54q-57 -53 -57 -150v-244q0 -83 47 -133zM514 601l-338 -527q57 -45 155 -45q107 0 165 54q57 53 57 150v244q0 77 -39 124z" />
    <glyph glyph-name="oslashacute" unicode="&#x1ff;" horiz-adv-x="537" 
d="M169 609l169 106q14 10 22 -1l10 -11q8 -11 -2 -15l-178 -102q-12 -5 -16 1l-6 8q-8 10 1 14zM447 552h20q5 0 3 -5l-43 -68q56 -47 56 -128v-190q0 -82 -58 -128q-59 -47 -157 -47q-80 0 -133 32l-31 -48q-5 -5 -10 -5h-20q-7 0 -2 5l40 63q-58 49 -58 128v190
q0 81 58 129q59 47 156 47q82 0 135 -33l35 54q3 4 9 4zM137 73l245 386q-49 29 -114 29q-78 0 -124 -36q-47 -38 -47 -100v-191q0 -54 40 -88zM401 439l-245 -386q46 -28 112 -28q79 0 125 37q47 36 47 99v191q0 54 -39 87z" />
    <glyph glyph-name="uni0218" unicode="&#x218;" horiz-adv-x="622" 
d="M55 525q0 93 66 145q67 54 185 54q185 0 262 -155q8 -12 -6 -17l-20 -9q-10 -4 -16 6q-66 131 -220 131q-98 0 -150 -40q-54 -40 -54 -112q0 -80 70 -114q48 -25 154 -35q121 -14 170 -42q79 -43 79 -147q0 -204 -264 -204q-199 0 -269 175q-5 14 7 18l19 7q11 5 17 -8
q63 -148 226 -148q218 0 218 158q0 79 -66 112q-39 20 -147 34q-126 15 -177 43q-84 45 -84 148zM355 -98l-47 -143q-5 -11 -15 -11h-13q-10 0 -9 9l40 146q1 12 14 12h19q15 0 11 -13z" />
    <glyph glyph-name="uni0219" unicode="&#x219;" horiz-adv-x="492" 
d="M50 383q0 144 191 144q153 0 200 -110q6 -11 -6 -17l-15 -6q-10 -4 -17 5q-36 89 -161 89q-150 0 -150 -104q0 -65 49 -87q30 -14 119 -23q93 -9 134 -33q56 -33 56 -109q0 -146 -199 -146q-163 0 -213 126q-4 11 7 16l17 5q10 4 15 -7q37 -102 173 -102q158 0 158 106
q0 57 -45 81q-34 18 -112 25q-102 11 -139 30q-62 32 -62 117zM286 -66l-42 -143q-4 -12 -15 -12h-11q-10 0 -9 10l35 145q1 13 15 13h16q15 0 11 -13z" />
    <glyph glyph-name="uni021A" unicode="&#x21a;" horiz-adv-x="532" 
d="M26 710h480q13 0 13 -13v-18q0 -12 -13 -12h-217v-654q0 -13 -12 -13h-21q-13 0 -13 13v654h-217q-13 0 -13 12v18q0 13 13 13zM297 -91l-48 -143q-5 -11 -14 -11h-14q-9 0 -8 9l39 146q2 12 15 12h19q15 0 11 -13z" />
    <glyph glyph-name="uni021B" unicode="&#x21b;" horiz-adv-x="344" 
d="M135 632h19q12 0 12 -11v-109h159q12 0 12 -11v-17q0 -11 -12 -11h-159v-290q0 -95 34 -126q32 -30 123 -30q12 0 12 -12v-17q0 -12 -12 -12q-112 -1 -155 40q-45 42 -45 156v291h-108q-11 0 -11 11v17q0 11 11 11h108v109q0 11 12 11zM245 -91l-48 -143q-2 -11 -14 -11
h-14q-9 0 -8 9l39 146q2 12 15 12h19q15 0 11 -13z" />
    <glyph glyph-name="uni0237" unicode="&#x237;" horiz-adv-x="185" 
d="M83 512h19q12 0 12 -11v-510q0 -111 -43 -163q-46 -58 -154 -58q-12 0 -12 12v17q0 11 12 11q86 0 122 47q32 43 32 134v510q0 11 12 11z" />
    <glyph glyph-name="circumflex" unicode="&#x2c6;" horiz-adv-x="370" 
d="M183 720h5q10 0 24 -11l132 -113q10 -10 -6 -10h-18q-14 0 -21 7l-114 95l-116 -95q-7 -7 -19 -7h-19q-16 0 -6 10l134 113q13 11 24 11z" />
    <glyph glyph-name="caron" unicode="&#x2c7;" horiz-adv-x="332" 
d="M302 719h18q13 0 6 -10l-132 -112q-13 -11 -24 -11h-5q-13 0 -24 11l-134 112q-10 10 5 10h20q12 0 19 -7l116 -95l114 95q7 7 21 7z" />
    <glyph glyph-name="breve" unicode="&#x2d8;" horiz-adv-x="287" 
d="M288 702q-32 -111 -150 -111q-117 0 -150 111q-3 9 6 12l16 6q9 3 12 -5q25 -91 116 -91t116 91q3 8 11 5l18 -6q7 -4 5 -12z" />
    <glyph glyph-name="dotaccent" unicode="&#x2d9;" horiz-adv-x="216" 
d="M106 677h4q24 0 24 -24v-5q0 -24 -24 -24h-4q-24 0 -24 24v5q0 24 24 24z" />
    <glyph glyph-name="ring" unicode="&#x2da;" horiz-adv-x="240" 
d="M24 639q0 43 27 69q26 26 71 26q44 0 70 -26q25 -25 25 -69t-25 -69t-70 -25q-46 0 -71 25q-27 26 -27 69zM192 639q0 70 -70 70q-73 0 -73 -70t73 -70q70 0 70 70z" />
    <glyph glyph-name="ogonek" unicode="&#x2db;" horiz-adv-x="252" 
d="M153 0h34q-56 -47 -85 -99q-26 -50 -14 -82q10 -31 45 -31q36 0 63 27q7 4 8 -2l6 -14q2 -6 -2 -10q-36 -36 -87 -36q-57 0 -71 47q-14 41 13 95q29 57 90 105z" />
    <glyph glyph-name="tilde" unicode="&#x2dc;" horiz-adv-x="305" 
d="M285 704h14q8 0 8 -8q0 -94 -75 -94q-36 0 -82 36q-45 36 -74 36q-48 0 -48 -64q0 -8 -8 -8h-14q-8 0 -8 8q0 94 75 94q37 0 84 -36q45 -36 73 -36q47 0 47 64q0 8 8 8z" />
    <glyph glyph-name="hungarumlaut" unicode="&#x2dd;" horiz-adv-x="395" 
d="M57 601l101 112q9 11 20 8l16 -4q11 -4 4 -13l-113 -114q-8 -7 -15 -5l-9 3q-10 4 -4 13zM229 601l106 111q8 10 20 8l16 -4q13 -4 4 -14l-118 -111q-8 -8 -16 -5l-9 3q-12 3 -3 12z" />
    <glyph glyph-name="gravecomb" unicode="&#x300;" horiz-adv-x="0" 
d="M-338 711l10 11q8 8 22 1l169 -107q10 -5 2 -13l-7 -8q-5 -7 -16 -2l-178 103q-10 4 -2 15z" />
    <glyph glyph-name="acutecomb" unicode="&#x301;" horiz-adv-x="0" 
d="M-320 616l169 107q15 7 23 -1l9 -11q9 -10 -2 -15l-177 -103q-11 -4 -16 2l-7 8q-8 8 1 13z" />
    <glyph glyph-name="tildecomb" unicode="&#x303;" horiz-adv-x="0" 
d="M-84 704h14q8 0 8 -8q0 -94 -75 -94q-35 0 -82 36q-45 36 -74 36q-48 0 -48 -64q0 -8 -8 -8h-14q-8 0 -8 8q0 94 75 94q38 0 84 -36q45 -36 73 -36q47 0 47 64q0 8 8 8z" />
    <glyph glyph-name="hookabovecomb" unicode="&#x309;" horiz-adv-x="4" 
d="M151 578h-28q-7 4 8 14q20 18 32 31q19 19 16 44q-2 23 -26 30q-25 7 -52 -7q-6 -2 -9 0t-2 7l-2 11q-2 8 5 11q37 19 79 9q48 -14 48 -54q3 -36 -19 -61q-20 -23 -33 -29q-8 -5 -17 -6z" />
    <glyph glyph-name="uni031B" unicode="&#x31b;" horiz-adv-x="0" 
d="M563 519l-2 43q31 5 59 34q43 40 43 102q-1 10 9 12h25q9 0 9 -11q0 -77 -48 -126q-35 -41 -95 -54z" />
    <glyph glyph-name="dotbelowcomb" unicode="&#x323;" horiz-adv-x="0" 
d="M-246 -86h5q28 0 28 -27v-6q0 -27 -28 -27h-5q-27 0 -27 27v6q0 27 27 27z" />
    <glyph glyph-name="uni0326" unicode="&#x326;" horiz-adv-x="0" 
d="M152 -91l-47 -143q-5 -11 -14 -11h-14q-11 0 -8 9l39 146q2 12 15 12h18q15 0 11 -13z" />
    <glyph glyph-name="pi" unicode="&#x3c0;" horiz-adv-x="604" 
d="M165 512h410q12 0 12 -11v-16q0 -12 -12 -12h-69v-329q0 -75 28 -119q6 -13 -5 -18l-16 -8q-11 -5 -17 6q-33 55 -33 141v327h-275v-461q0 -12 -11 -12h-20q-12 0 -12 12v461q-60 -2 -111 -32q-12 -6 -17 3l-7 16q-5 11 6 16q61 36 149 36z" />
    <glyph glyph-name="uni0401" unicode="&#x401;" horiz-adv-x="570" 
d="M202 843h6q23 0 23 -23v-7q0 -22 -23 -22h-6q-23 0 -23 22v7q0 23 23 23zM393 843h6q23 0 23 -23v-7q0 -22 -23 -22h-6q-23 0 -23 22v7q0 23 23 23zM95 710h408q13 0 13 -13v-18q0 -12 -13 -12h-375v-286h332q12 0 12 -12v-18q0 -13 -12 -13h-332v-295h389q13 0 13 -12
v-18q0 -13 -13 -13h-422q-13 0 -13 13v684q0 13 13 13z" />
    <glyph glyph-name="uni0410" unicode="&#x410;" horiz-adv-x="632" 
d="M342 703l277 -691q5 -12 -10 -12h-18q-20 0 -22 11l-89 221h-332l-88 -221q-5 -11 -23 -11h-17q-14 0 -9 12l277 691q4 12 17 12h20q13 0 17 -12zM467 271l-142 355q-2 6 -10 43h-3q0 -19 -8 -43l-142 -355h305z" />
    <glyph glyph-name="uni0411" unicode="&#x411;" horiz-adv-x="625" 
d="M95 710h431q12 0 12 -13v-18q0 -12 -12 -12h-398v-269h259q96 0 148 -52q54 -52 54 -147t-54 -147q-52 -52 -148 -52h-293q-12 0 -12 12v685q0 13 13 13zM542 199q0 75 -42 116q-41 40 -117 40h-255v-312h255q74 0 117 41q42 41 42 115z" />
    <glyph glyph-name="uni0412" unicode="&#x412;" horiz-adv-x="640" 
d="M95 710h284q90 0 139 -46t49 -133q0 -126 -104 -164v-2q128 -29 128 -176q0 -91 -54 -140q-52 -49 -145 -49h-297q-13 0 -13 13v684q0 13 13 13zM520 526q0 141 -146 141h-246v-284h246q146 0 146 143zM543 193q0 148 -153 148h-262v-298h262q153 0 153 150z" />
    <glyph glyph-name="uni0413" unicode="&#x413;" horiz-adv-x="508" 
d="M95 710h384q12 0 12 -13v-18q0 -12 -12 -12h-351v-654q0 -13 -12 -13h-21q-13 0 -13 13v684q0 13 13 13z" />
    <glyph glyph-name="uni0414" unicode="&#x414;" horiz-adv-x="699" 
d="M190 710h394q12 0 12 -13v-654h69q12 0 12 -12v-171q0 -13 -12 -13h-21q-12 0 -12 13v140h-573v-140q0 -13 -13 -13h-20q-13 0 -13 13v171q0 12 13 12h41q51 36 73 104q37 108 37 349v201q0 13 13 13zM221 667v-171q0 -362 -96 -453h425v624h-329z" />
    <glyph glyph-name="uni0415" unicode="&#x415;" horiz-adv-x="570" 
d="M95 710h408q13 0 13 -13v-18q0 -12 -13 -12h-375v-286h332q12 0 12 -12v-18q0 -13 -12 -13h-332v-295h389q13 0 13 -12v-18q0 -13 -13 -13h-422q-13 0 -13 13v684q0 13 13 13z" />
    <glyph glyph-name="uni0416" unicode="&#x416;" horiz-adv-x="905" 
d="M844 710h22q16 0 7 -13l-224 -332q66 -21 108 -103l126 -249q9 -13 -7 -13h-20q-19 0 -25 11l-116 233q-25 51 -59 72q-35 23 -96 23h-84v-326q0 -13 -13 -13h-21q-13 0 -13 13v326h-84q-105 0 -155 -95l-116 -233q-6 -11 -25 -11h-20q-16 0 -7 13l126 249q42 82 108 103
l-224 332q-7 13 7 13h22q18 0 26 -11l214 -320q38 2 44 2h84v316q0 13 13 13h21q13 0 13 -13v-316h84q10 0 44 -2l214 320q8 11 26 11z" />
    <glyph glyph-name="uni0417" unicode="&#x417;" horiz-adv-x="613" 
d="M542 527q0 -125 -96 -160q117 -36 117 -175q0 -206 -249 -206q-222 0 -274 178q-4 11 8 16l19 7q12 4 17 -8q24 -78 73 -112q55 -38 157 -38q202 0 202 164q0 69 -37 109q-39 41 -110 41h-188q-12 0 -12 12v17q0 13 12 13h184q65 0 100 42q31 37 31 97q0 157 -184 157
q-97 0 -150 -35q-50 -34 -72 -111q-5 -11 -17 -7l-19 6q-12 5 -8 17q53 173 268 173q113 0 171 -52q57 -51 57 -145z" />
    <glyph glyph-name="uni0418" unicode="&#x418;" horiz-adv-x="691" 
d="M575 710h21q13 0 13 -13v-684q0 -13 -13 -13h-21q-13 0 -13 13v442q0 78 8 192h-2q-48 -79 -110 -169l-328 -470q-5 -8 -15 -8h-20q-13 0 -13 13v684q0 13 13 13h21q12 0 12 -13v-429q0 -127 -7 -205h2q31 53 119 183l319 457q4 7 14 7z" />
    <glyph glyph-name="uni0419" unicode="&#x419;" horiz-adv-x="691" 
d="M507 879q-34 -109 -158 -109q-127 0 -158 109q-3 8 5 11l18 6q8 3 13 -5q25 -88 122 -88t122 88q4 7 12 5l18 -6q9 -3 6 -11zM575 710h21q13 0 13 -13v-684q0 -13 -13 -13h-21q-13 0 -13 13v442q0 78 8 192h-2q-48 -79 -110 -169l-328 -470q-5 -8 -15 -8h-20
q-13 0 -13 13v684q0 13 13 13h21q12 0 12 -13v-429q0 -127 -7 -205h2q31 53 119 183l319 457q4 7 14 7z" />
    <glyph glyph-name="uni041A" unicode="&#x41a;" horiz-adv-x="600" 
d="M453 262l126 -249q7 -13 -7 -13h-20q-19 0 -25 11l-117 233q-47 95 -155 95h-127v-326q0 -13 -12 -13h-21q-13 0 -13 13v684q0 13 13 13h21q12 0 12 -13v-316h124q20 0 25 -1l236 319q9 11 26 11h23q15 0 6 -13l-243 -325q82 -20 128 -110z" />
    <glyph glyph-name="uni041B" unicode="&#x41b;" horiz-adv-x="646" 
d="M160 710h392q12 0 12 -13v-684q0 -13 -12 -13h-21q-13 0 -13 13v654h-325v-202q0 -266 -47 -371q-28 -62 -114 -106q-12 -6 -17 5l-10 19q-6 11 6 17q73 37 98 95q38 94 38 341v232q0 13 13 13z" />
    <glyph glyph-name="uni041C" unicode="&#x41c;" horiz-adv-x="795" 
d="M682 710h19q12 0 12 -13v-684q0 -13 -12 -13h-20q-12 0 -12 13v459q0 90 7 167h-2q-33 -68 -75 -143l-178 -316q-4 -10 -16 -10h-13q-13 0 -17 10l-181 320q-37 63 -72 139h-2q6 -88 6 -167v-459q0 -13 -13 -13h-18q-13 0 -13 13v684q0 13 13 13h16q11 0 19 -11l268 -473
l266 472q8 12 18 12z" />
    <glyph glyph-name="uni041D" unicode="&#x41d;" horiz-adv-x="679" 
d="M563 710h21q13 0 13 -13v-684q0 -13 -13 -13h-21q-12 0 -12 13v325h-423v-325q0 -13 -12 -13h-21q-13 0 -13 13v684q0 13 13 13h21q12 0 12 -13v-316h423v316q0 13 12 13z" />
    <glyph glyph-name="uni041E" unicode="&#x41e;" 
d="M61 233v244q0 117 69 181q70 66 201 66q129 0 199 -66q69 -64 69 -181v-244q0 -117 -69 -181q-70 -66 -199 -66q-131 0 -201 66q-69 64 -69 181zM553 233v244q0 97 -57 150q-58 54 -165 54q-109 0 -167 -54q-57 -53 -57 -150v-244q0 -97 57 -150q58 -54 167 -54
q107 0 165 54q57 53 57 150z" />
    <glyph glyph-name="uni041F" unicode="&#x41f;" horiz-adv-x="672" 
d="M95 710h483q12 0 12 -13v-684q0 -13 -12 -13h-21q-13 0 -13 13v654h-416v-654q0 -13 -12 -13h-21q-13 0 -13 13v684q0 13 13 13z" />
    <glyph glyph-name="uni0420" unicode="&#x420;" horiz-adv-x="618" 
d="M95 710h269q103 0 161 -58q60 -58 60 -160q0 -100 -59 -159q-60 -57 -162 -57h-236v-263q0 -13 -12 -13h-21q-13 0 -13 13v684q0 13 13 13zM128 319h232q83 0 129 46q48 47 48 127q0 82 -48 129q-46 46 -129 46h-232v-348z" />
    <glyph glyph-name="uni0421" unicode="&#x421;" horiz-adv-x="634" 
d="M61 233v245q0 115 68 180q71 66 201 66q210 0 263 -174q3 -11 -9 -17l-18 -6q-12 -3 -17 8q-22 75 -72 110q-53 36 -147 36q-108 0 -167 -54q-56 -53 -56 -148v-247q0 -96 57 -148q58 -55 166 -55q97 0 150 38q47 35 71 113q5 13 17 8l19 -7q12 -5 8 -16
q-53 -179 -265 -179q-130 0 -200 66q-69 64 -69 181z" />
    <glyph glyph-name="uni0422" unicode="&#x422;" horiz-adv-x="532" 
d="M26 710h480q13 0 13 -13v-18q0 -12 -13 -12h-217v-654q0 -13 -12 -13h-21q-13 0 -13 13v654h-217q-13 0 -13 12v18q0 13 13 13z" />
    <glyph glyph-name="uni0423" unicode="&#x423;" horiz-adv-x="582" 
d="M544 710h21q13 0 7 -13l-346 -686q-6 -11 -22 -11h-23q-13 0 -7 13l97 188l-264 496q-6 13 7 13h22q16 0 24 -11l235 -448l226 448q6 11 23 11z" />
    <glyph glyph-name="uni0424" unicode="&#x424;" horiz-adv-x="824" 
d="M401 735h21q13 0 13 -13v-72h69q130 0 201 -68q69 -66 69 -186v-77q0 -120 -69 -186q-71 -68 -201 -68h-69v-72q0 -13 -13 -13h-21q-12 0 -12 13v72h-69q-130 0 -201 68q-69 66 -69 186v77q0 120 69 186q71 68 201 68h69v72q0 13 12 13zM389 608h-69q-108 0 -167 -56
q-56 -56 -56 -155v-79q0 -99 56 -155q59 -56 167 -56h69v501zM727 318v79q0 99 -56 155q-59 56 -167 56h-69v-501h69q108 0 167 56q56 56 56 155z" />
    <glyph glyph-name="uni0425" unicode="&#x425;" horiz-adv-x="607" 
d="M333 361l256 -346q11 -15 -5 -15h-26q-16 0 -24 11l-232 314l-230 -314q-8 -11 -24 -11h-25q-15 0 -6 15l257 345l-250 338q-7 12 7 12h26q15 0 23 -11l224 -302l223 302q8 11 23 11h26q16 0 6 -12z" />
    <glyph glyph-name="uni0426" unicode="&#x426;" horiz-adv-x="689" 
d="M587 43h68q12 0 12 -12v-171q0 -13 -12 -13h-20q-13 0 -13 13v140h-527q-13 0 -13 13v684q0 13 13 13h21q12 0 12 -13v-654h413v654q0 13 12 13h21q13 0 13 -13v-654z" />
    <glyph glyph-name="uni0427" unicode="&#x427;" horiz-adv-x="623" 
d="M507 710h21q13 0 13 -13v-684q0 -13 -13 -13h-21q-13 0 -13 13v281q-87 -22 -203 -22q-133 0 -193 64q-56 59 -56 181v180q0 13 12 13h22q12 0 12 -13v-180q0 -103 45 -150q48 -52 160 -52q114 0 201 23v359q0 13 13 13z" />
    <glyph glyph-name="uni0428" unicode="&#x428;" horiz-adv-x="904" 
d="M788 710h21q13 0 13 -13v-684q0 -13 -13 -13h-714q-13 0 -13 13v684q0 13 13 13h21q12 0 12 -13v-654h301v654q0 13 12 13h22q12 0 12 -13v-654h301v654q0 13 12 13z" />
    <glyph glyph-name="uni0429" unicode="&#x429;" horiz-adv-x="925" 
d="M822 43h69q13 0 13 -12v-171q0 -13 -13 -13h-19q-13 0 -13 13v140h-764q-13 0 -13 13v684q0 13 13 13h21q12 0 12 -13v-654h301v654q0 13 12 13h22q12 0 12 -13v-654h301v654q0 13 12 13h21q13 0 13 -13v-654z" />
    <glyph glyph-name="uni042A" unicode="&#x42a;" horiz-adv-x="722" 
d="M232 434h236q102 0 162 -57q59 -59 59 -159q0 -101 -59 -160q-58 -58 -162 -58h-269q-13 0 -13 13v654h-161q-12 0 -12 12v18q0 13 12 13h195q12 0 12 -13v-263zM232 43h232q83 0 129 46q48 47 48 129q0 80 -48 127q-46 46 -129 46h-232v-348z" />
    <glyph glyph-name="uni042B" unicode="&#x42b;" horiz-adv-x="841" 
d="M364 0h-269q-13 0 -13 13v684q0 13 13 13h21q12 0 12 -13v-263h236q102 0 162 -57q59 -59 59 -159q0 -102 -60 -160q-58 -58 -161 -58zM713 13v684q0 13 13 13h21q12 0 12 -13v-684q0 -13 -12 -13h-21q-13 0 -13 13zM128 391v-348h232q83 0 129 46q48 47 48 129
q0 80 -48 127q-46 46 -129 46h-232z" />
    <glyph glyph-name="uni042C" unicode="&#x42c;" horiz-adv-x="618" 
d="M364 0h-269q-13 0 -13 13v684q0 13 13 13h21q12 0 12 -13v-263h236q102 0 162 -57q59 -59 59 -159q0 -102 -60 -160q-58 -58 -161 -58zM128 391v-348h232q83 0 129 46q48 47 48 129q0 80 -48 127q-46 46 -129 46h-232z" />
    <glyph glyph-name="uni042D" unicode="&#x42d;" horiz-adv-x="638" 
d="M45 551q51 173 262 173q130 0 201 -65q69 -65 69 -180v-247q0 -116 -70 -180q-71 -66 -200 -66q-213 0 -265 178q-4 12 9 16l19 7q11 4 16 -8q23 -78 72 -112q53 -38 149 -38q107 0 166 54q57 53 57 148v107h-328q-12 0 -12 12v18q0 13 12 13h328v99q0 94 -56 147
q-58 54 -167 54q-94 0 -147 -35q-50 -34 -72 -111q-5 -11 -16 -7l-19 6q-12 5 -8 17z" />
    <glyph glyph-name="uni042E" unicode="&#x42e;" horiz-adv-x="912" 
d="M320 381v98q0 115 68 180q70 65 199 65q127 0 197 -65q68 -65 68 -180v-248q0 -114 -68 -179q-69 -66 -197 -66q-130 0 -199 66q-68 63 -68 179v107h-192v-325q0 -13 -12 -13h-21q-13 0 -13 13v684q0 13 13 13h21q12 0 12 -13v-316h192zM806 232v246q0 96 -56 149
q-57 54 -163 54q-108 0 -165 -54q-56 -53 -56 -149v-246q0 -96 56 -149q57 -54 165 -54q106 0 163 54q56 53 56 149z" />
    <glyph glyph-name="uni042F" unicode="&#x42f;" horiz-adv-x="639" 
d="M54 510q0 96 54 148q53 52 149 52h287q13 0 13 -13v-684q0 -13 -13 -13h-21q-12 0 -12 13v299h-169q-109 0 -154 -95l-96 -206q-6 -11 -25 -11h-20q-14 0 -7 13l106 222q29 63 75 82q-167 20 -167 193zM511 667h-249q-75 0 -118 -41q-42 -40 -42 -116q0 -75 43 -115
q40 -40 117 -40h249v312z" />
    <glyph glyph-name="uni0430" unicode="&#x430;" horiz-adv-x="509" 
d="M57 421q55 106 197 106q194 0 194 -195v-263q0 -42 -36 -57q-61 -26 -159 -26q-123 0 -171 39q-42 35 -42 113q0 83 50 118q50 33 167 33q40 0 148 -11v55q0 72 -29 109q-36 46 -124 46q-112 0 -157 -85q-6 -9 -16 -5l-16 6q-12 6 -6 17zM405 79v163q-115 11 -152 11
q-93 0 -131 -26t-38 -88q0 -60 32 -86q37 -31 134 -31q80 0 132 20q23 11 23 37z" />
    <glyph glyph-name="uni0431" unicode="&#x431;" horiz-adv-x="551" 
d="M336 733h37q55 0 81 14q12 4 16 -7l6 -16q3 -10 -7 -16q-28 -16 -95 -16h-38q-132 0 -182 -56q-47 -55 -47 -196v-25q59 89 183 89q100 0 156 -51q54 -49 54 -140v-136q0 -91 -55 -140q-55 -51 -163 -51q-106 0 -161 51q-55 49 -55 140v254q0 167 57 233q60 69 213 69z
M457 177v136q0 152 -175 152q-74 0 -126 -41q-37 -31 -47 -63v-184q0 -71 44 -112q44 -40 129 -40q175 0 175 152z" />
    <glyph glyph-name="uni0432" unicode="&#x432;" horiz-adv-x="531" 
d="M468 382q0 -82 -66 -114q84 -30 84 -129q0 -64 -38 -102q-37 -37 -104 -37h-261q-12 0 -12 12v488q0 12 12 12h247q138 0 138 -130zM114 283h215q44 0 69 25q27 26 27 72q0 95 -101 95h-210v-192zM114 37h223q105 0 105 105t-107 105h-221v-210z" />
    <glyph glyph-name="uni0433" unicode="&#x433;" horiz-adv-x="424" 
d="M82 512h314q11 0 11 -11v-17q0 -11 -11 -11h-282v-461q0 -12 -12 -12h-20q-11 0 -11 12v489q0 11 11 11z" />
    <glyph glyph-name="uni0434" unicode="&#x434;" horiz-adv-x="582" 
d="M489 40h61q11 0 11 -12v-155q0 -12 -11 -12h-19q-12 0 -12 12v127h-464v-127q0 -12 -12 -12h-18q-12 0 -12 12v155q0 12 12 12h35q74 62 74 300v161q0 11 12 11h332q11 0 11 -11v-461zM176 473v-135q0 -230 -64 -298h335v433h-271z" />
    <glyph glyph-name="uni0435" unicode="&#x435;" horiz-adv-x="527" 
d="M51 183v135q0 98 55 153q56 56 161 56q107 0 162 -57q54 -56 54 -150v-51q0 -22 -23 -22h-366v-68q0 -156 167 -156q123 0 177 98q8 11 18 5l14 -8q12 -6 4 -18q-62 -114 -213 -114q-103 0 -159 54q-51 51 -51 143zM440 282v40q0 79 -43 122q-45 45 -130 45t-130 -45
q-43 -43 -43 -122v-40h346z" />
    <glyph glyph-name="uni0436" unicode="&#x436;" horiz-adv-x="742" 
d="M362 512h18q12 0 12 -11v-218h111l156 220q6 9 24 9h17q17 0 8 -13l-164 -227q49 -15 80 -76l91 -183q7 -13 -6 -13h-20q-15 0 -19 10l-83 168q-31 66 -106 66h-89v-232q0 -12 -12 -12h-18q-13 0 -13 12v232h-88q-75 0 -106 -66l-83 -168q-4 -10 -19 -10h-20q-13 0 -7 13
l92 183q31 61 79 76l-163 227q-9 13 7 13h18q17 0 23 -9l157 -220h110v218q0 11 13 11z" />
    <glyph glyph-name="uni0437" unicode="&#x437;" horiz-adv-x="512" 
d="M42 395q14 41 48 72q63 60 167 60q97 0 150 -42q47 -39 47 -103q0 -87 -77 -116v-2q88 -25 88 -128q0 -150 -205 -150q-169 0 -225 140q-4 12 8 16l17 5q11 4 16 -8q44 -114 185 -114q159 0 159 114q0 105 -120 105h-115q-11 0 -11 13v12q0 12 11 12h113q112 0 112 98
q0 49 -36 77q-41 32 -117 32q-87 0 -137 -50q-10 -10 -37 -56q-4 -13 -17 -9l-16 5q-13 5 -8 17z" />
    <glyph glyph-name="uni0438" unicode="&#x438;" horiz-adv-x="562" 
d="M82 512h20q12 0 12 -11v-340q0 -51 -6 -101h1q22 35 50 73l290 374q5 5 11 5h20q11 0 11 -11v-489q0 -12 -11 -12h-20q-12 0 -12 12v330q0 54 7 109h-2l-54 -76l-285 -368q-4 -7 -12 -7h-20q-11 0 -11 12v489q0 11 11 11z" />
    <glyph glyph-name="uni0439" unicode="&#x439;" horiz-adv-x="562" 
d="M433 702q-33 -111 -150 -111q-119 0 -150 111q-3 9 5 12l17 6q8 2 12 -5q22 -91 116 -91q91 0 116 91q3 8 11 5l17 -6q7 -4 6 -12zM82 512h20q12 0 12 -11v-340q0 -51 -6 -101h1q22 35 50 73l290 374q5 5 11 5h20q11 0 11 -11v-489q0 -12 -11 -12h-20q-12 0 -12 12v330
q0 54 7 109h-2l-54 -76l-285 -368q-4 -7 -12 -7h-20q-11 0 -11 12v489q0 11 11 11z" />
    <glyph glyph-name="uni043A" unicode="&#x43a;" horiz-adv-x="514" 
d="M398 196l92 -183q6 -13 -7 -13h-20q-15 0 -19 10l-83 168q-31 66 -106 66h-141v-232q0 -12 -12 -12h-19q-12 0 -12 12v489q0 11 12 11h19q12 0 12 -11v-218h146l174 220q6 9 23 9h18q17 0 7 -13l-178 -223q61 -12 94 -80z" />
    <glyph glyph-name="uni043B" unicode="&#x43b;" horiz-adv-x="534" 
d="M126 512h325q12 0 12 -11v-489q0 -12 -12 -12h-20q-11 0 -11 12v460h-264v-145q0 -175 -39 -256q-29 -56 -91 -84q-9 -4 -14 5l-10 20q-5 8 5 13q51 24 73 67q35 72 35 237v172q0 11 11 11z" />
    <glyph glyph-name="uni043C" unicode="&#x43c;" horiz-adv-x="636" 
d="M536 512h17q13 0 13 -13v-487q0 -12 -13 -12h-15q-13 0 -13 12v319q0 52 7 115h-2q-18 -37 -49 -93l-140 -248q-4 -10 -16 -10h-10q-11 0 -17 10l-139 243q-17 30 -52 99h-2q6 -85 6 -124v-311q0 -12 -11 -12h-17q-12 0 -12 12v487q0 13 13 13h14q12 0 18 -10l204 -359
l201 358q5 11 15 11z" />
    <glyph glyph-name="uni043D" unicode="&#x43d;" horiz-adv-x="557" 
d="M455 512h20q11 0 11 -11v-489q0 -12 -11 -12h-20q-12 0 -12 12v232h-329v-232q0 -12 -12 -12h-20q-11 0 -11 12v489q0 11 11 11h20q12 0 12 -11v-218h329v218q0 11 12 11z" />
    <glyph glyph-name="uni043E" unicode="&#x43e;" horiz-adv-x="537" 
d="M54 161v190q0 81 58 129q59 47 156 47q98 0 157 -47q58 -46 58 -129v-190q0 -82 -58 -128q-59 -47 -157 -47q-97 0 -156 47q-58 46 -58 128zM440 161v191q0 62 -47 100q-47 36 -125 36t-124 -36q-47 -38 -47 -100v-191q0 -61 47 -99q46 -37 124 -37q79 0 125 37
q47 36 47 99z" />
    <glyph glyph-name="uni043F" unicode="&#x43f;" horiz-adv-x="552" 
d="M82 512h388q11 0 11 -11v-489q0 -12 -11 -12h-20q-11 0 -11 12v461h-325v-461q0 -12 -12 -12h-20q-11 0 -11 12v489q0 11 11 11z" />
    <glyph glyph-name="uni0440" unicode="&#x440;" horiz-adv-x="534" 
d="M108 498q73 29 167 29q206 0 206 -200v-147q0 -194 -197 -194q-84 0 -173 43v-237q0 -12 -11 -12h-20q-12 0 -12 12v651q0 39 40 55zM438 181v145q0 161 -168 161q-71 0 -134 -23q-25 -10 -25 -34v-361q90 -44 171 -44q156 0 156 156z" />
    <glyph glyph-name="uni0441" unicode="&#x441;" horiz-adv-x="513" 
d="M53 180v153q0 92 53 142q55 52 160 52q165 0 206 -137q5 -12 -7 -17l-17 -6q-11 -4 -16 8q-35 113 -168 113q-82 0 -126 -41q-43 -40 -43 -112v-156q0 -73 43 -113q46 -41 126 -41q135 0 170 119q5 12 16 8l18 -6q12 -4 7 -16q-43 -144 -211 -144q-103 0 -158 52
q-53 50 -53 142z" />
    <glyph glyph-name="uni0442" unicode="&#x442;" horiz-adv-x="441" 
d="M26 512h389q12 0 12 -11v-17q0 -11 -12 -11h-172v-461q0 -12 -12 -12h-19q-12 0 -12 12v461h-174q-11 0 -11 11v17q0 11 11 11z" />
    <glyph glyph-name="uni0443" unicode="&#x443;" horiz-adv-x="549" 
d="M447 512h20q11 0 11 -11v-538q0 -216 -208 -216q-138 0 -195 113q-9 13 5 19l13 7q11 6 19 -5q48 -95 157 -95q166 0 166 175v65q-89 -33 -175 -33q-194 0 -194 193v315q0 11 12 11h19q12 0 12 -11v-313q0 -156 155 -156q87 0 171 34v435q0 11 12 11z" />
    <glyph glyph-name="uni0444" unicode="&#x444;" horiz-adv-x="738" 
d="M391 728v-207q43 4 83 6q212 0 212 -202v-138q0 -201 -212 -201q-53 2 -83 6v-200q0 -12 -12 -12h-19q-12 0 -12 12v200q-28 -4 -84 -6q-212 0 -212 201v131q0 114 67 166q53 43 145 43q40 -1 84 -6v207q0 12 12 12h19q12 0 12 -12zM95 317v-129q0 -162 170 -162
q31 0 84 5v451q-53 5 -84 5q-67 0 -111 -32q-59 -44 -59 -138zM642 188v136q0 163 -170 163q-30 0 -82 -5v-451q52 -5 82 -5q170 0 170 162z" />
    <glyph glyph-name="uni0445" unicode="&#x445;" horiz-adv-x="477" 
d="M419 512h20q16 0 7 -12l-181 -237l193 -251q8 -12 -8 -12h-21q-13 0 -20 10l-172 223l-171 -223q-6 -10 -20 -10h-20q-15 0 -8 12l193 252l-184 236q-7 12 9 12h20q14 0 20 -9l162 -209l161 209q7 9 20 9z" />
    <glyph glyph-name="uni0446" unicode="&#x446;" horiz-adv-x="567" 
d="M474 40h61q11 0 11 -12v-155q0 -12 -11 -12h-19q-12 0 -12 12v127h-422q-11 0 -11 12v489q0 11 11 11h20q12 0 12 -11v-461h318v461q0 11 11 11h20q11 0 11 -11v-461z" />
    <glyph glyph-name="uni0447" unicode="&#x447;" horiz-adv-x="505" 
d="M37 370v131q0 11 11 11h20q12 0 12 -11v-130q0 -73 39 -106q37 -33 122 -33q61 0 150 26v243q0 11 12 11h20q11 0 11 -11v-489q0 -12 -11 -12h-20q-12 0 -12 12v205q-79 -24 -155 -24q-199 0 -199 177z" />
    <glyph glyph-name="uni0448" unicode="&#x448;" horiz-adv-x="759" 
d="M657 512h19q12 0 12 -11v-489q0 -12 -12 -12h-594q-11 0 -11 12v489q0 11 11 11h20q12 0 12 -11v-461h244v461q0 11 12 11h19q12 0 12 -11v-461h244v461q0 11 12 11z" />
    <glyph glyph-name="uni0449" unicode="&#x449;" horiz-adv-x="779" 
d="M688 40h59q11 0 11 -12v-155q0 -12 -11 -12h-19q-12 0 -12 12v127h-634q-11 0 -11 12v489q0 11 11 11h20q12 0 12 -11v-461h244v461q0 11 12 11h19q12 0 12 -11v-461h244v461q0 11 12 11h19q12 0 12 -11v-461z" />
    <glyph glyph-name="uni044A" unicode="&#x44a;" horiz-adv-x="610" 
d="M209 342h194q82 0 129 -44q46 -43 46 -126t-46 -128q-47 -44 -129 -44h-225q-12 0 -12 12v461h-140q-12 0 -12 11v17q0 11 12 11h172q11 0 11 -11v-159zM209 39h189q136 0 136 133q0 131 -136 131h-189v-264z" />
    <glyph glyph-name="uni044B" unicode="&#x44b;" horiz-adv-x="693" 
d="M114 342h194q81 0 128 -44q46 -43 46 -126t-46 -128q-47 -44 -128 -44h-226q-11 0 -11 12v489q0 11 11 11h20q12 0 12 -11v-159zM591 512h20q11 0 11 -11v-489q0 -12 -11 -12h-20q-11 0 -11 12v489q0 11 11 11zM114 39h189q135 0 135 133q0 131 -135 131h-189v-264z" />
    <glyph glyph-name="uni044C" unicode="&#x44c;" horiz-adv-x="514" 
d="M114 342h194q81 0 128 -44q46 -43 46 -126t-46 -128q-47 -44 -128 -44h-226q-11 0 -11 12v489q0 11 11 11h20q12 0 12 -11v-159zM114 39h189q135 0 135 133q0 131 -135 131h-189v-264z" />
    <glyph glyph-name="uni044D" unicode="&#x44d;" horiz-adv-x="511" 
d="M38 390q41 137 206 137q105 0 160 -52q53 -50 53 -142v-153q0 -91 -53 -142q-55 -52 -158 -52q-168 0 -211 145q-3 10 8 16l17 5q12 5 17 -8q35 -119 169 -119q81 0 125 41q43 40 43 113v63l-230 1q-12 0 -12 11v16q0 12 12 12h230v53q0 153 -168 153q-132 0 -167 -113
q-5 -12 -16 -8l-17 6q-12 5 -8 17z" />
    <glyph glyph-name="uni044E" unicode="&#x44e;" horiz-adv-x="741" 
d="M265 280v73q0 81 57 128q55 46 153 46q99 0 154 -46q56 -47 56 -128v-194q0 -80 -56 -127q-55 -46 -154 -46q-98 0 -153 46q-57 46 -57 127v81h-151v-228q0 -12 -12 -12h-20q-11 0 -11 12v489q0 11 11 11h20q12 0 12 -11v-221h151zM642 158v196q0 62 -46 98
q-45 36 -121 36t-121 -36q-46 -36 -46 -98v-196q0 -62 46 -98q46 -35 121 -35t121 35q46 36 46 98z" />
    <glyph glyph-name="uni044F" unicode="&#x44f;" horiz-adv-x="524" 
d="M207 512h234q12 0 12 -12v-488q0 -12 -11 -12h-20q-12 0 -12 12v182h-192l-126 -184q-6 -10 -21 -10h-19q-17 0 -8 14l129 185q-128 18 -128 153q0 74 44 118q43 42 118 42zM410 474h-199q-55 0 -89 -32q-33 -33 -33 -90q0 -56 33 -87q34 -32 89 -32h199v241z" />
    <glyph glyph-name="uni0451" unicode="&#x451;" horiz-adv-x="527" 
d="M168 677h6q23 0 23 -23v-7q0 -22 -23 -22h-6q-23 0 -23 22v7q0 23 23 23zM360 677h5q23 0 23 -23v-7q0 -22 -23 -22h-5q-24 0 -24 22v7q0 23 24 23zM51 183v135q0 98 55 153q56 56 161 56q107 0 162 -57q54 -56 54 -150v-51q0 -22 -23 -22h-366v-68q0 -156 167 -156
q123 0 177 98q8 11 18 5l14 -8q12 -6 4 -18q-62 -114 -213 -114q-103 0 -159 54q-51 51 -51 143zM440 282v40q0 79 -43 122q-45 45 -130 45t-130 -45q-43 -43 -43 -122v-40h346z" />
    <glyph glyph-name="Wgrave" unicode="&#x1e80;" horiz-adv-x="870" 
d="M335 875l9 11q8 10 23 2l172 -102q8 -7 1 -14l-7 -8q-4 -6 -16 -1l-180 98q-12 4 -2 14zM816 710h22q12 0 8 -12l-185 -686q-5 -12 -17 -12h-20q-15 0 -17 11l-149 527q-11 39 -21 91h-3q-9 -47 -22 -91l-149 -526q-1 -12 -17 -12h-19q-15 0 -17 11l-186 687q-3 12 8 12
h25q15 0 17 -11l143 -538q4 -12 10 -49l10 -46h2l10 45l12 49l149 523q2 12 17 12h20q15 0 17 -12l149 -525l21 -92h3l18 92l144 541q2 11 17 11z" />
    <glyph glyph-name="wgrave" unicode="&#x1e81;" horiz-adv-x="729" 
d="M263 703l10 11q8 11 22 1l170 -106q8 -7 1 -14l-7 -8q-4 -6 -16 -1l-178 102q-10 4 -2 15zM680 512h14q13 0 9 -13l-154 -492q-5 -12 -16 -12h-15q-11 0 -16 12l-118 361l-20 76h-3l-9 -33q-6 -24 -12 -43l-116 -361q-4 -12 -16 -12h-15q-11 0 -15 12l-154 492
q-4 13 9 13h15q17 0 20 -12l109 -353q3 -8 13 -51q9 -37 11 -43h2q4 9 12 43q2 8 14 52l111 337q4 12 19 12h10q13 0 18 -11l110 -334l16 -54q7 -34 12 -45h2q2 6 11 43l14 55l108 350q3 11 20 11z" />
    <glyph glyph-name="Wacute" unicode="&#x1e82;" horiz-adv-x="870" 
d="M338 788l169 107q15 8 23 -2l9 -11q10 -10 -2 -15l-177 -102q-10 -5 -16 1l-7 8q-7 7 1 14zM816 710h22q12 0 8 -12l-185 -686q-5 -12 -17 -12h-20q-15 0 -17 11l-149 527q-11 39 -21 91h-3q-9 -47 -22 -91l-149 -526q-1 -12 -17 -12h-19q-15 0 -17 11l-186 687
q-3 12 8 12h25q15 0 17 -11l143 -538q4 -12 10 -49l10 -46h2l10 45l12 49l149 523q2 12 17 12h20q15 0 17 -12l149 -525l21 -92h3l18 92l144 541q2 11 17 11z" />
    <glyph glyph-name="wacute" unicode="&#x1e83;" horiz-adv-x="729" 
d="M265 609l169 106q16 8 23 -1l9 -11q10 -10 -2 -15l-177 -102q-12 -5 -16 1l-7 8q-7 7 1 14zM680 512h14q13 0 9 -13l-154 -492q-5 -12 -16 -12h-15q-11 0 -16 12l-118 361l-20 76h-3l-9 -33q-6 -24 -12 -43l-116 -361q-4 -12 -16 -12h-15q-11 0 -15 12l-154 492
q-4 13 9 13h15q17 0 20 -12l109 -353q3 -8 13 -51q9 -37 11 -43h2q4 9 12 43q2 8 14 52l111 337q4 12 19 12h10q13 0 18 -11l110 -334l16 -54q7 -34 12 -45h2q2 6 11 43l14 55l108 350q3 11 20 11z" />
    <glyph glyph-name="Wdieresis" unicode="&#x1e84;" horiz-adv-x="870" 
d="M339 853h6q23 0 23 -23v-7q0 -22 -23 -22h-6q-23 0 -23 22v7q0 23 23 23zM530 853h6q23 0 23 -23v-7q0 -22 -23 -22h-6q-23 0 -23 22v7q0 23 23 23zM816 710h22q12 0 8 -12l-185 -686q-5 -12 -17 -12h-20q-15 0 -17 11l-149 527q-11 39 -21 91h-3q-9 -47 -22 -91
l-149 -526q-1 -12 -17 -12h-19q-15 0 -17 11l-186 687q-3 12 8 12h25q15 0 17 -11l143 -538q4 -12 10 -49l10 -46h2l10 45l12 49l149 523q2 12 17 12h20q15 0 17 -12l149 -525l21 -92h3l18 92l144 541q2 11 17 11z" />
    <glyph glyph-name="wdieresis" unicode="&#x1e85;" horiz-adv-x="729" 
d="M266 676h6q23 0 23 -23v-7q0 -22 -23 -22h-6q-23 0 -23 22v7q0 23 23 23zM457 676h6q23 0 23 -23v-7q0 -22 -23 -22h-6q-23 0 -23 22v7q0 23 23 23zM680 512h14q13 0 9 -13l-154 -492q-5 -12 -16 -12h-15q-11 0 -16 12l-118 361l-20 76h-3l-9 -33q-6 -24 -12 -43
l-116 -361q-4 -12 -16 -12h-15q-11 0 -15 12l-154 492q-4 13 9 13h15q17 0 20 -12l109 -353q3 -8 13 -51q9 -37 11 -43h2q4 9 12 43q2 8 14 52l111 337q4 12 19 12h10q13 0 18 -11l110 -334l16 -54q7 -34 12 -45h2q2 6 11 43l14 55l108 350q3 11 20 11z" />
    <glyph glyph-name="uni1EA0" unicode="&#x1ea0;" horiz-adv-x="632" 
d="M341 703l277 -691q4 -12 -10 -12h-18q-20 0 -22 11l-89 221h-332l-88 -221q-5 -11 -23 -11h-17q-13 0 -9 12l277 691q5 12 17 12h20q12 0 17 -12zM466 271l-142 355q-2 6 -10 43h-3q0 -19 -8 -43l-142 -355h305zM313 -86h5q28 0 28 -27v-6q0 -27 -28 -27h-5q-27 0 -27 27
v6q0 27 27 27z" />
    <glyph glyph-name="uni1EA1" unicode="&#x1ea1;" horiz-adv-x="509" 
d="M57 421q55 106 197 106q194 0 194 -195v-263q0 -42 -36 -57q-61 -26 -159 -26q-123 0 -171 39q-42 35 -42 113q0 83 50 118q50 33 167 33q40 0 148 -11v55q0 72 -29 109q-36 46 -124 46q-112 0 -157 -85q-6 -9 -16 -5l-16 6q-12 6 -6 17zM405 79v163q-115 11 -152 11
q-93 0 -131 -26t-38 -88q0 -60 32 -86q37 -31 134 -31q80 0 132 20q23 11 23 37zM241 -86h5q28 0 28 -27v-6q0 -27 -28 -27h-5q-27 0 -27 27v6q0 27 27 27z" />
    <glyph glyph-name="uni1EA2" unicode="&#x1ea2;" horiz-adv-x="632" 
d="M341 703l277 -691q4 -12 -10 -12h-18q-20 0 -22 11l-89 221h-332l-88 -221q-5 -11 -23 -11h-17q-13 0 -9 12l277 691q5 12 17 12h20q12 0 17 -12zM466 271l-142 355q-2 6 -10 43h-3q0 -19 -8 -43l-142 -355h305zM313 776h-28q-7 4 8 14q20 18 32 31q19 19 16 44
q-2 23 -26 30q-25 7 -52 -7q-6 -2 -9 0t-2 7l-2 11q-2 8 5 11q37 19 79 9q48 -14 48 -54q3 -36 -19 -61q-20 -23 -33 -29q-8 -5 -17 -6z" />
    <glyph glyph-name="uni1EA3" unicode="&#x1ea3;" horiz-adv-x="509" 
d="M57 421q55 106 197 106q194 0 194 -195v-263q0 -42 -36 -57q-61 -26 -159 -26q-123 0 -171 39q-42 35 -42 113q0 83 50 118q50 33 167 33q40 0 148 -11v55q0 72 -29 109q-36 46 -124 46q-112 0 -157 -85q-6 -9 -16 -5l-16 6q-12 6 -6 17zM405 79v163q-115 11 -152 11
q-93 0 -131 -26t-38 -88q0 -60 32 -86q37 -31 134 -31q80 0 132 20q23 11 23 37zM254 578h-28q-7 4 8 14q20 18 32 31q19 19 16 44q-2 23 -26 30q-25 7 -52 -7q-6 -2 -9 0t-2 7l-2 11q-2 8 5 11q37 19 79 9q48 -14 48 -54q3 -36 -19 -61q-20 -23 -33 -29q-8 -5 -17 -6z" />
    <glyph glyph-name="uni1EA4" unicode="&#x1ea4;" horiz-adv-x="632" 
d="M341 703l277 -691q4 -12 -10 -12h-18q-20 0 -22 11l-89 221h-332l-88 -221q-5 -11 -23 -11h-17q-13 0 -9 12l277 691q5 12 17 12h20q12 0 17 -12zM466 271l-142 355q-2 6 -10 43h-3q0 -19 -8 -43l-142 -355h305zM317 897h5q10 0 24 -11l132 -113q10 -10 -6 -10h-18
q-14 0 -21 7l-114 95l-116 -95q-7 -7 -19 -7h-19q-16 0 -6 10l134 113q13 11 24 11zM192 923l169 107q15 7 23 -1l9 -11q9 -10 -2 -15l-177 -103q-11 -4 -16 2l-7 8q-8 8 1 13z" />
    <glyph glyph-name="uni1EA5" unicode="&#x1ea5;" horiz-adv-x="509" 
d="M57 421q55 106 197 106q194 0 194 -195v-263q0 -42 -36 -57q-61 -26 -159 -26q-123 0 -171 39q-42 35 -42 113q0 83 50 118q50 33 167 33q40 0 148 -11v55q0 72 -29 109q-36 46 -124 46q-112 0 -157 -85q-6 -9 -16 -5l-16 6q-12 6 -6 17zM405 79v163q-115 11 -152 11
q-93 0 -131 -26t-38 -88q0 -60 32 -86q37 -31 134 -31q80 0 132 20q23 11 23 37zM245 720h5q10 0 24 -11l132 -113q10 -10 -6 -10h-18q-14 0 -21 7l-114 95l-116 -95q-7 -7 -19 -7h-19q-16 0 -6 10l134 113q13 11 24 11zM169 761l169 107q15 7 23 -1l9 -11q9 -10 -2 -15
l-177 -103q-11 -4 -16 2l-7 8q-8 8 1 13z" />
    <glyph glyph-name="uni1EA6" unicode="&#x1ea6;" horiz-adv-x="632" 
d="M341 703l277 -691q4 -12 -10 -12h-18q-20 0 -22 11l-89 221h-332l-88 -221q-5 -11 -23 -11h-17q-13 0 -9 12l277 691q5 12 17 12h20q12 0 17 -12zM466 271l-142 355q-2 6 -10 43h-3q0 -19 -8 -43l-142 -355h305zM317 896h5q10 0 24 -11l132 -113q10 -10 -6 -10h-18
q-14 0 -21 7l-114 95l-116 -95q-7 -7 -19 -7h-19q-16 0 -6 10l134 113q13 11 24 11zM236 1021l10 11q8 8 22 1l169 -107q10 -5 2 -13l-7 -8q-5 -7 -16 -2l-178 103q-10 4 -2 15z" />
    <glyph glyph-name="uni1EA7" unicode="&#x1ea7;" horiz-adv-x="509" 
d="M57 421q55 106 197 106q194 0 194 -195v-263q0 -42 -36 -57q-61 -26 -159 -26q-123 0 -171 39q-42 35 -42 113q0 83 50 118q50 33 167 33q40 0 148 -11v55q0 72 -29 109q-36 46 -124 46q-112 0 -157 -85q-6 -9 -16 -5l-16 6q-12 6 -6 17zM405 79v163q-115 11 -152 11
q-93 0 -131 -26t-38 -88q0 -60 32 -86q37 -31 134 -31q80 0 132 20q23 11 23 37zM245 720h5q10 0 24 -11l132 -113q10 -10 -6 -10h-18q-14 0 -21 7l-114 95l-116 -95q-7 -7 -19 -7h-19q-16 0 -6 10l134 113q13 11 24 11zM136 842l10 11q8 8 22 1l169 -107q10 -5 2 -13l-7 -8
q-5 -7 -16 -2l-178 103q-10 4 -2 15z" />
    <glyph glyph-name="uni1EA8" unicode="&#x1ea8;" horiz-adv-x="632" 
d="M341 703l277 -691q4 -12 -10 -12h-18q-20 0 -22 11l-89 221h-332l-88 -221q-5 -11 -23 -11h-17q-13 0 -9 12l277 691q5 12 17 12h20q12 0 17 -12zM466 271l-142 355q-2 6 -10 43h-3q0 -19 -8 -43l-142 -355h305zM317 897h5q10 0 24 -11l132 -113q10 -10 -6 -10h-18
q-14 0 -21 7l-114 95l-116 -95q-7 -7 -19 -7h-19q-16 0 -6 10l134 113q13 11 24 11zM451 861h-28q-7 4 8 14q20 18 32 31q19 19 16 44q-2 23 -26 30q-25 7 -52 -7q-6 -2 -9 0t-2 7l-2 11q-2 8 5 11q37 19 79 9q48 -13 48 -54q3 -36 -19 -61q-20 -23 -33 -29q-8 -5 -17 -6z
" />
    <glyph glyph-name="uni1EA9" unicode="&#x1ea9;" horiz-adv-x="509" 
d="M57 421q55 106 197 106q194 0 194 -195v-263q0 -42 -36 -57q-61 -26 -159 -26q-123 0 -171 39q-42 35 -42 113q0 83 50 118q50 33 167 33q40 0 148 -11v55q0 72 -29 109q-36 46 -124 46q-112 0 -157 -85q-6 -9 -16 -5l-16 6q-12 6 -6 17zM405 79v163q-115 11 -152 11
q-93 0 -131 -26t-38 -88q0 -60 32 -86q37 -31 134 -31q80 0 132 20q23 11 23 37zM245 720h5q10 0 24 -11l132 -113q10 -10 -6 -10h-18q-14 0 -21 7l-114 95l-116 -95q-7 -7 -19 -7h-19q-16 0 -6 10l134 113q13 11 24 11zM359 697h-28q-7 4 8 14q20 18 32 31q19 19 16 44
q-2 23 -26 30q-25 7 -52 -7q-6 -2 -9 0t-2 7l-2 11q-2 8 5 11q37 19 79 9q48 -13 48 -54q3 -36 -19 -61q-20 -23 -33 -29q-8 -5 -17 -6z" />
    <glyph glyph-name="uni1EAA" unicode="&#x1eaa;" horiz-adv-x="632" 
d="M341 703l277 -691q4 -12 -10 -12h-18q-20 0 -22 11l-89 221h-332l-88 -221q-5 -11 -23 -11h-17q-13 0 -9 12l277 691q5 12 17 12h20q12 0 17 -12zM466 271l-142 355q-2 6 -10 43h-3q0 -19 -8 -43l-142 -355h305zM319 898h5q10 0 24 -11l132 -113q10 -10 -6 -10h-18
q-14 0 -21 7l-114 95l-116 -95q-7 -7 -19 -7h-19q-16 0 -6 10l134 113q13 11 24 11zM483 1015h14q8 0 8 -8q0 -94 -75 -94q-36 0 -82 36q-45 36 -74 36q-48 0 -48 -64q0 -8 -8 -8h-14q-8 0 -8 8q0 94 75 94q37 0 84 -36q45 -36 73 -36q47 0 47 64q0 8 8 8z" />
    <glyph glyph-name="uni1EAB" unicode="&#x1eab;" horiz-adv-x="509" 
d="M57 421q55 106 197 106q194 0 194 -195v-263q0 -42 -36 -57q-61 -26 -159 -26q-123 0 -171 39q-42 35 -42 113q0 83 50 118q50 33 167 33q40 0 148 -11v55q0 72 -29 109q-36 46 -124 46q-112 0 -157 -85q-6 -9 -16 -5l-16 6q-12 6 -6 17zM405 79v163q-115 11 -152 11
q-93 0 -131 -26t-38 -88q0 -60 32 -86q37 -31 134 -31q80 0 132 20q23 11 23 37zM245 720h5q10 0 24 -11l132 -113q10 -10 -6 -10h-18q-14 0 -21 7l-114 95l-116 -95q-7 -7 -19 -7h-19q-16 0 -6 10l134 113q13 11 24 11zM423 829h14q8 0 8 -8q0 -94 -75 -94q-36 0 -82 36
q-45 36 -74 36q-48 0 -48 -64q0 -8 -8 -8h-14q-8 0 -8 8q0 94 75 94q37 0 84 -36q45 -36 73 -36q47 0 47 64q0 8 8 8z" />
    <glyph glyph-name="uni1EAC" unicode="&#x1eac;" horiz-adv-x="632" 
d="M341 703l277 -691q4 -12 -10 -12h-18q-20 0 -22 11l-89 221h-332l-88 -221q-5 -11 -23 -11h-17q-13 0 -9 12l277 691q5 12 17 12h20q12 0 17 -12zM466 271l-142 355q-2 6 -10 43h-3q0 -19 -8 -43l-142 -355h305zM317 918h5q10 0 24 -11l132 -113q10 -10 -6 -10h-18
q-14 0 -21 7l-114 95l-116 -95q-7 -7 -19 -7h-19q-16 0 -6 10l134 113q13 11 24 11zM313 -86h5q28 0 28 -27v-6q0 -27 -28 -27h-5q-27 0 -27 27v6q0 27 27 27z" />
    <glyph glyph-name="uni1EAD" unicode="&#x1ead;" horiz-adv-x="509" 
d="M57 421q55 106 197 106q194 0 194 -195v-263q0 -42 -36 -57q-61 -26 -159 -26q-123 0 -171 39q-42 35 -42 113q0 83 50 118q50 33 167 33q40 0 148 -11v55q0 72 -29 109q-36 46 -124 46q-112 0 -157 -85q-6 -9 -16 -5l-16 6q-12 6 -6 17zM405 79v163q-115 11 -152 11
q-93 0 -131 -26t-38 -88q0 -60 32 -86q37 -31 134 -31q80 0 132 20q23 11 23 37zM245 720h5q10 0 24 -11l132 -113q10 -10 -6 -10h-18q-14 0 -21 7l-114 95l-116 -95q-7 -7 -19 -7h-19q-16 0 -6 10l134 113q13 11 24 11zM241 -86h5q28 0 28 -27v-6q0 -27 -28 -27h-5
q-27 0 -27 27v6q0 27 27 27z" />
    <glyph glyph-name="uni1EAE" unicode="&#x1eae;" horiz-adv-x="632" 
d="M341 703l277 -691q4 -12 -10 -12h-18q-20 0 -22 11l-89 221h-332l-88 -221q-5 -11 -23 -11h-17q-13 0 -9 12l277 691q5 12 17 12h20q12 0 17 -12zM466 271l-142 355q-2 6 -10 43h-3q0 -19 -8 -43l-142 -355h305zM466 876q-32 -111 -150 -111q-117 0 -150 111q-3 9 6 12
l16 6q9 3 12 -5q25 -91 116 -91t116 91q3 8 11 5l18 -6q7 -4 5 -12zM290 938l169 107q15 7 23 -1l9 -11q9 -10 -2 -15l-177 -103q-11 -4 -16 2l-7 8q-8 8 1 13z" />
    <glyph glyph-name="uni1EAF" unicode="&#x1eaf;" horiz-adv-x="509" 
d="M57 421q55 106 197 106q194 0 194 -195v-263q0 -42 -36 -57q-61 -26 -159 -26q-123 0 -171 39q-42 35 -42 113q0 83 50 118q50 33 167 33q40 0 148 -11v55q0 72 -29 109q-36 46 -124 46q-112 0 -157 -85q-6 -9 -16 -5l-16 6q-12 6 -6 17zM405 79v163q-115 11 -152 11
q-93 0 -131 -26t-38 -88q0 -60 32 -86q37 -31 134 -31q80 0 132 20q23 11 23 37zM394 702q-32 -111 -150 -111q-117 0 -150 111q-3 9 6 12l16 6q9 3 12 -5q25 -91 116 -91t116 91q3 8 11 5l18 -6q7 -4 5 -12zM178 779l169 107q15 7 23 -1l9 -11q9 -10 -2 -15l-177 -103
q-11 -4 -16 2l-7 8q-8 8 1 13z" />
    <glyph glyph-name="uni1EB0" unicode="&#x1eb0;" horiz-adv-x="632" 
d="M341 703l277 -691q4 -12 -10 -12h-18q-20 0 -22 11l-89 221h-332l-88 -221q-5 -11 -23 -11h-17q-13 0 -9 12l277 691q5 12 17 12h20q12 0 17 -12zM466 271l-142 355q-2 6 -10 43h-3q0 -19 -8 -43l-142 -355h305zM466 876q-32 -111 -150 -111q-117 0 -150 111q-3 9 6 12
l16 6q9 3 12 -5q25 -91 116 -91t116 91q3 8 11 5l18 -6q7 -4 5 -12zM151 1024l10 11q8 8 22 1l169 -107q10 -5 2 -13l-7 -8q-5 -7 -16 -2l-178 103q-10 4 -2 15z" />
    <glyph glyph-name="uni1EB1" unicode="&#x1eb1;" horiz-adv-x="509" 
d="M57 421q55 106 197 106q194 0 194 -195v-263q0 -42 -36 -57q-61 -26 -159 -26q-123 0 -171 39q-42 35 -42 113q0 83 50 118q50 33 167 33q40 0 148 -11v55q0 72 -29 109q-36 46 -124 46q-112 0 -157 -85q-6 -9 -16 -5l-16 6q-12 6 -6 17zM405 79v163q-115 11 -152 11
q-93 0 -131 -26t-38 -88q0 -60 32 -86q37 -31 134 -31q80 0 132 20q23 11 23 37zM394 702q-32 -111 -150 -111q-117 0 -150 111q-3 9 6 12l16 6q9 3 12 -5q25 -91 116 -91t116 91q3 8 11 5l18 -6q7 -4 5 -12zM103 874l10 11q8 8 22 1l169 -107q10 -5 2 -13l-7 -8
q-5 -7 -16 -2l-178 103q-10 4 -2 15z" />
    <glyph glyph-name="uni1EB2" unicode="&#x1eb2;" horiz-adv-x="632" 
d="M341 703l277 -691q4 -12 -10 -12h-18q-20 0 -22 11l-89 221h-332l-88 -221q-5 -11 -23 -11h-17q-13 0 -9 12l277 691q5 12 17 12h20q12 0 17 -12zM466 271l-142 355q-2 6 -10 43h-3q0 -19 -8 -43l-142 -355h305zM466 876q-32 -111 -150 -111t-150 111q-3 9 6 12l16 6
q9 2 12 -5q24 -91 116 -91q91 0 116 91q1 7 11 5l18 -6q7 -4 5 -12zM316 871l-28 -1q-8 5 8 13q20 16 32 28q19 19 16 41q-2 21 -26 27q-27 6 -52 -6q-6 -2 -9 -0.5t-2 6.5l-2 10q-1 7 5 10q36 19 79 8q48 -12 48 -49q3 -32 -19 -56q-20 -20 -33 -26q-8 -5 -17 -5z" />
    <glyph glyph-name="uni1EB3" unicode="&#x1eb3;" horiz-adv-x="509" 
d="M57 421q55 106 197 106q194 0 194 -195v-263q0 -42 -36 -57q-61 -26 -159 -26q-123 0 -171 39q-42 35 -42 113q0 83 50 118q50 33 167 33q40 0 148 -11v55q0 72 -29 109q-36 46 -124 46q-112 0 -157 -85q-6 -9 -16 -5l-16 6q-12 6 -6 17zM405 79v163q-115 11 -152 11
q-93 0 -131 -26t-38 -88q0 -60 32 -86q37 -31 134 -31q80 0 132 20q23 11 23 37zM394 702q-32 -111 -150 -111q-117 0 -150 111q-3 9 6 12l16 6q9 3 12 -5q25 -91 116 -91t116 91q3 8 11 5l18 -6q7 -4 5 -12zM253 713h-28q-7 4 8 14q20 18 32 31q19 19 16 44q-2 23 -26 30
q-25 7 -52 -7q-6 -2 -9 0t-2 7l-2 11q-2 8 5 11q37 19 79 9q48 -13 48 -54q3 -36 -19 -61q-20 -23 -33 -29q-8 -5 -17 -6z" />
    <glyph glyph-name="uni1EB4" unicode="&#x1eb4;" horiz-adv-x="632" 
d="M341 703l277 -691q4 -12 -10 -12h-18q-20 0 -22 11l-89 221h-332l-88 -221q-5 -11 -23 -11h-17q-13 0 -9 12l277 691q5 12 17 12h20q12 0 17 -12zM466 271l-142 355q-2 6 -10 43h-3q0 -19 -8 -43l-142 -355h305zM456 875q-32 -111 -150 -111q-117 0 -150 111q-3 9 6 12
l16 6q9 3 12 -5q25 -91 116 -91t116 91q3 8 11 5l18 -6q7 -4 5 -12zM446 1028h14q8 0 8 -8q0 -94 -75 -94q-36 0 -82 36q-45 36 -74 36q-48 0 -48 -64q0 -8 -8 -8h-14q-8 0 -8 8q0 94 75 94q38 0 84 -36q45 -36 73 -36q47 0 47 64q0 8 8 8z" />
    <glyph glyph-name="uni1EB5" unicode="&#x1eb5;" horiz-adv-x="509" 
d="M57 421q55 106 197 106q194 0 194 -195v-263q0 -42 -36 -57q-61 -26 -159 -26q-123 0 -171 39q-42 35 -42 113q0 83 50 118q50 33 167 33q40 0 148 -11v55q0 72 -29 109q-36 46 -124 46q-112 0 -157 -85q-6 -9 -16 -5l-16 6q-12 6 -6 17zM405 79v163q-115 11 -152 11
q-93 0 -131 -26t-38 -88q0 -60 32 -86q37 -31 134 -31q80 0 132 20q23 11 23 37zM394 702q-32 -111 -150 -111q-117 0 -150 111q-3 9 6 12l16 6q9 3 12 -5q25 -91 116 -91t116 91q3 8 11 5l18 -6q7 -4 5 -12zM377 848h14q8 0 8 -8q0 -94 -75 -94q-36 0 -82 36q-45 36 -74 36
q-48 0 -48 -64q0 -8 -8 -8h-14q-8 0 -8 8q0 94 75 94q37 0 84 -36q45 -36 73 -36q47 0 47 64q0 8 8 8z" />
    <glyph glyph-name="uni1EB6" unicode="&#x1eb6;" horiz-adv-x="632" 
d="M341 703l277 -691q4 -12 -10 -12h-18q-20 0 -22 11l-89 221h-332l-88 -221q-5 -11 -23 -11h-17q-13 0 -9 12l277 691q5 12 17 12h20q12 0 17 -12zM466 271l-142 355q-2 6 -10 43h-3q0 -19 -8 -43l-142 -355h305zM466 900q-32 -111 -150 -111q-117 0 -150 111q-3 9 6 12
l16 6q9 3 12 -5q25 -91 116 -91t116 91q3 8 11 5l18 -6q7 -4 5 -12zM313 -86h5q28 0 28 -27v-6q0 -27 -28 -27h-5q-27 0 -27 27v6q0 27 27 27z" />
    <glyph glyph-name="uni1EB7" unicode="&#x1eb7;" horiz-adv-x="509" 
d="M57 421q55 106 197 106q194 0 194 -195v-263q0 -42 -36 -57q-61 -26 -159 -26q-123 0 -171 39q-42 35 -42 113q0 83 50 118q50 33 167 33q40 0 148 -11v55q0 72 -29 109q-36 46 -124 46q-112 0 -157 -85q-6 -9 -16 -5l-16 6q-12 6 -6 17zM405 79v163q-115 11 -152 11
q-93 0 -131 -26t-38 -88q0 -60 32 -86q37 -31 134 -31q80 0 132 20q23 11 23 37zM394 702q-32 -111 -150 -111q-117 0 -150 111q-3 9 6 12l16 6q9 3 12 -5q25 -91 116 -91t116 91q3 8 11 5l18 -6q7 -4 5 -12zM241 -86h5q28 0 28 -27v-6q0 -27 -28 -27h-5q-27 0 -27 27v6
q0 27 27 27z" />
    <glyph glyph-name="uni1EB8" unicode="&#x1eb8;" horiz-adv-x="570" 
d="M95 710h408q13 0 13 -13v-18q0 -12 -13 -12h-375v-286h332q12 0 12 -12v-18q0 -13 -12 -13h-332v-295h389q13 0 13 -12v-18q0 -13 -13 -13h-422q-13 0 -13 13v684q0 13 13 13zM303 -86h5q28 0 28 -27v-6q0 -27 -28 -27h-5q-27 0 -27 27v6q0 27 27 27z" />
    <glyph glyph-name="uni1EB9" unicode="&#x1eb9;" horiz-adv-x="527" 
d="M51 183v135q0 98 55 153q56 56 161 56q107 0 162 -57q54 -56 54 -150v-51q0 -22 -23 -22h-366v-68q0 -156 167 -156q123 0 177 98q8 11 18 5l14 -8q12 -6 4 -18q-62 -114 -213 -114q-103 0 -159 54q-51 51 -51 143zM440 282v40q0 79 -43 122q-45 45 -130 45t-130 -45
q-43 -43 -43 -122v-40h346zM264 -86h5q28 0 28 -27v-6q0 -27 -28 -27h-5q-27 0 -27 27v6q0 27 27 27z" />
    <glyph glyph-name="uni1EBA" unicode="&#x1eba;" horiz-adv-x="570" 
d="M95 710h408q13 0 13 -13v-18q0 -12 -13 -12h-375v-286h332q12 0 12 -12v-18q0 -13 -12 -13h-332v-295h389q13 0 13 -12v-18q0 -13 -13 -13h-422q-13 0 -13 13v684q0 13 13 13zM303 776h-28q-7 4 8 14q20 18 32 31q19 19 16 44q-2 23 -26 30q-25 7 -52 -7q-6 -2 -9 0t-2 7
l-2 11q-2 8 5 11q37 19 79 9q48 -14 48 -54q3 -36 -19 -61q-20 -23 -33 -29q-8 -5 -17 -6z" />
    <glyph glyph-name="uni1EBB" unicode="&#x1ebb;" horiz-adv-x="527" 
d="M51 183v135q0 98 55 153q56 56 161 56q107 0 162 -57q54 -56 54 -150v-51q0 -22 -23 -22h-366v-68q0 -156 167 -156q123 0 177 98q8 11 18 5l14 -8q12 -6 4 -18q-62 -114 -213 -114q-103 0 -159 54q-51 51 -51 143zM440 282v40q0 79 -43 122q-45 45 -130 45t-130 -45
q-43 -43 -43 -122v-40h346zM264 578h-28q-7 4 8 14q20 18 32 31q19 19 16 44q-2 23 -26 30q-25 7 -52 -7q-6 -2 -9 0t-2 7l-2 11q-2 8 5 11q37 19 79 9q48 -14 48 -54q3 -36 -19 -61q-20 -23 -33 -29q-8 -5 -17 -6z" />
    <glyph glyph-name="uni1EBC" unicode="&#x1ebc;" horiz-adv-x="570" 
d="M95 710h408q13 0 13 -13v-18q0 -12 -13 -12h-375v-286h332q12 0 12 -12v-18q0 -13 -12 -13h-332v-295h389q13 0 13 -12v-18q0 -13 -13 -13h-422q-13 0 -13 13v684q0 13 13 13zM439 902h14q8 0 8 -8q0 -94 -75 -94q-36 0 -82 36q-45 36 -74 36q-48 0 -48 -64q0 -8 -8 -8
h-14q-8 0 -8 8q0 94 75 94q37 0 84 -36q45 -36 73 -36q47 0 47 64q0 8 8 8z" />
    <glyph glyph-name="uni1EBD" unicode="&#x1ebd;" horiz-adv-x="527" 
d="M51 183v135q0 98 55 153q56 56 161 56q107 0 162 -57q54 -56 54 -150v-51q0 -22 -23 -22h-366v-68q0 -156 167 -156q123 0 177 98q8 11 18 5l14 -8q12 -6 4 -18q-62 -114 -213 -114q-103 0 -159 54q-51 51 -51 143zM440 282v40q0 79 -43 122q-45 45 -130 45t-130 -45
q-43 -43 -43 -122v-40h346zM400 704h14q8 0 8 -8q0 -94 -75 -94q-35 0 -82 36q-45 36 -74 36q-48 0 -48 -64q0 -8 -8 -8h-14q-8 0 -8 8q0 94 75 94q38 0 84 -36q45 -36 73 -36q47 0 47 64q0 8 8 8z" />
    <glyph glyph-name="uni1EBE" unicode="&#x1ebe;" horiz-adv-x="570" 
d="M95 710h408q13 0 13 -13v-18q0 -12 -13 -12h-375v-286h332q12 0 12 -12v-18q0 -13 -12 -13h-332v-295h389q13 0 13 -12v-18q0 -13 -13 -13h-422q-13 0 -13 13v684q0 13 13 13zM308 897h5q10 0 24 -11l132 -113q10 -10 -6 -10h-18q-14 0 -21 7l-114 95l-116 -95
q-7 -7 -19 -7h-19q-16 0 -6 10l134 113q13 11 24 11zM183 923l169 107q15 7 23 -1l9 -11q9 -10 -2 -15l-177 -103q-11 -4 -16 2l-7 8q-8 8 1 13z" />
    <glyph glyph-name="uni1EBF" unicode="&#x1ebf;" horiz-adv-x="527" 
d="M51 183v135q0 98 55 153q56 56 161 56q107 0 162 -57q54 -56 54 -150v-51q0 -22 -23 -22h-366v-68q0 -156 167 -156q123 0 177 98q8 11 18 5l14 -8q12 -6 4 -18q-62 -114 -213 -114q-103 0 -159 54q-51 51 -51 143zM440 282v40q0 79 -43 122q-45 45 -130 45t-130 -45
q-43 -43 -43 -122v-40h346zM268 720h5q10 0 24 -11l132 -113q10 -10 -6 -10h-18q-14 0 -21 7l-114 95l-116 -95q-7 -7 -19 -7h-19q-16 0 -6 10l134 113q13 11 24 11zM173 758l169 107q15 7 23 -1l9 -11q9 -10 -2 -15l-177 -103q-11 -4 -16 2l-7 8q-8 8 1 13z" />
    <glyph glyph-name="uni1EC0" unicode="&#x1ec0;" horiz-adv-x="570" 
d="M95 710h408q13 0 13 -13v-18q0 -12 -13 -12h-375v-286h332q12 0 12 -12v-18q0 -13 -12 -13h-332v-295h389q13 0 13 -12v-18q0 -13 -13 -13h-422q-13 0 -13 13v684q0 13 13 13zM301 898h5q10 0 24 -11l132 -113q10 -10 -6 -10h-18q-14 0 -21 7l-114 95l-116 -95
q-7 -7 -19 -7h-19q-16 0 -6 10l134 113q13 11 24 11zM220 1023l10 11q8 8 22 1l169 -107q10 -5 2 -13l-7 -8q-5 -7 -16 -2l-178 103q-10 4 -2 15z" />
    <glyph glyph-name="uni1EC1" unicode="&#x1ec1;" horiz-adv-x="527" 
d="M51 183v135q0 98 55 153q56 56 161 56q107 0 162 -57q54 -56 54 -150v-51q0 -22 -23 -22h-366v-68q0 -156 167 -156q123 0 177 98q8 11 18 5l14 -8q12 -6 4 -18q-62 -114 -213 -114q-103 0 -159 54q-51 51 -51 143zM440 282v40q0 79 -43 122q-45 45 -130 45t-130 -45
q-43 -43 -43 -122v-40h346zM268 720h5q10 0 24 -11l132 -113q10 -10 -6 -10h-18q-14 0 -21 7l-114 95l-116 -95q-7 -7 -19 -7h-19q-16 0 -6 10l134 113q13 11 24 11zM196 851l10 11q8 8 22 1l169 -107q10 -5 2 -13l-7 -8q-5 -7 -16 -2l-178 103q-10 4 -2 15z" />
    <glyph glyph-name="uni1EC2" unicode="&#x1ec2;" horiz-adv-x="570" 
d="M95 710h408q13 0 13 -13v-18q0 -12 -13 -12h-375v-286h332q12 0 12 -12v-18q0 -13 -12 -13h-332v-295h389q13 0 13 -12v-18q0 -13 -13 -13h-422q-13 0 -13 13v684q0 13 13 13zM301 898h5q10 0 24 -11l132 -113q10 -10 -6 -10h-18q-14 0 -21 7l-114 95l-116 -95
q-7 -7 -19 -7h-19q-16 0 -6 10l134 113q13 11 24 11zM435 862h-28q-7 4 8 14q20 18 32 31q19 19 16 44q-2 23 -26 30q-25 7 -52 -7q-6 -2 -9 0t-2 7l-2 11q-2 8 5 11q37 19 79 9q48 -14 48 -54q3 -36 -19 -61q-20 -23 -33 -29q-8 -5 -17 -6z" />
    <glyph glyph-name="uni1EC3" unicode="&#x1ec3;" horiz-adv-x="527" 
d="M51 183v135q0 98 55 153q56 56 161 56q107 0 162 -57q54 -56 54 -150v-51q0 -22 -23 -22h-366v-68q0 -156 167 -156q123 0 177 98q8 11 18 5l14 -8q12 -6 4 -18q-62 -114 -213 -114q-103 0 -159 54q-51 51 -51 143zM440 282v40q0 79 -43 122q-45 45 -130 45t-130 -45
q-43 -43 -43 -122v-40h346zM268 720h5q10 0 24 -11l132 -113q10 -10 -6 -10h-18q-14 0 -21 7l-114 95l-116 -95q-7 -7 -19 -7h-19q-16 0 -6 10l134 113q13 11 24 11zM385 703h-28q-7 4 8 14q20 18 32 31q19 19 16 44q-2 23 -26 30q-25 7 -52 -7q-6 -2 -9 0t-2 7l-2 11
q-2 8 5 11q37 19 79 9q48 -13 48 -54q3 -36 -19 -61q-20 -23 -33 -29q-8 -5 -17 -6z" />
    <glyph glyph-name="uni1EC4" unicode="&#x1ec4;" horiz-adv-x="570" 
d="M95 710h408q13 0 13 -13v-18q0 -12 -13 -12h-375v-286h332q12 0 12 -12v-18q0 -13 -12 -13h-332v-295h389q13 0 13 -12v-18q0 -13 -13 -13h-422q-13 0 -13 13v684q0 13 13 13zM301 899h5q10 0 24 -11l132 -113q10 -10 -6 -10h-18q-14 0 -21 7l-114 95l-116 -95
q-7 -7 -19 -7h-19q-16 0 -6 10l134 113q13 11 24 11zM465 1016h14q8 0 8 -8q0 -94 -75 -94q-36 0 -82 36q-45 36 -74 36q-48 0 -48 -64q0 -8 -8 -8h-14q-8 0 -8 8q0 94 75 94q37 0 84 -36q45 -36 73 -36q47 0 47 64q0 8 8 8z" />
    <glyph glyph-name="uni1EC5" unicode="&#x1ec5;" horiz-adv-x="527" 
d="M51 183v135q0 98 55 153q56 56 161 56q107 0 162 -57q54 -56 54 -150v-51q0 -22 -23 -22h-366v-68q0 -156 167 -156q123 0 177 98q8 11 18 5l14 -8q12 -6 4 -18q-62 -114 -213 -114q-103 0 -159 54q-51 51 -51 143zM440 282v40q0 79 -43 122q-45 45 -130 45t-130 -45
q-43 -43 -43 -122v-40h346zM268 720h5q10 0 24 -11l132 -113q10 -10 -6 -10h-18q-14 0 -21 7l-114 95l-116 -95q-7 -7 -19 -7h-19q-16 0 -6 10l134 113q13 11 24 11zM400 848h14q8 0 8 -8q0 -94 -75 -94q-35 0 -82 36q-45 36 -74 36q-48 0 -48 -64q0 -8 -8 -8h-14q-8 0 -8 8
q0 94 75 94q38 0 84 -36q45 -36 73 -36q47 0 47 64q0 8 8 8z" />
    <glyph glyph-name="uni1EC6" unicode="&#x1ec6;" horiz-adv-x="570" 
d="M95 710h408q13 0 13 -13v-18q0 -12 -13 -12h-375v-286h332q12 0 12 -12v-18q0 -13 -12 -13h-332v-295h389q13 0 13 -12v-18q0 -13 -13 -13h-422q-13 0 -13 13v684q0 13 13 13zM301 898h5q10 0 24 -11l132 -113q10 -10 -6 -10h-18q-14 0 -21 7l-114 95l-116 -95
q-7 -7 -19 -7h-19q-16 0 -6 10l134 113q13 11 24 11zM303 -86h5q28 0 28 -27v-6q0 -27 -28 -27h-5q-27 0 -27 27v6q0 27 27 27z" />
    <glyph glyph-name="uni1EC7" unicode="&#x1ec7;" horiz-adv-x="527" 
d="M51 183v135q0 98 55 153q56 56 161 56q107 0 162 -57q54 -56 54 -150v-51q0 -22 -23 -22h-366v-68q0 -156 167 -156q123 0 177 98q8 11 18 5l14 -8q12 -6 4 -18q-62 -114 -213 -114q-103 0 -159 54q-51 51 -51 143zM440 282v40q0 79 -43 122q-45 45 -130 45t-130 -45
q-43 -43 -43 -122v-40h346zM268 720h5q10 0 24 -11l132 -113q10 -10 -6 -10h-18q-14 0 -21 7l-114 95l-116 -95q-7 -7 -19 -7h-19q-16 0 -6 10l134 113q13 11 24 11zM264 -86h5q28 0 28 -27v-6q0 -27 -28 -27h-5q-27 0 -27 27v6q0 27 27 27z" />
    <glyph glyph-name="uni1EC8" unicode="&#x1ec8;" horiz-adv-x="210" 
d="M82 13v684q0 13 13 13h21q12 0 12 -13v-684q0 -13 -12 -13h-21q-13 0 -13 13zM102 776h-28q-7 4 8 14q20 18 32 31q19 19 16 44q-2 23 -26 30q-25 7 -52 -7q-6 -2 -9 0t-2 7l-2 11q-2 8 5 11q37 19 79 9q48 -14 48 -54q3 -36 -19 -61q-20 -23 -33 -29q-8 -5 -17 -6z" />
    <glyph glyph-name="uni1EC9" unicode="&#x1ec9;" horiz-adv-x="184" 
d="M82 512h20q12 0 12 -11v-489q0 -12 -12 -12h-20q-11 0 -11 12v489q0 11 11 11zM89 578h-28q-7 4 8 14q20 18 32 31q19 19 16 44q-2 23 -26 30q-25 7 -52 -7q-6 -2 -9 0t-2 7l-2 11q-2 8 5 11q37 19 79 9q48 -14 48 -54q3 -36 -19 -61q-20 -23 -33 -29q-8 -5 -17 -6z" />
    <glyph glyph-name="uni1ECA" unicode="&#x1eca;" horiz-adv-x="210" 
d="M82 13v684q0 13 13 13h21q12 0 12 -13v-684q0 -13 -12 -13h-21q-13 0 -13 13zM102 -86h5q28 0 28 -27v-6q0 -27 -28 -27h-5q-27 0 -27 27v6q0 27 27 27z" />
    <glyph glyph-name="uni1ECB" unicode="&#x1ecb;" horiz-adv-x="184" 
d="M90 691h5q25 0 25 -25v-6q0 -26 -25 -26h-5q-26 0 -26 26v6q0 25 26 25zM82 512h20q12 0 12 -11v-489q0 -12 -12 -12h-20q-11 0 -11 12v489q0 11 11 11zM89 -86h5q28 0 28 -27v-6q0 -27 -28 -27h-5q-27 0 -27 27v6q0 27 27 27z" />
    <glyph glyph-name="uni1ECC" unicode="&#x1ecc;" 
d="M61 233v244q0 117 69 181q70 66 201 66q129 0 199 -66q69 -64 69 -181v-244q0 -117 -69 -181q-70 -66 -199 -66q-131 0 -201 66q-69 64 -69 181zM553 233v244q0 97 -57 150q-58 54 -165 54q-109 0 -167 -54q-57 -53 -57 -150v-244q0 -97 57 -150q58 -54 167 -54
q107 0 165 54q57 53 57 150zM327 -86h5q28 0 28 -27v-6q0 -27 -28 -27h-5q-27 0 -27 27v6q0 27 27 27z" />
    <glyph glyph-name="uni1ECD" unicode="&#x1ecd;" horiz-adv-x="537" 
d="M54 161v190q0 81 58 129q59 47 156 47q98 0 157 -47q58 -46 58 -129v-190q0 -82 -58 -128q-59 -47 -157 -47q-97 0 -156 47q-58 46 -58 128zM440 161v191q0 62 -47 100q-47 36 -125 36t-124 -36q-47 -38 -47 -100v-191q0 -61 47 -99q46 -37 124 -37q79 0 125 37
q47 36 47 99zM265 -86h5q28 0 28 -27v-6q0 -27 -28 -27h-5q-27 0 -27 27v6q0 27 27 27z" />
    <glyph glyph-name="uni1ECE" unicode="&#x1ece;" 
d="M61 233v244q0 117 69 181q70 66 201 66q129 0 199 -66q69 -64 69 -181v-244q0 -117 -69 -181q-70 -66 -199 -66q-131 0 -201 66q-69 64 -69 181zM553 233v244q0 97 -57 150q-58 54 -165 54q-109 0 -167 -54q-57 -53 -57 -150v-244q0 -97 57 -150q58 -54 167 -54
q107 0 165 54q57 53 57 150zM327 776h-28q-7 4 8 14q20 18 32 31q19 19 16 44q-2 23 -26 30q-25 7 -52 -7q-6 -2 -9 0t-2 7l-2 11q-2 8 5 11q37 19 79 9q48 -14 48 -54q3 -36 -19 -61q-20 -23 -33 -29q-8 -5 -17 -6z" />
    <glyph glyph-name="uni1ECF" unicode="&#x1ecf;" horiz-adv-x="537" 
d="M54 161v190q0 81 58 129q59 47 156 47q98 0 157 -47q58 -46 58 -129v-190q0 -82 -58 -128q-59 -47 -157 -47q-97 0 -156 47q-58 46 -58 128zM440 161v191q0 62 -47 100q-47 36 -125 36t-124 -36q-47 -38 -47 -100v-191q0 -61 47 -99q46 -37 124 -37q79 0 125 37
q47 36 47 99zM265 578h-28q-7 4 8 14q20 18 32 31q19 19 16 44q-2 23 -26 30q-25 7 -52 -7q-6 -2 -9 0t-2 7l-2 11q-2 8 5 11q37 19 79 9q48 -14 48 -54q3 -36 -19 -61q-20 -23 -33 -29q-8 -5 -17 -6z" />
    <glyph glyph-name="uni1ED0" unicode="&#x1ed0;" 
d="M61 233v244q0 117 69 181q70 66 201 66q129 0 199 -66q69 -64 69 -181v-244q0 -117 -69 -181q-70 -66 -199 -66q-131 0 -201 66q-69 64 -69 181zM553 233v244q0 97 -57 150q-58 54 -165 54q-109 0 -167 -54q-57 -53 -57 -150v-244q0 -97 57 -150q58 -54 167 -54
q107 0 165 54q57 53 57 150zM332 897h5q10 0 24 -11l132 -113q10 -10 -6 -10h-18q-14 0 -21 7l-114 95l-116 -95q-7 -7 -19 -7h-19q-16 0 -6 10l134 113q13 11 24 11zM207 923l169 107q15 7 23 -1l9 -11q9 -10 -2 -15l-177 -103q-11 -4 -16 2l-7 8q-8 8 1 13z" />
    <glyph glyph-name="uni1ED1" unicode="&#x1ed1;" horiz-adv-x="537" 
d="M54 161v190q0 81 58 129q59 47 156 47q98 0 157 -47q58 -46 58 -129v-190q0 -82 -58 -128q-59 -47 -157 -47q-97 0 -156 47q-58 46 -58 128zM440 161v191q0 62 -47 100q-47 36 -125 36t-124 -36q-47 -38 -47 -100v-191q0 -61 47 -99q46 -37 124 -37q79 0 125 37
q47 36 47 99zM269 720h5q10 0 24 -11l132 -113q10 -10 -6 -10h-18q-14 0 -21 7l-114 95l-116 -95q-7 -7 -19 -7h-19q-16 0 -6 10l134 113q13 11 24 11zM167 765l169 107q15 7 23 -1l9 -11q9 -10 -2 -15l-177 -103q-11 -4 -16 2l-7 8q-8 8 1 13z" />
    <glyph glyph-name="uni1ED2" unicode="&#x1ed2;" 
d="M61 233v244q0 117 69 181q70 66 201 66q129 0 199 -66q69 -64 69 -181v-244q0 -117 -69 -181q-70 -66 -199 -66q-131 0 -201 66q-69 64 -69 181zM553 233v244q0 97 -57 150q-58 54 -165 54q-109 0 -167 -54q-57 -53 -57 -150v-244q0 -97 57 -150q58 -54 167 -54
q107 0 165 54q57 53 57 150zM332 896h5q10 0 24 -11l132 -113q10 -10 -6 -10h-18q-14 0 -21 7l-114 95l-116 -95q-7 -7 -19 -7h-19q-16 0 -6 10l134 113q13 11 24 11zM251 1021l10 11q8 8 22 1l169 -107q10 -5 2 -13l-7 -8q-5 -7 -16 -2l-178 103q-10 4 -2 15z" />
    <glyph glyph-name="uni1ED3" unicode="&#x1ed3;" horiz-adv-x="537" 
d="M54 161v190q0 81 58 129q59 47 156 47q98 0 157 -47q58 -46 58 -129v-190q0 -82 -58 -128q-59 -47 -157 -47q-97 0 -156 47q-58 46 -58 128zM440 161v191q0 62 -47 100q-47 36 -125 36t-124 -36q-47 -38 -47 -100v-191q0 -61 47 -99q46 -37 124 -37q79 0 125 37
q47 36 47 99zM269 720h5q10 0 24 -11l132 -113q10 -10 -6 -10h-18q-14 0 -21 7l-114 95l-116 -95q-7 -7 -19 -7h-19q-16 0 -6 10l134 113q13 11 24 11zM151 867l10 11q8 8 22 1l169 -107q10 -5 2 -13l-7 -8q-5 -7 -16 -2l-178 103q-10 4 -2 15z" />
    <glyph glyph-name="uni1ED4" unicode="&#x1ed4;" 
d="M61 233v244q0 117 69 181q70 66 201 66q129 0 199 -66q69 -64 69 -181v-244q0 -117 -69 -181q-70 -66 -199 -66q-131 0 -201 66q-69 64 -69 181zM553 233v244q0 97 -57 150q-58 54 -165 54q-109 0 -167 -54q-57 -53 -57 -150v-244q0 -97 57 -150q58 -54 167 -54
q107 0 165 54q57 53 57 150zM332 897h5q10 0 24 -11l132 -113q10 -10 -6 -10h-18q-14 0 -21 7l-114 95l-116 -95q-7 -7 -19 -7h-19q-16 0 -6 10l134 113q13 11 24 11zM466 861h-28q-7 4 8 14q20 18 32 31q19 19 16 44q-2 23 -26 30q-25 7 -52 -7q-6 -2 -9 0t-2 7l-2 11
q-2 8 5 11q37 19 79 9q48 -13 48 -54q3 -36 -19 -61q-20 -23 -33 -29q-8 -5 -17 -6z" />
    <glyph glyph-name="uni1ED5" unicode="&#x1ed5;" horiz-adv-x="537" 
d="M54 161v190q0 81 58 129q59 47 156 47q98 0 157 -47q58 -46 58 -129v-190q0 -82 -58 -128q-59 -47 -157 -47q-97 0 -156 47q-58 46 -58 128zM440 161v191q0 62 -47 100q-47 36 -125 36t-124 -36q-47 -38 -47 -100v-191q0 -61 47 -99q46 -37 124 -37q79 0 125 37
q47 36 47 99zM269 720h5q10 0 24 -11l132 -113q10 -10 -6 -10h-18q-14 0 -21 7l-114 95l-116 -95q-7 -7 -19 -7h-19q-16 0 -6 10l134 113q13 11 24 11zM377 712h-28q-7 4 8 14q20 18 32 31q19 19 16 44q-2 23 -26 30q-25 7 -52 -7q-6 -2 -9 0t-2 7l-2 11q-2 8 5 11
q37 19 79 9q48 -14 48 -54q3 -36 -19 -61q-20 -23 -33 -29q-8 -5 -17 -6z" />
    <glyph glyph-name="uni1ED6" unicode="&#x1ed6;" 
d="M61 233v244q0 117 69 181q70 66 201 66q129 0 199 -66q69 -64 69 -181v-244q0 -117 -69 -181q-70 -66 -199 -66q-131 0 -201 66q-69 64 -69 181zM553 233v244q0 97 -57 150q-58 54 -165 54q-109 0 -167 -54q-57 -53 -57 -150v-244q0 -97 57 -150q58 -54 167 -54
q107 0 165 54q57 53 57 150zM343 900h5q10 0 24 -11l132 -113q10 -10 -6 -10h-18q-14 0 -21 7l-114 95l-116 -95q-7 -7 -19 -7h-19q-16 0 -6 10l134 113q13 11 24 11zM507 1017h14q8 0 8 -8q0 -94 -75 -94q-36 0 -82 36q-45 36 -74 36q-48 0 -48 -64q0 -8 -8 -8h-14
q-8 0 -8 8q0 94 75 94q37 0 84 -36q45 -36 73 -36q47 0 47 64q0 8 8 8z" />
    <glyph glyph-name="uni1ED7" unicode="&#x1ed7;" horiz-adv-x="537" 
d="M54 161v190q0 81 58 129q59 47 156 47q98 0 157 -47q58 -46 58 -129v-190q0 -82 -58 -128q-59 -47 -157 -47q-97 0 -156 47q-58 46 -58 128zM440 161v191q0 62 -47 100q-47 36 -125 36t-124 -36q-47 -38 -47 -100v-191q0 -61 47 -99q46 -37 124 -37q79 0 125 37
q47 36 47 99zM269 720h5q10 0 24 -11l132 -113q10 -10 -6 -10h-18q-14 0 -21 7l-114 95l-116 -95q-7 -7 -19 -7h-19q-16 0 -6 10l134 113q13 11 24 11zM401 848h14q8 0 8 -8q0 -94 -75 -94q-36 0 -82 36q-45 36 -74 36q-48 0 -48 -64q0 -8 -8 -8h-14q-8 0 -8 8q0 94 75 94
q37 0 84 -36q45 -36 73 -36q47 0 47 64q0 8 8 8z" />
    <glyph glyph-name="uni1ED8" unicode="&#x1ed8;" 
d="M61 233v244q0 117 69 181q70 66 201 66q129 0 199 -66q69 -64 69 -181v-244q0 -117 -69 -181q-70 -66 -199 -66q-131 0 -201 66q-69 64 -69 181zM553 233v244q0 97 -57 150q-58 54 -165 54q-109 0 -167 -54q-57 -53 -57 -150v-244q0 -97 57 -150q58 -54 167 -54
q107 0 165 54q57 53 57 150zM332 918h5q10 0 24 -11l132 -113q10 -10 -6 -10h-18q-14 0 -21 7l-114 95l-116 -95q-7 -7 -19 -7h-19q-16 0 -6 10l134 113q13 11 24 11zM327 -86h5q28 0 28 -27v-6q0 -27 -28 -27h-5q-27 0 -27 27v6q0 27 27 27z" />
    <glyph glyph-name="uni1ED9" unicode="&#x1ed9;" horiz-adv-x="537" 
d="M54 161v190q0 81 58 129q59 47 156 47q98 0 157 -47q58 -46 58 -129v-190q0 -82 -58 -128q-59 -47 -157 -47q-97 0 -156 47q-58 46 -58 128zM440 161v191q0 62 -47 100q-47 36 -125 36t-124 -36q-47 -38 -47 -100v-191q0 -61 47 -99q46 -37 124 -37q79 0 125 37
q47 36 47 99zM269 720h5q10 0 24 -11l132 -113q10 -10 -6 -10h-18q-14 0 -21 7l-114 95l-116 -95q-7 -7 -19 -7h-19q-16 0 -6 10l134 113q13 11 24 11zM265 -86h5q28 0 28 -27v-6q0 -27 -28 -27h-5q-27 0 -27 27v6q0 27 27 27z" />
    <glyph glyph-name="uni1EDA" unicode="&#x1eda;" 
d="M553 233v244q0 97 -57 150q-58 54 -165 54q-109 0 -167 -54q-57 -53 -57 -150v-244q0 -97 57 -150q58 -54 167 -54q107 0 165 54q57 53 57 150zM594 537q5 -32 5 -60v-244q0 -117 -69 -181q-70 -66 -199 -66q-131 0 -201 66q-69 64 -69 181v244q0 117 69 181
q70 66 201 66q129 0 199 -66q34 -33 50 -74q6 4 12 12q43 40 43 102q-1 10 9 12h25q9 0 9 -11q0 -77 -48 -126q-18 -23 -36 -36zM301 814l169 107q15 7 23 -1l9 -11q9 -10 -2 -15l-177 -103q-11 -4 -16 2l-7 8q-8 8 1 13z" />
    <glyph glyph-name="uni1EDB" unicode="&#x1edb;" horiz-adv-x="565" 
d="M440 161v191q0 62 -47 100q-47 36 -125 36t-124 -36q-47 -38 -47 -100v-191q0 -61 47 -99q46 -37 124 -37q79 0 125 37q47 36 47 99zM483 346v-185q0 -82 -58 -128q-59 -47 -157 -47q-97 0 -156 47q-58 46 -58 128v190q0 81 58 129q59 47 156 47q98 0 157 -47
q38 -31 52 -79q42 41 42 101q-1 10 9 12h25q9 0 9 -11q0 -77 -48 -126q-15 -18 -31 -31zM207 616l169 107q15 7 23 -1l9 -11q9 -10 -2 -15l-177 -103q-11 -4 -16 2l-7 8q-8 8 1 13z" />
    <glyph glyph-name="uni1EDC" unicode="&#x1edc;" 
d="M553 233v244q0 97 -57 150q-58 54 -165 54q-109 0 -167 -54q-57 -53 -57 -150v-244q0 -97 57 -150q58 -54 167 -54q107 0 165 54q57 53 57 150zM594 537q5 -32 5 -60v-244q0 -117 -69 -181q-70 -66 -199 -66q-131 0 -201 66q-69 64 -69 181v244q0 117 69 181
q70 66 201 66q129 0 199 -66q34 -33 50 -74q6 4 12 12q43 40 43 102q-1 10 9 12h25q9 0 9 -11q0 -77 -48 -126q-18 -23 -36 -36zM227 909l10 11q8 8 22 1l169 -107q10 -5 2 -13l-7 -8q-5 -7 -16 -2l-178 103q-10 4 -2 15z" />
    <glyph glyph-name="uni1EDD" unicode="&#x1edd;" horiz-adv-x="565" 
d="M440 161v191q0 62 -47 100q-47 36 -125 36t-124 -36q-47 -38 -47 -100v-191q0 -61 47 -99q46 -37 124 -37q79 0 125 37q47 36 47 99zM483 346v-185q0 -82 -58 -128q-59 -47 -157 -47q-97 0 -156 47q-58 46 -58 128v190q0 81 58 129q59 47 156 47q98 0 157 -47
q38 -31 52 -79q42 41 42 101q-1 10 9 12h25q9 0 9 -11q0 -77 -48 -126q-15 -18 -31 -31zM130 711l10 11q8 8 22 1l169 -107q10 -5 2 -13l-7 -8q-5 -7 -16 -2l-178 103q-10 4 -2 15z" />
    <glyph glyph-name="uni1EDE" unicode="&#x1ede;" 
d="M553 233v244q0 97 -57 150q-58 54 -165 54q-109 0 -167 -54q-57 -53 -57 -150v-244q0 -97 57 -150q58 -54 167 -54q107 0 165 54q57 53 57 150zM594 537q5 -32 5 -60v-244q0 -117 -69 -181q-70 -66 -199 -66q-131 0 -201 66q-69 64 -69 181v244q0 117 69 181
q70 66 201 66q129 0 199 -66q34 -33 50 -74q6 4 12 12q43 40 43 102q-1 10 9 12h25q9 0 9 -11q0 -77 -48 -126q-18 -23 -36 -36zM366 776h-28q-7 4 8 14q20 18 32 31q19 19 16 44q-2 23 -26 30q-25 7 -52 -7q-6 -2 -9 0t-2 7l-2 11q-2 8 5 11q37 19 79 9q48 -14 48 -54
q3 -36 -19 -61q-20 -23 -33 -29q-8 -5 -17 -6z" />
    <glyph glyph-name="uni1EDF" unicode="&#x1edf;" horiz-adv-x="565" 
d="M440 161v191q0 62 -47 100q-47 36 -125 36t-124 -36q-47 -38 -47 -100v-191q0 -61 47 -99q46 -37 124 -37q79 0 125 37q47 36 47 99zM483 346v-185q0 -82 -58 -128q-59 -47 -157 -47q-97 0 -156 47q-58 46 -58 128v190q0 81 58 129q59 47 156 47q98 0 157 -47
q38 -31 52 -79q42 41 42 101q-1 10 9 12h25q9 0 9 -11q0 -77 -48 -126q-15 -18 -31 -31zM288 578h-28q-7 4 8 14q20 18 32 31q19 19 16 44q-2 23 -26 30q-25 7 -52 -7q-6 -2 -9 0t-2 7l-2 11q-2 8 5 11q37 19 79 9q48 -14 48 -54q3 -36 -19 -61q-20 -23 -33 -29
q-8 -5 -17 -6z" />
    <glyph glyph-name="uni1EE0" unicode="&#x1ee0;" 
d="M553 233v244q0 97 -57 150q-58 54 -165 54q-109 0 -167 -54q-57 -53 -57 -150v-244q0 -97 57 -150q58 -54 167 -54q107 0 165 54q57 53 57 150zM594 537q5 -32 5 -60v-244q0 -117 -69 -181q-70 -66 -199 -66q-131 0 -201 66q-69 64 -69 181v244q0 117 69 181
q70 66 201 66q129 0 199 -66q34 -33 50 -74q6 4 12 12q43 40 43 102q-1 10 9 12h25q9 0 9 -11q0 -77 -48 -126q-18 -23 -36 -36zM502 902h14q8 0 8 -8q0 -94 -75 -94q-35 0 -82 36q-45 36 -74 36q-48 0 -48 -64q0 -8 -8 -8h-14q-8 0 -8 8q0 94 75 94q38 0 84 -36
q45 -36 73 -36q47 0 47 64q0 8 8 8z" />
    <glyph glyph-name="uni1EE1" unicode="&#x1ee1;" horiz-adv-x="565" 
d="M440 161v191q0 62 -47 100q-47 36 -125 36t-124 -36q-47 -38 -47 -100v-191q0 -61 47 -99q46 -37 124 -37q79 0 125 37q47 36 47 99zM483 346v-185q0 -82 -58 -128q-59 -47 -157 -47q-97 0 -156 47q-58 46 -58 128v190q0 81 58 129q59 47 156 47q98 0 157 -47
q38 -31 52 -79q42 41 42 101q-1 10 9 12h25q9 0 9 -11q0 -77 -48 -126q-15 -18 -31 -31zM404 704h14q8 0 8 -8q0 -94 -75 -94q-35 0 -82 36q-45 36 -74 36q-48 0 -48 -64q0 -8 -8 -8h-14q-8 0 -8 8q0 94 75 94q38 0 84 -36q45 -36 73 -36q47 0 47 64q0 8 8 8z" />
    <glyph glyph-name="uni1EE2" unicode="&#x1ee2;" 
d="M553 233v244q0 97 -57 150q-58 54 -165 54q-109 0 -167 -54q-57 -53 -57 -150v-244q0 -97 57 -150q58 -54 167 -54q107 0 165 54q57 53 57 150zM594 537q5 -32 5 -60v-244q0 -117 -69 -181q-70 -66 -199 -66q-131 0 -201 66q-69 64 -69 181v244q0 117 69 181
q70 66 201 66q129 0 199 -66q34 -33 50 -74q6 4 12 12q43 40 43 102q-1 10 9 12h25q9 0 9 -11q0 -77 -48 -126q-18 -23 -36 -36zM366 -86h5q28 0 28 -27v-6q0 -27 -28 -27h-5q-27 0 -27 27v6q0 27 27 27z" />
    <glyph glyph-name="uni1EE3" unicode="&#x1ee3;" horiz-adv-x="565" 
d="M440 161v191q0 62 -47 100q-47 36 -125 36t-124 -36q-47 -38 -47 -100v-191q0 -61 47 -99q46 -37 124 -37q79 0 125 37q47 36 47 99zM483 346v-185q0 -82 -58 -128q-59 -47 -157 -47q-97 0 -156 47q-58 46 -58 128v190q0 81 58 129q59 47 156 47q98 0 157 -47
q38 -31 52 -79q42 41 42 101q-1 10 9 12h25q9 0 9 -11q0 -77 -48 -126q-15 -18 -31 -31zM268 -86h5q28 0 28 -27v-6q0 -27 -28 -27h-5q-27 0 -27 27v6q0 27 27 27z" />
    <glyph glyph-name="uni1EE4" unicode="&#x1ee4;" horiz-adv-x="679" 
d="M122 697v-457q0 -98 54 -154q55 -58 164 -58q108 0 163 58q54 55 54 154v457q0 13 12 13h22q12 0 12 -13v-457q0 -118 -65 -186q-69 -69 -198 -69q-130 0 -198 69q-66 68 -66 186v457q0 13 13 13h21q12 0 12 -13zM336 -86h5q28 0 28 -27v-6q0 -27 -28 -27h-5
q-27 0 -27 27v6q0 27 27 27z" />
    <glyph glyph-name="uni1EE5" unicode="&#x1ee5;" horiz-adv-x="547" 
d="M447 512h20q11 0 11 -11v-428q0 -39 -37 -55q-82 -32 -181 -32q-194 0 -194 193v322q0 11 12 11h19q12 0 12 -11v-320q0 -156 155 -156q83 0 150 26q21 11 21 34v416q0 11 12 11zM269 -86h5q28 0 28 -27v-6q0 -27 -28 -27h-5q-27 0 -27 27v6q0 27 27 27z" />
    <glyph glyph-name="uni1EE6" unicode="&#x1ee6;" horiz-adv-x="679" 
d="M122 697v-457q0 -98 54 -154q55 -58 164 -58q108 0 163 58q54 55 54 154v457q0 13 12 13h22q12 0 12 -13v-457q0 -118 -65 -186q-69 -69 -198 -69q-130 0 -198 69q-66 68 -66 186v457q0 13 13 13h21q12 0 12 -13zM336 776h-28q-7 4 8 14q20 18 32 31q19 19 16 44
q-2 23 -26 30q-25 7 -52 -7q-6 -2 -9 0t-2 7l-2 11q-2 8 5 11q37 19 79 9q48 -14 48 -54q3 -36 -19 -61q-20 -23 -33 -29q-8 -5 -17 -6z" />
    <glyph glyph-name="uni1EE7" unicode="&#x1ee7;" horiz-adv-x="547" 
d="M447 512h20q11 0 11 -11v-428q0 -39 -37 -55q-82 -32 -181 -32q-194 0 -194 193v322q0 11 12 11h19q12 0 12 -11v-320q0 -156 155 -156q83 0 150 26q21 11 21 34v416q0 11 12 11zM269 578h-28q-7 4 8 14q20 18 32 31q19 19 16 44q-2 23 -26 30q-25 7 -52 -7q-6 -2 -9 0
t-2 7l-2 11q-2 8 5 11q37 19 79 9q48 -14 48 -54q3 -36 -19 -61q-20 -23 -33 -29q-8 -5 -17 -6z" />
    <glyph glyph-name="uni1EE8" unicode="&#x1ee8;" horiz-adv-x="679" 
d="M603 532v-292q0 -118 -65 -186q-69 -69 -198 -69q-130 0 -198 69q-66 68 -66 186v457q0 13 13 13h21q12 0 12 -13v-457q0 -98 54 -154q55 -58 164 -58q108 0 163 58q54 55 54 154v457q0 13 12 13h22q12 0 12 -13v-116q10 7 17 15q43 40 43 102q-1 10 9 12h25q9 0 9 -11
q0 -77 -48 -126q-24 -27 -55 -41zM323 814l169 107q15 7 23 -1l9 -11q9 -10 -2 -15l-177 -103q-11 -4 -16 2l-7 8q-8 8 1 13z" />
    <glyph glyph-name="uni1EE9" unicode="&#x1ee9;" horiz-adv-x="567" 
d="M478 341v-268q0 -39 -37 -55q-82 -32 -181 -32q-194 0 -194 193v322q0 11 12 11h19q12 0 12 -11v-320q0 -156 155 -156q83 0 150 26q21 11 21 34v416q0 11 12 11h20q11 0 11 -11v-100q41 41 41 100q-1 11 9 12h25q9 0 9 -11q0 -76 -48 -126q-19 -22 -36 -35zM232 616
l169 107q15 7 23 -1l9 -11q9 -10 -2 -15l-177 -103q-11 -4 -16 2l-7 8q-8 8 1 13z" />
    <glyph glyph-name="uni1EEA" unicode="&#x1eea;" horiz-adv-x="679" 
d="M603 532v-292q0 -118 -65 -186q-69 -69 -198 -69q-130 0 -198 69q-66 68 -66 186v457q0 13 13 13h21q12 0 12 -13v-457q0 -98 54 -154q55 -58 164 -58q108 0 163 58q54 55 54 154v457q0 13 12 13h22q12 0 12 -13v-116q10 7 17 15q43 40 43 102q-1 10 9 12h25q9 0 9 -11
q0 -77 -48 -126q-24 -27 -55 -41zM249 909l10 11q8 8 22 1l169 -107q10 -5 2 -13l-7 -8q-5 -7 -16 -2l-178 103q-10 4 -2 15z" />
    <glyph glyph-name="uni1EEB" unicode="&#x1eeb;" horiz-adv-x="567" 
d="M478 341v-268q0 -39 -37 -55q-82 -32 -181 -32q-194 0 -194 193v322q0 11 12 11h19q12 0 12 -11v-320q0 -156 155 -156q83 0 150 26q21 11 21 34v416q0 11 12 11h20q11 0 11 -11v-100q41 41 41 100q-1 11 9 12h25q9 0 9 -11q0 -76 -48 -126q-19 -22 -36 -35zM153 711
l10 11q8 8 22 1l169 -107q10 -5 2 -13l-7 -8q-5 -7 -16 -2l-178 103q-10 4 -2 15z" />
    <glyph glyph-name="uni1EEC" unicode="&#x1eec;" horiz-adv-x="679" 
d="M603 532v-292q0 -118 -65 -186q-69 -69 -198 -69q-130 0 -198 69q-66 68 -66 186v457q0 13 13 13h21q12 0 12 -13v-457q0 -98 54 -154q55 -58 164 -58q108 0 163 58q54 55 54 154v457q0 13 12 13h22q12 0 12 -13v-116q10 7 17 15q43 40 43 102q-1 10 9 12h25q9 0 9 -11
q0 -77 -48 -126q-24 -27 -55 -41zM388 776h-28q-7 4 8 14q20 18 32 31q19 19 16 44q-2 23 -26 30q-25 7 -52 -7q-6 -2 -9 0t-2 7l-2 11q-2 8 5 11q37 19 79 9q48 -14 48 -54q3 -36 -19 -61q-20 -23 -33 -29q-8 -5 -17 -6z" />
    <glyph glyph-name="uni1EED" unicode="&#x1eed;" horiz-adv-x="567" 
d="M478 341v-268q0 -39 -37 -55q-82 -32 -181 -32q-194 0 -194 193v322q0 11 12 11h19q12 0 12 -11v-320q0 -156 155 -156q83 0 150 26q21 11 21 34v416q0 11 12 11h20q11 0 11 -11v-100q41 41 41 100q-1 11 9 12h25q9 0 9 -11q0 -76 -48 -126q-19 -22 -36 -35zM306 578h-28
q-7 4 8 14q20 18 32 31q19 19 16 44q-2 23 -26 30q-25 7 -52 -7q-6 -2 -9 0t-2 7l-2 11q-2 8 5 11q37 19 79 9q48 -14 48 -54q3 -36 -19 -61q-20 -23 -33 -29q-8 -5 -17 -6z" />
    <glyph glyph-name="uni1EEE" unicode="&#x1eee;" horiz-adv-x="679" 
d="M603 532v-292q0 -118 -65 -186q-69 -69 -198 -69q-130 0 -198 69q-66 68 -66 186v457q0 13 13 13h21q12 0 12 -13v-457q0 -98 54 -154q55 -58 164 -58q108 0 163 58q54 55 54 154v457q0 13 12 13h22q12 0 12 -13v-116q10 7 17 15q43 40 43 102q-1 10 9 12h25q9 0 9 -11
q0 -77 -48 -126q-24 -27 -55 -41zM524 902h14q8 0 8 -8q0 -94 -75 -94q-35 0 -82 36q-45 36 -74 36q-48 0 -48 -64q0 -8 -8 -8h-14q-8 0 -8 8q0 94 75 94q38 0 84 -36q45 -36 73 -36q47 0 47 64q0 8 8 8z" />
    <glyph glyph-name="uni1EEF" unicode="&#x1eef;" horiz-adv-x="567" 
d="M478 341v-268q0 -39 -37 -55q-82 -32 -181 -32q-194 0 -194 193v322q0 11 12 11h19q12 0 12 -11v-320q0 -156 155 -156q83 0 150 26q21 11 21 34v416q0 11 12 11h20q11 0 11 -11v-100q41 41 41 100q-1 11 9 12h25q9 0 9 -11q0 -76 -48 -126q-19 -22 -36 -35zM430 704h14
q8 0 8 -8q0 -94 -75 -94q-35 0 -82 36q-45 36 -74 36q-48 0 -48 -64q0 -8 -8 -8h-14q-8 0 -8 8q0 94 75 94q38 0 84 -36q45 -36 73 -36q47 0 47 64q0 8 8 8z" />
    <glyph glyph-name="uni1EF0" unicode="&#x1ef0;" horiz-adv-x="679" 
d="M603 532v-292q0 -118 -65 -186q-69 -69 -198 -69q-130 0 -198 69q-66 68 -66 186v457q0 13 13 13h21q12 0 12 -13v-457q0 -98 54 -154q55 -58 164 -58q108 0 163 58q54 55 54 154v457q0 13 12 13h22q12 0 12 -13v-116q10 7 17 15q43 40 43 102q-1 10 9 12h25q9 0 9 -11
q0 -77 -48 -126q-24 -27 -55 -41zM388 -86h5q28 0 28 -27v-6q0 -27 -28 -27h-5q-27 0 -27 27v6q0 27 27 27z" />
    <glyph glyph-name="uni1EF1" unicode="&#x1ef1;" horiz-adv-x="567" 
d="M478 341v-268q0 -39 -37 -55q-82 -32 -181 -32q-194 0 -194 193v322q0 11 12 11h19q12 0 12 -11v-320q0 -156 155 -156q83 0 150 26q21 11 21 34v416q0 11 12 11h20q11 0 11 -11v-100q41 41 41 100q-1 11 9 12h25q9 0 9 -11q0 -76 -48 -126q-19 -22 -36 -35zM294 -86h5
q28 0 28 -27v-6q0 -27 -28 -27h-5q-27 0 -27 27v6q0 27 27 27z" />
    <glyph glyph-name="Ygrave" unicode="&#x1ef2;" horiz-adv-x="619" 
d="M208 875l9 11q8 10 23 2l172 -102q8 -7 1 -14l-7 -8q-4 -6 -16 -1l-180 98q-12 4 -2 14zM571 710h25q14 0 7 -13l-271 -405v-279q0 -13 -12 -13h-21q-13 0 -13 13v280l-270 404q-7 13 7 13h27q18 0 23 -11l237 -359l237 359q8 11 24 11z" />
    <glyph glyph-name="ygrave" unicode="&#x1ef3;" horiz-adv-x="549" 
d="M171 703l9 11q7 9 23 1l169 -106q9 -4 1 -14l-7 -8q-4 -5 -16 -1l-177 102q-11 5 -2 15zM447 512h20q11 0 11 -11v-538q0 -216 -208 -216q-138 0 -195 113q-9 13 5 19l13 7q11 6 19 -5q48 -95 157 -95q166 0 166 175v65q-89 -33 -175 -33q-194 0 -194 193v315q0 11 12 11
h19q12 0 12 -11v-313q0 -156 155 -156q87 0 171 34v435q0 11 12 11z" />
    <glyph glyph-name="uni1EF4" unicode="&#x1ef4;" horiz-adv-x="619" 
d="M571 710h25q14 0 7 -13l-271 -405v-279q0 -13 -12 -13h-21q-13 0 -13 13v280l-270 404q-7 13 7 13h27q18 0 23 -11l237 -359l237 359q8 11 24 11zM306 -86h5q28 0 28 -27v-6q0 -27 -28 -27h-5q-27 0 -27 27v6q0 27 27 27z" />
    <glyph glyph-name="uni1EF5" unicode="&#x1ef5;" horiz-adv-x="549" 
d="M447 512h20q11 0 11 -11v-538q0 -216 -208 -216q-138 0 -195 113q-9 13 5 19l13 7q11 6 19 -5q48 -95 157 -95q166 0 166 175v65q-89 -33 -175 -33q-194 0 -194 193v315q0 11 12 11h19q12 0 12 -11v-313q0 -156 155 -156q87 0 171 34v435q0 11 12 11zM521 -86h5
q28 0 28 -27v-6q0 -27 -28 -27h-5q-27 0 -27 27v6q0 27 27 27z" />
    <glyph glyph-name="uni1EF6" unicode="&#x1ef6;" horiz-adv-x="619" 
d="M571 710h25q14 0 7 -13l-271 -405v-279q0 -13 -12 -13h-21q-13 0 -13 13v280l-270 404q-7 13 7 13h27q18 0 23 -11l237 -359l237 359q8 11 24 11zM306 776h-28q-7 4 8 14q20 18 32 31q19 19 16 44q-2 23 -26 30q-25 7 -52 -7q-6 -2 -9 0t-2 7l-2 11q-2 8 5 11q37 19 79 9
q48 -14 48 -54q3 -36 -19 -61q-20 -23 -33 -29q-8 -5 -17 -6z" />
    <glyph glyph-name="uni1EF7" unicode="&#x1ef7;" horiz-adv-x="549" 
d="M447 512h20q11 0 11 -11v-538q0 -216 -208 -216q-138 0 -195 113q-9 13 5 19l13 7q11 6 19 -5q48 -95 157 -95q166 0 166 175v65q-89 -33 -175 -33q-194 0 -194 193v315q0 11 12 11h19q12 0 12 -11v-313q0 -156 155 -156q87 0 171 34v435q0 11 12 11zM269 578h-28
q-7 4 8 14q20 18 32 31q19 19 16 44q-2 23 -26 30q-25 7 -52 -7q-6 -2 -9 0t-2 7l-2 11q-2 8 5 11q37 19 79 9q48 -14 48 -54q3 -36 -19 -61q-20 -23 -33 -29q-8 -5 -17 -6z" />
    <glyph glyph-name="uni1EF8" unicode="&#x1ef8;" horiz-adv-x="619" 
d="M571 710h25q14 0 7 -13l-271 -405v-279q0 -13 -12 -13h-21q-13 0 -13 13v280l-270 404q-7 13 7 13h27q18 0 23 -11l237 -359l237 359q8 11 24 11zM442 902h14q8 0 8 -8q0 -94 -75 -94q-35 0 -82 36q-45 36 -74 36q-48 0 -48 -64q0 -8 -8 -8h-14q-8 0 -8 8q0 94 75 94
q38 0 84 -36q45 -36 73 -36q47 0 47 64q0 8 8 8z" />
    <glyph glyph-name="uni1EF9" unicode="&#x1ef9;" horiz-adv-x="549" 
d="M447 512h20q11 0 11 -11v-538q0 -216 -208 -216q-138 0 -195 113q-9 13 5 19l13 7q11 6 19 -5q48 -95 157 -95q166 0 166 175v65q-89 -33 -175 -33q-194 0 -194 193v315q0 11 12 11h19q12 0 12 -11v-313q0 -156 155 -156q87 0 171 34v435q0 11 12 11zM405 704h14
q8 0 8 -8q0 -94 -75 -94q-36 0 -82 36q-45 36 -74 36q-48 0 -48 -64q0 -8 -8 -8h-14q-8 0 -8 8q0 94 75 94q37 0 84 -36q45 -36 73 -36q47 0 47 64q0 8 8 8z" />
    <glyph glyph-name="endash" unicode="&#x2013;" horiz-adv-x="579" 
d="M76 288h427q13 0 13 -12v-17q0 -12 -13 -12h-427q-12 0 -12 12v17q0 12 12 12z" />
    <glyph glyph-name="emdash" unicode="&#x2014;" horiz-adv-x="779" 
d="M76 288h627q12 0 12 -12v-17q0 -12 -12 -12h-627q-13 0 -13 12v17q0 12 13 12z" />
    <glyph glyph-name="quoteleft" unicode="&#x2018;" horiz-adv-x="185" 
d="M54 544l55 154q5 12 14 12h9q10 0 8 -9l-38 -157q-4 -15 -18 -15h-17q-19 0 -13 15z" />
    <glyph glyph-name="quoteright" unicode="&#x2019;" horiz-adv-x="181" 
d="M142 695l-55 -154q-5 -12 -14 -12h-9q-10 0 -8 9l38 157q4 15 18 15h17q19 0 13 -15z" />
    <glyph glyph-name="quotesinglbase" unicode="&#x201a;" horiz-adv-x="153" 
d="M99 98l-10 -202q0 -12 -12 -12h-10q-11 0 -11 12v202q0 12 11 12h20q12 0 12 -12z" />
    <glyph glyph-name="quotedblleft" unicode="&#x201c;" horiz-adv-x="290" 
d="M54 544l55 154q5 12 14 12h9q10 0 8 -9l-38 -157q-4 -15 -18 -15h-17q-19 0 -13 15zM159 544l55 154q4 12 14 12h8q10 0 9 -9l-38 -157q-5 -15 -18 -15h-17q-19 0 -13 15z" />
    <glyph glyph-name="quotedblright" unicode="&#x201d;" horiz-adv-x="286" 
d="M142 695l-55 -154q-5 -12 -14 -12h-9q-10 0 -8 9l38 157q4 15 18 15h17q19 0 13 -15zM247 695l-55 -154q-4 -12 -14 -12h-9q-9 0 -8 9l38 157q5 15 18 15h17q18 0 13 -15z" />
    <glyph glyph-name="quotedblbase" unicode="&#x201e;" horiz-adv-x="267" 
d="M106 45l-55 -155q-5 -11 -15 -11h-8q-10 0 -8 9l38 157q4 15 18 15h17q17 0 13 -15zM210 45l-54 -155q-5 -11 -15 -11h-8q-9 0 -8 9l38 157q3 15 18 15h17q18 0 12 -15z" />
    <glyph glyph-name="dagger" unicode="&#x2020;" horiz-adv-x="536" 
d="M291 466h199q13 0 13 -13v-18q0 -12 -13 -12h-199v-510q0 -13 -13 -13h-19q-12 0 -12 13v510h-201q-12 0 -12 12v18q0 13 12 13h201v231q0 13 12 13h19q13 0 13 -13v-231z" />
    <glyph glyph-name="daggerdbl" unicode="&#x2021;" horiz-adv-x="587" 
d="M285 710h19q12 0 12 -13v-231h200q12 0 12 -13v-18q0 -12 -12 -12h-200v-237h200q12 0 12 -13v-18q0 -12 -12 -12h-200v-230q0 -13 -12 -13h-19q-13 0 -13 13v230h-200q-13 0 -13 12v18q0 13 13 13h200v237h-200q-13 0 -13 12v18q0 13 13 13h200v231q0 13 13 13z" />
    <glyph glyph-name="bullet" unicode="&#x2022;" horiz-adv-x="273" 
d="M136 213q-22 0 -35 15q-14 14 -14 35q0 22 14 36t35 14q50 0 50 -50q0 -21 -14 -35q-14 -15 -36 -15z" />
    <glyph glyph-name="ellipsis" unicode="&#x2026;" horiz-adv-x="558" 
d="M80 55h5q27 0 27 -27v-6q0 -27 -27 -27h-5q-28 0 -28 27v6q0 27 28 27zM276 55h5q28 0 28 -27v-6q0 -27 -28 -27h-5q-27 0 -27 27v6q0 27 27 27zM473 55h5q27 0 27 -27v-6q0 -27 -27 -27h-5q-28 0 -28 27v6q0 27 28 27z" />
    <glyph glyph-name="perthousand" unicode="&#x2030;" horiz-adv-x="1177" 
d="M38 504v75q0 68 40 107t115 39t115 -39q39 -38 39 -107v-75q0 -145 -154 -145q-75 0 -115 39q-40 37 -40 106zM656 710h19q13 0 6 -13l-505 -686q-9 -11 -25 -11h-16q-16 0 -7 13l505 686q8 11 23 11zM310 506v71q0 112 -117 112t-117 -112v-71q0 -111 117 -111t117 111z
M461 130v74q0 69 40 108q41 39 114 39q75 0 115 -39t40 -108v-74q0 -69 -40 -106q-40 -39 -115 -39q-73 0 -114 39q-40 37 -40 106zM833 130v74q0 69 40 108q41 39 114 39q75 0 115 -39t40 -108v-74q0 -69 -40 -106q-40 -39 -115 -39q-73 0 -114 39q-40 37 -40 106zM732 132
v71q0 112 -117 112t-117 -112v-71q0 -111 117 -111t117 111zM1104 132v71q0 112 -117 112t-117 -112v-71q0 -111 117 -111t117 111z" />
    <glyph glyph-name="guilsinglleft" unicode="&#x2039;" horiz-adv-x="327" 
d="M88 263l184 -183q8 -8 0 -15l-14 -14q-7 -7 -16 0l-203 204q-7 7 0 15l205 207q8 8 16 0l12 -13q8 -8 0 -16z" />
    <glyph glyph-name="guilsinglright" unicode="&#x203a;" horiz-adv-x="327" 
d="M234 263l-184 185q-7 7 0 16l13 13q7 7 15 0l206 -207q6 -8 0 -15l-204 -204q-8 -8 -16 0l-13 14q-7 7 0 15z" />
    <glyph glyph-name="fraction" unicode="&#x2044;" horiz-adv-x="141" 
d="M-206 13l505 685q7 12 23 12h17q17 0 7 -13l-504 -685q-10 -12 -26 -12h-15q-14 0 -7 13z" />
    <glyph glyph-name="uni2070" unicode="&#x2070;" horiz-adv-x="373" 
d="M43 539v146q0 61 38 97t106 36q67 0 105 -36t38 -97v-146q0 -62 -38 -97q-38 -36 -105 -36q-69 0 -106 36q-38 35 -38 97zM293 539v146q0 45 -28 72q-29 26 -78 26q-107 0 -107 -98v-146q0 -98 107 -98q49 0 78 27q28 25 28 71z" />
    <glyph glyph-name="uni2074" unicode="&#x2074;" horiz-adv-x="353" 
d="M267 558h51q11 0 11 -11v-10q0 -12 -11 -12h-51v-100q0 -11 -11 -11h-14q-10 0 -10 11v100h-201q-11 0 -11 12v9q0 10 4 14l198 242q6 8 18 8h15q12 0 12 -12v-240zM232 763l-168 -205h168v205z" />
    <glyph glyph-name="uni2075" unicode="&#x2075;" horiz-adv-x="347" 
d="M78 810h212q9 0 9 -9v-15q0 -9 -9 -9h-193l-13 -124h88q141 0 141 -121q0 -55 -33 -88q-36 -38 -103 -38q-117 0 -147 107q-4 13 6 17l12 3q11 5 16 -7q23 -86 112 -86q101 0 101 92q0 88 -106 88h-112q-13 0 -12 13l16 165q1 12 15 12z" />
    <glyph glyph-name="uni2076" unicode="&#x2076;" horiz-adv-x="372" 
d="M79 667v-48q60 27 124 27q134 0 134 -118q0 -122 -150 -122q-145 0 -145 152v107q0 153 149 153q98 0 133 -74q4 -8 -4 -13l-15 -7q-9 -5 -14 3q-25 57 -100 57q-112 0 -112 -117zM79 584v-27q0 -117 108 -117q112 0 112 88q0 84 -100 84q-54 0 -120 -28z" />
    <glyph glyph-name="uni2077" unicode="&#x2077;" horiz-adv-x="308" 
d="M33 810h250q11 0 11 -9v-9q0 -5 -3 -14l-153 -356q-3 -8 -15 -8h-16q-15 0 -7 12l150 349h-217q-10 0 -10 10v15q0 10 10 10z" />
    <glyph glyph-name="uni2078" unicode="&#x2078;" horiz-adv-x="373" 
d="M47 709q0 52 38 81q37 28 102 28q66 0 101 -28q36 -27 36 -74q0 -72 -75 -101q88 -22 88 -95q0 -114 -150 -114q-151 0 -151 104q0 74 85 105q-74 24 -74 94zM286 713q0 74 -100 74q-101 0 -101 -78q0 -36 26 -54q25 -17 93 -28q82 22 82 86zM298 519q0 37 -29 55
q-26 15 -102 26q-92 -26 -92 -86q0 -77 112 -77q111 0 111 82z" />
    <glyph glyph-name="uni2079" unicode="&#x2079;" horiz-adv-x="372" 
d="M292 557v47q-63 -26 -124 -26q-133 0 -133 118q0 122 150 122q145 0 145 -152v-107q0 -153 -149 -153q-99 0 -134 74q-5 8 5 13l15 7q9 4 13 -3q28 -57 101 -57q111 0 111 117zM292 640v27q0 117 -107 117q-113 0 -113 -88q0 -84 101 -84q59 0 119 28z" />
    <glyph glyph-name="uni2080" unicode="&#x2080;" horiz-adv-x="373" 
d="M43 6v146q0 62 38 97q37 37 106 37q68 0 105 -37q38 -36 38 -97v-146q0 -62 -38 -97q-38 -36 -105 -36q-69 0 -106 36q-38 35 -38 97zM293 6v146q0 46 -28 71q-29 27 -78 27q-51 0 -79 -27q-28 -25 -28 -71v-146q0 -98 107 -98q49 0 78 27q28 25 28 71z" />
    <glyph glyph-name="uni2081" unicode="&#x2081;" horiz-adv-x="279" 
d="M198 278h8q12 0 12 -13v-371q0 -13 -12 -13h-13q-12 0 -12 13v337l-137 -77q-12 -6 -18 5l-5 10q-4 10 5 17l156 87q8 5 16 5z" />
    <glyph glyph-name="uni2082" unicode="&#x2082;" horiz-adv-x="351" 
d="M40 174q17 44 29 61q39 51 111 51q65 0 100 -34q33 -32 33 -84t-37 -80q-22 -16 -84 -39l-61 -22q-57 -20 -57 -79v-32h224q11 0 11 -12v-12q0 -11 -11 -11h-246q-14 0 -14 13v43q0 89 77 118l61 23q53 20 68 30q30 20 30 59q0 83 -95 83q-55 0 -84 -42q-9 -14 -15 -30
l-4 -15q-5 -11 -16 -9l-12 4q-14 3 -8 16z" />
    <glyph glyph-name="uni2083" unicode="&#x2083;" horiz-adv-x="360" 
d="M37 175q31 111 150 111q58 0 92 -31q32 -32 32 -81q0 -65 -51 -89q62 -29 62 -100q0 -112 -136 -112q-120 0 -151 108q-4 13 6 17l13 4q11 5 16 -9q24 -86 116 -86q99 0 99 81q0 33 -19 55q-20 23 -52 23h-71q-11 0 -11 11v11q0 12 12 12h68q63 0 63 71q0 36 -23 59
q-23 22 -65 22q-90 0 -115 -88q-6 -13 -19 -9l-9 3q-11 7 -7 17z" />
    <glyph glyph-name="uni2084" unicode="&#x2084;" horiz-adv-x="352" 
d="M268 25h50q11 0 11 -10v-11q0 -11 -11 -11h-50v-101q0 -11 -11 -11h-15q-10 0 -10 11v101h-201q-11 0 -11 11v9q0 8 4 15l198 242q8 8 18 8h16q12 0 12 -13v-240zM232 230l-168 -205h168v205z" />
    <glyph glyph-name="uni2085" unicode="&#x2085;" horiz-adv-x="348" 
d="M78 278h212q9 0 9 -10v-14q0 -10 -9 -10h-193l-13 -124h88q141 0 141 -120q0 -54 -33 -89q-36 -38 -103 -38q-117 0 -147 107q-4 13 6 17l12 4q11 3 16 -8q23 -86 112 -86q50 0 77 27q24 26 24 65q0 88 -106 88h-112q-13 0 -12 13l16 165q3 13 15 13z" />
    <glyph glyph-name="uni2086" unicode="&#x2086;" horiz-adv-x="372" 
d="M79 134v-47q66 26 124 26q134 0 134 -118q0 -122 -150 -122q-145 0 -145 152v108q0 153 149 153q97 0 133 -75q5 -8 -4 -13l-15 -7q-9 -5 -14 3q-25 57 -100 57q-112 0 -112 -117zM79 51v-27q0 -116 108 -116q112 0 112 87q0 84 -100 84q-65 0 -120 -28z" />
    <glyph glyph-name="uni2087" unicode="&#x2087;" horiz-adv-x="308" 
d="M32 278h251q10 0 10 -10v-9q0 -7 -2 -13l-153 -357q-3 -8 -16 -8h-15q-13 0 -7 13l150 349h-218q-10 0 -10 9v15q0 11 10 11z" />
    <glyph glyph-name="uni2088" unicode="&#x2088;" horiz-adv-x="373" 
d="M47 176q0 52 38 81t102 29q66 0 101 -28q36 -27 36 -74q0 -74 -75 -101q88 -22 88 -95q0 -115 -150 -115q-151 0 -151 105q0 73 85 104q-74 26 -74 94zM286 180q0 75 -100 75q-101 0 -101 -79q0 -36 26 -54q25 -16 93 -27q82 19 82 85zM298 -13q0 37 -29 54
q-25 15 -102 26q-92 -26 -92 -86q0 -77 112 -77q111 0 111 83z" />
    <glyph glyph-name="uni2089" unicode="&#x2089;" horiz-adv-x="372" 
d="M292 25v47q-64 -27 -124 -27q-133 0 -133 118q0 123 150 123q145 0 145 -152v-108q0 -153 -149 -153q-99 0 -134 75q-4 7 5 12l15 8q9 3 13 -4q29 -56 101 -56q111 0 111 117zM292 108v26q0 117 -107 117q-113 0 -113 -88q0 -83 101 -83q69 0 119 28z" />
    <glyph glyph-name="Euro" unicode="&#x20ac;" horiz-adv-x="723" 
d="M148 443v41q0 113 69 176q71 65 201 65q182 0 243 -121q7 -15 -6 -21l-15 -7q-14 -6 -21 6q-49 100 -201 100q-106 0 -165 -53q-57 -51 -57 -143v-43h338q12 0 9 -11l-4 -14q-5 -11 -16 -11h-329v-114h296q13 0 8 -11l-4 -14q-3 -11 -16 -11h-282v-33q2 -92 58 -143
q59 -53 164 -53q158 0 206 109q6 14 20 6l16 -7q14 -8 5 -21q-60 -130 -247 -130q-128 0 -198 63q-69 62 -71 176v33h-108q-13 0 -9 12l4 13q3 11 15 11h98v114h-71q-13 0 -10 12l4 13q5 11 15 11h61z" />
    <glyph glyph-name="uni20BD" unicode="&#x20bd;" horiz-adv-x="640" 
d="M147 185h368q12 0 12 -13v-11q0 -12 -12 -12h-368v-136q0 -13 -12 -13h-21q-13 0 -13 13v136h-52q-12 0 -12 12v11q0 13 12 13h52v512q0 13 13 13h271q101 0 159 -54q59 -56 59 -154q0 -96 -59 -152q-58 -54 -159 -54h-238v-111zM147 339h234q82 0 128 43t46 120
q0 79 -46 122t-128 43h-234v-328z" />
    </font>
</defs>
</svg>
