<?xml version="1.0" encoding="UTF-8"?>
<!-- Generator: Adobe Illustrator 16.0.0, SVG Export Plug-In . SVG Version: 6.00 Build 0)  -->
<!DOCTYPE svg PUBLIC "-//W3C//DTD SVG 1.1//EN" "http://www.w3.org/Graphics/SVG/1.1/DTD/svg11.dtd">
<svg version="1.1" xmlns="http://www.w3.org/2000/svg" xmlns:xlink="http://www.w3.org/1999/xlink" x="0px" y="0px" width="792px" height="238px" viewBox="0 0 792 238" enable-background="new 0 0 792 238" xml:space="preserve">
<g id="Layer_2">
</g>
<g id="Layer_1">
	<g id="Favorite">
	</g>
	<text transform="matrix(1 0 0 1 2512.7979 3844.5879)" font-family="'MyriadPro-Regular'" font-size="12">.WDregister</text>
	<g>
		<g>
			<g>
				<path fill-rule="evenodd" clip-rule="evenodd" fill="#FFFFFF" d="M111.108,22.044c0,0,23.879,31.834,81.186,14.326      c0.52,4.691,22.287,143.272-82.776,173.518c0,0-95.513-28.654-76.412-171.926C35.75,39.224,80.86,53.878,111.108,22.044z"/>
				<path fill="#0072BC" d="M109.511,211.24l-0.365-0.109c-0.99-0.297-24.49-7.561-45.981-32.635      c-19.78-23.076-41.274-66.22-31.344-140.706l0.235-1.767l1.609,0.768c1.189,0.568,12.45,4.329,27.198,4.33c0,0,0.004,0,0.004,0      c13.835,0,33.616-3.464,49.3-19.971l1.055-1.109l0.922,1.223c0.144,0.19,14.765,19.066,47.638,19.066      c10.026,0,20.837-1.75,32.132-5.202l1.496-0.457l0.173,1.554c0.015,0.135,0.048,0.385,0.096,0.745      c3.206,24.131,14.233,145.94-83.802,174.164L109.511,211.24z M34.183,39.745c-9.273,72.455,11.611,114.44,30.853,136.946      c19.591,22.916,41.477,30.828,44.504,31.839c94.623-27.567,84.927-145.114,81.665-170.48      c-11.011,3.235-21.575,4.874-31.421,4.874c-29.817,0-44.936-14.622-48.75-18.941C94.887,40.258,74.915,43.715,60.868,43.715      c-0.001,0-0.003,0-0.005,0C48.228,43.715,38.131,41.063,34.183,39.745z"/>
			</g>
			<path fill-rule="evenodd" clip-rule="evenodd" fill="#0072BC" d="M111.235,34.474c0,0,20.719,27.623,70.443,12.43     c-1.381,0,19.337,124.31-71.821,150.553c0,0-82.872-24.862-66.298-149.17C42.177,49.668,84.991,62.097,111.235,34.474z"/>
		</g>
		<g>
			<path fill="#FFFFFF" d="M197.068,148.441c-0.428,0-0.859-0.011-1.292-0.033c-4.742-0.011-9.172-0.841-13.17-2.468     c-4.029-1.638-7.596-3.969-10.599-6.926c-2.996-2.951-5.409-6.504-7.172-10.562c-1.76-4.047-2.741-8.553-2.914-13.392     c-0.002-4.623,0.828-8.927,2.469-12.916c1.633-3.976,3.954-7.539,6.896-10.592c2.939-3.05,6.443-5.514,10.412-7.322     c3.985-1.815,8.385-2.824,13.084-3l0.188-0.002c4.896,0.088,9.452,1.028,13.538,2.794c4.093,1.771,7.649,4.217,10.571,7.27     c2.923,3.058,5.183,6.67,6.715,10.735c1.533,4.063,2.22,8.371,2.043,12.806c0.002,0.302-0.019,0.948-0.062,1.802     c-0.037,0.714-0.056,1.305-0.056,1.777v3.398c0,0-28.234,0-37.401,0c0,0-1.5,6.023-2.333,9.523c0,0,2.524,2.079,2.97,2.314     c1.95,1.031,4.509,1.554,7.607,1.554c2.73,0,6.57-0.646,11.413-1.924l3.363-0.888l2.416,10.108l-2.531,1.166     c-2.573,1.185-5.241,2.296-7.93,3.302C202.678,147.945,199.91,148.441,197.068,148.441z"/>
			<path fill="#0072BC" d="M179.303,118.274c0.23,2.112,0.681,4.311,1.353,6.594c0.671,2.284,1.737,4.368,3.196,6.249     c1.459,1.882,3.37,3.447,5.731,4.693c2.361,1.249,5.307,1.873,8.84,1.873c2.917,0,6.854-0.653,11.806-1.958l0.922,3.858     c-2.419,1.114-4.887,2.141-7.401,3.082c-2.515,0.941-5.154,1.333-7.919,1.181c-4.185,0-8.025-0.71-11.518-2.131     c-3.494-1.42-6.536-3.407-9.127-5.961c-2.592-2.552-4.657-5.595-6.191-9.127c-1.537-3.532-2.381-7.43-2.534-11.691     c0-3.916,0.71-7.602,2.13-11.058c1.42-3.456,3.407-6.507,5.961-9.157c2.552-2.649,5.557-4.76,9.012-6.335     c3.456-1.574,7.236-2.438,11.346-2.592c4.299,0.077,8.226,0.884,11.777,2.419c3.551,1.536,6.584,3.62,9.1,6.249     c2.514,2.629,4.435,5.701,5.76,9.213c1.325,3.514,1.909,7.191,1.756,11.029c0,0.385-0.02,0.95-0.058,1.699     c-0.039,0.748-0.057,1.373-0.057,1.872H179.303z M188.229,94.115c-1.767,1.057-3.263,2.429-4.492,4.118s-2.198,3.638-2.908,5.846     c-0.711,2.208-1.181,4.502-1.411,6.881h30.927c-0.653-6.45-2.352-11.133-5.097-14.052c-2.745-2.917-6.287-4.377-10.625-4.377     h-0.23C192.049,92.531,189.995,93.06,188.229,94.115z"/>
			<path fill="#0072BC" d="M228.365,111.767c0-1.728,0-4.05,0-6.969c0-2.917,0-6.257,0-10.021c0-3.839,0-7.928,0-12.267     c0-4.338,0-8.812,0-13.419c0-4.645,0-9.214,0-13.706c0,0,13.591-0.239,13.591,13.375s0.231,19.625,0.231,19.625     c2.265-1.075,4.752-2.025,7.459-2.85c2.706-0.826,5.825-1.239,9.358-1.239c5.221,0,9.636,0.72,13.245,2.16     c3.608,1.44,6.594,3.484,8.955,6.133c2.361,2.649,4.127,5.816,5.298,9.502c1.171,3.687,1.834,7.814,1.988,12.382     c-0.154,4.571-0.817,8.66-1.988,12.268c-1.171,3.609-2.937,6.69-5.298,9.243c-2.361,2.554-5.347,4.521-8.955,5.903     c-3.609,1.382-8.024,2.074-13.245,2.074c-5.415,0-10.022-0.691-13.823-2.074c-3.801-1.382-6.92-3.35-9.358-5.903     c-2.438-2.553-4.252-5.634-5.442-9.243c-1.191-3.608-1.863-7.697-2.016-12.268C228.365,114.397,228.365,113.494,228.365,111.767z      M241.956,116.605c0,3.916,0.384,7.189,1.152,9.818c0.767,2.63,1.881,4.732,3.341,6.307c1.458,1.575,3.215,2.698,5.27,3.369     c2.053,0.673,4.291,0.97,6.71,0.893c2.455,0.077,4.702-0.201,6.737-0.835c2.034-0.633,3.781-1.728,5.241-3.283     c1.458-1.555,2.582-3.676,3.37-6.364c0.787-2.687,1.18-5.989,1.18-9.904v-4.147c0-3.916-0.394-7.256-1.18-10.021     c-0.788-2.764-1.911-4.991-3.37-6.681c-1.459-1.688-3.207-2.888-5.241-3.6c-2.036-0.709-4.282-1.007-6.737-0.892     c-2.42-0.115-4.657,0.202-6.71,0.95c-2.055,0.749-3.811,1.968-5.27,3.658c-1.459,1.689-2.574,3.897-3.341,6.623     c-0.768,2.726-1.152,6.047-1.152,9.963V116.605z"/>
			<path d="M357.709,116.719c-1.881,5.567-4.455,10.377-7.717,14.427c-3.264,4.051-7.055,7.237-11.375,9.56     c-4.318,2.324-8.955,3.407-13.907,3.254c-0.654,0-1.44,0-2.361,0c-0.884,0-2.381,0-4.493,0c-2.112,0-5.107,0-8.984,0     c-3.763,0-8.947,0-15.55,0c0,0,0-61.585,0-74.11s14.232-14.35,14.232-14.35h9.84c6.911,0,13.043,0.999,18.401,2.995     c5.356,1.997,9.856,4.867,13.505,8.61c3.647,3.743,6.429,8.293,8.351,13.649c1.919,5.356,2.879,11.374,2.879,18.055     C360.532,105.183,359.59,111.153,357.709,116.719z M310.11,63.822c-0.903,0.212-1.584,0.625-2.045,1.239     c-0.884,2.035-1.324,5.26-1.324,9.676v45.035c0,4.57,0.105,8.188,0.316,10.855c0.21,2.669,0.932,4.636,2.16,5.904     c5.989,1.036,11.086,1.238,15.291,0.605s7.688-1.833,10.453-3.6c2.765-1.765,4.933-3.992,6.508-6.68     c1.575-2.688,2.755-5.539,3.542-8.553c0.786-3.014,1.256-6.075,1.412-9.185c0.153-3.11,0.229-6.047,0.229-8.812     c0-11.94-2.774-21.059-8.321-27.355c-5.549-6.297-13.756-9.446-24.62-9.446C312.211,63.505,311.012,63.611,310.11,63.822z"/>
			<path d="M408.788,87.579c3.607,1.651,6.592,3.83,8.953,6.536c2.361,2.707,4.127,5.837,5.3,9.387     c1.171,3.552,1.832,7.247,1.986,11.087c-0.154,3.993-0.798,7.785-1.931,11.374c-1.132,3.591-2.878,6.7-5.239,9.33     c-2.36,2.63-5.365,4.732-9.014,6.307c-3.648,1.575-8.082,2.361-13.303,2.361c-5.414,0-10.021-0.787-13.822-2.361     c-3.801-1.574-6.92-3.715-9.359-6.422s-4.252-5.836-5.443-9.387c-1.191-3.551-1.862-7.285-2.016-11.201     c0.077-3.84,0.701-7.535,1.873-11.087c1.17-3.55,2.976-6.68,5.413-9.387c2.437-2.706,5.586-4.884,9.446-6.536     c3.857-1.65,8.494-2.477,13.908-2.477C400.762,85.102,405.178,85.929,408.788,87.579z M379.646,126.423     c0.768,2.63,1.881,4.732,3.341,6.307c1.458,1.575,3.215,2.698,5.27,3.369c2.053,0.673,4.291,0.97,6.708,0.893     c2.457,0.077,4.703-0.201,6.739-0.835c2.034-0.633,3.781-1.728,5.24-3.283c1.459-1.555,2.582-3.676,3.37-6.364     c0.785-2.687,1.181-5.989,1.181-9.904v-4.147c0-3.916-0.396-7.207-1.181-9.876c-0.788-2.668-1.911-4.79-3.37-6.364     s-3.206-2.678-5.24-3.312c-2.036-0.633-4.282-0.912-6.739-0.835c-2.418-0.076-4.655,0.221-6.708,0.893     c-2.055,0.672-3.812,1.794-5.27,3.368c-1.459,1.576-2.573,3.678-3.341,6.307c-0.769,2.63-1.152,5.903-1.152,9.819v4.147     C378.493,120.521,378.877,123.794,379.646,126.423z"/>
			<path d="M452.81,95.498c-2.323,1.017-4.347,2.485-6.075,4.406c-1.728,1.92-3.005,4.415-3.83,7.486     c-0.826,3.072-0.971,6.815-0.431,11.23c0.307,2.65,1.505,5.414,3.6,8.293c2.091,2.88,4.923,5.318,8.492,7.314     c3.572,1.997,7.872,3.254,12.901,3.772c5.031,0.518,10.693-0.278,16.989-2.39l0.23,3.743c-1.649,0.729-3.226,1.42-4.723,2.073     c-1.497,0.654-3.187,1.258-5.066,1.815c-1.883,0.557-4.1,1.007-6.653,1.353c-2.554,0.345-5.673,0.576-9.356,0.691     c-4.264,0.076-8.163-0.616-11.692-2.074c-3.534-1.458-6.594-3.483-9.186-6.075s-4.599-5.702-6.018-9.33     c-1.421-3.629-2.133-7.554-2.133-11.778c0-5.029,1-9.637,2.994-13.822c1.996-4.184,4.771-7.631,8.322-10.337     c3.553-2.707,7.728-4.569,12.528-5.586c4.799-1.018,10.021-0.854,15.662,0.489c4.416,1.421,7.768,3.188,10.051,5.298     c2.282,2.112,3.849,4.07,4.694,5.875c0.152,0.308,0.248,0.442,0.286,0.403c0.038-0.037-0.192,0.049-0.688,0.259     c-0.499,0.211-1.325,0.691-2.479,1.44c-1.149,0.749-2.822,2.064-5.011,3.945c-1.112-1.804-2.141-3.378-3.081-4.723     c-0.939-1.344-1.996-2.448-3.167-3.312c-1.17-0.864-2.543-1.497-4.119-1.9c-1.573-0.404-3.512-0.605-5.814-0.605     C457.543,93.798,455.133,94.48,452.81,95.498z"/>
			<path d="M524.795,91.609h-13.707v52.465h-13.075V91.609h-13.82v-6.853h13.82V55.5c0,0,13.075,0.463,13.075,14.35     c0,13.886,0,14.907,0,14.907h13.707V91.609z"/>
			<path d="M569.103,87.579c3.61,1.651,6.595,3.83,8.956,6.536c2.361,2.707,4.127,5.837,5.298,9.387     c1.17,3.552,1.834,7.247,1.988,11.087c-0.154,3.993-0.798,7.785-1.931,11.374c-1.132,3.591-2.88,6.7-5.241,9.33     c-2.361,2.63-5.363,4.732-9.012,6.307c-3.648,1.575-8.082,2.361-13.304,2.361c-5.414,0-10.02-0.787-13.82-2.361     c-3.803-1.574-6.921-3.715-9.358-6.422c-2.439-2.707-4.254-5.836-5.444-9.387c-1.191-3.551-1.862-7.285-2.015-11.201     c0.076-3.84,0.699-7.535,1.87-11.087c1.173-3.55,2.977-6.68,5.414-9.387c2.438-2.706,5.586-4.884,9.447-6.536     c3.856-1.65,8.492-2.477,13.906-2.477C561.079,85.102,565.495,85.929,569.103,87.579z M539.963,126.423     c0.768,2.63,1.879,4.732,3.342,6.307c1.456,1.575,3.212,2.698,5.267,3.369c2.055,0.673,4.292,0.97,6.709,0.893     c2.457,0.077,4.704-0.201,6.739-0.835c2.034-0.633,3.782-1.728,5.241-3.283c1.46-1.555,2.582-3.676,3.37-6.364     c0.785-2.687,1.181-5.989,1.181-9.904v-4.147c0-3.916-0.396-7.207-1.181-9.876c-0.788-2.668-1.91-4.79-3.37-6.364     c-1.459-1.574-3.207-2.678-5.241-3.312c-2.035-0.633-4.282-0.912-6.739-0.835c-2.417-0.076-4.654,0.221-6.709,0.893     s-3.811,1.794-5.267,3.368c-1.463,1.576-2.574,3.678-3.342,6.307c-0.771,2.63-1.153,5.903-1.153,9.819v4.147     C538.81,120.521,539.192,123.794,539.963,126.423z"/>
			<path d="M627.439,84.987c0.957,0,1.862,0.038,2.705,0.115v6.162c-0.919-0.191-1.899-0.307-2.936-0.345     c-1.039-0.038-2.017-0.058-2.939-0.058c-2.457-0.077-4.904,0.221-7.342,0.892c-2.439,0.672-4.637,1.795-6.595,3.369     c-1.958,1.575-3.542,3.677-4.75,6.307c-1.211,2.63-1.814,5.922-1.814,9.877v32.654h-13.592v-27.932     c0-9.598,2.967-17.171,8.897-22.72c5.931-5.547,14.521-8.321,25.773-8.321C625.729,84.987,626.593,84.987,627.439,84.987z"/>
			<path fill="#0072BC" d="M644.518,132.442c1.036,1.381,1.632,2.975,1.786,4.779c-0.154,1.805-0.75,3.379-1.786,4.723     c-1.036,1.344-2.727,2.016-5.067,2.016c-2.533,0-4.329-0.672-5.386-2.016c-1.057-1.343-1.621-2.917-1.697-4.723     c0.076-1.804,0.641-3.398,1.697-4.779c1.057-1.383,2.853-2.074,5.386-2.074C641.791,130.369,643.481,131.06,644.518,132.442z"/>
			<path d="M673.627,144.191l-25.226-59.434c0,0,13.995-1.463,18.282,9.871c4.289,11.333,11.666,30.212,11.666,30.212l16.99-39.968     h8.753l-25.974,59.319H673.627z"/>
			<path d="M748.171,102.984c-0.616-2.629-1.556-4.731-2.822-6.306c-1.267-1.574-2.843-2.697-4.723-3.37     c-1.883-0.671-4.051-0.969-6.509-0.893c-2.419-0.077-4.654,0.202-6.709,0.835s-3.81,1.737-5.27,3.311     c-1.459,1.575-2.574,3.696-3.339,6.364c-0.771,2.669-1.152,5.961-1.152,9.877v31.042h-13.593v-27.356     c0-9.598,2.533-17.171,7.604-22.719c5.069-5.547,12.363-8.322,21.884-8.322c5.26,0,9.741,0.73,13.448,2.189     c3.704,1.459,6.716,3.522,9.042,6.191c2.323,2.669,4.011,5.913,5.067,9.732c1.056,3.821,1.583,8.13,1.583,12.929     c0,0,0,1.01,0,13.773s-13.59,13.583-13.59,13.583v-31.042C749.093,108.887,748.784,105.614,748.171,102.984z"/>
		</g>
		<path fill="#FFFFFF" d="M131.293,166.471c-2.332,0-4.367-1.581-4.942-3.84l-14.219-55.732l-14.055,55.718    c-0.573,2.266-2.61,3.854-4.946,3.854H83.26c-2.406,0-4.488-1.684-4.989-4.039L60.298,79.411    c-2.594-11.999,7.541-13.944,9.08-13.944h8.338c0,0.156,11.544,59.07,11.544,59.07l11.25-48.044    c3.567-11.675,10.934-11.026,13.296-11.026h7.531c2.072,8.551,14.035,58.077,14.035,58.077l8.917-47.375    c2.594-11.025,10.211-10.701,12.647-10.701h13.178c-3.191,0-4.296,4.664-4.62,6.171l-19.475,90.802    c-0.505,2.351-2.583,4.032-4.989,4.032H131.293z"/>
		<g>
			<path d="M204.122,204.365c-0.923,0.482-2.971,1.125-5.58,1.125c-5.86,0-9.674-3.974-9.674-9.915     c0-5.981,4.095-10.316,10.437-10.316c2.087,0,3.934,0.522,4.896,1.003l-0.802,2.73c-0.843-0.482-2.167-0.924-4.094-0.924     c-4.456,0-6.864,3.292-6.864,7.346c0,4.496,2.89,7.265,6.744,7.265c2.006,0,3.332-0.521,4.334-0.963L204.122,204.365z"/>
			<path d="M208.894,176.588h3.532v12.123h0.081c0.562-1.003,1.445-1.887,2.529-2.489c1.044-0.602,2.288-1.004,3.613-1.004     c2.609,0,6.784,1.605,6.784,8.309v11.561H221.9v-11.159c0-3.131-1.165-5.78-4.496-5.78c-2.288,0-4.094,1.605-4.736,3.532     c-0.201,0.481-0.241,1.003-0.241,1.686v11.721h-3.532V176.588z"/>
			<path d="M242.567,205.088l-0.281-2.449h-0.121c-1.083,1.525-3.171,2.89-5.94,2.89c-3.934,0-5.941-2.77-5.941-5.579     c0-4.697,4.175-7.266,11.681-7.225v-0.401c0-1.606-0.441-4.496-4.415-4.496c-1.807,0-3.693,0.562-5.058,1.445l-0.803-2.328     c1.605-1.044,3.934-1.727,6.383-1.727c5.94,0,7.386,4.054,7.386,7.948v7.266c0,1.685,0.08,3.332,0.321,4.656H242.567z      M235.662,177.712c0.242,1.565,1.245,2.77,2.89,2.77c1.887,0,2.77-1.445,2.89-2.77h2.088c0,2.97-1.967,4.978-4.978,4.978     c-3.532,0-4.977-2.489-4.977-4.978H235.662z M242.045,195.173c-3.854-0.08-8.229,0.603-8.229,4.375     c0,2.289,1.525,3.372,3.332,3.372c2.529,0,4.135-1.605,4.697-3.251c0.12-0.361,0.201-0.763,0.201-1.124V195.173z"/>
			<path d="M251.794,190.919c0-2.007-0.04-3.653-0.161-5.258h3.091l0.16,3.13h0.12c1.084-1.846,2.89-3.573,6.102-3.573     c2.649,0,4.656,1.605,5.5,3.894h0.081c0.602-1.083,1.364-1.927,2.167-2.529c1.165-0.883,2.449-1.365,4.295-1.365     c2.569,0,6.383,1.686,6.383,8.43v11.44h-3.453v-10.999c0-3.733-1.365-5.981-4.214-5.981c-2.007,0-3.573,1.485-4.175,3.211     c-0.161,0.482-0.281,1.124-0.281,1.766v12.002h-3.452v-11.641c0-3.091-1.365-5.339-4.054-5.339c-2.208,0-3.813,1.767-4.375,3.532     c-0.201,0.522-0.281,1.125-0.281,1.727v11.721h-3.452V190.919z"/>
			<path d="M294.574,201.475c1.044,0.683,2.89,1.405,4.656,1.405c2.569,0,3.773-1.284,3.773-2.89c0-1.685-1.004-2.609-3.613-3.572     c-3.492-1.245-5.138-3.171-5.138-5.499c0-3.132,2.529-5.701,6.703-5.701c1.967,0,3.693,0.563,4.777,1.205l-0.883,2.569     c-0.763-0.482-2.167-1.125-3.974-1.125c-2.088,0-3.252,1.204-3.252,2.649c0,1.605,1.164,2.328,3.693,3.292     c3.372,1.285,5.098,2.97,5.098,5.86c0,3.412-2.649,5.821-7.266,5.821c-2.127,0-4.095-0.522-5.459-1.325L294.574,201.475z"/>
			<path d="M329.171,195.214c0,7.185-4.978,10.315-9.674,10.315c-5.258,0-9.313-3.854-9.313-9.995     c0-6.503,4.255-10.316,9.634-10.316C325.397,185.218,329.171,189.272,329.171,195.214z M313.757,195.415     c0,4.254,2.449,7.465,5.901,7.465c3.371,0,5.9-3.17,5.9-7.546c0-3.292-1.646-7.466-5.821-7.466     C315.564,187.868,313.757,191.721,313.757,195.415z M324.956,177.271l-4.896,5.741h-2.529l3.533-5.741H324.956z"/>
			<path d="M348.112,204.365c-0.923,0.482-2.971,1.125-5.58,1.125c-5.86,0-9.674-3.974-9.674-9.915     c0-5.981,4.095-10.316,10.437-10.316c2.087,0,3.934,0.522,4.896,1.003l-0.802,2.73c-0.843-0.482-2.167-0.924-4.094-0.924     c-4.456,0-6.864,3.292-6.864,7.346c0,4.496,2.89,7.265,6.744,7.265c2.006,0,3.332-0.521,4.334-0.963L348.112,204.365z"/>
			<path d="M363.439,185.661l2.569,9.874c0.562,2.167,1.084,4.175,1.445,6.182h0.121c0.441-1.967,1.083-4.054,1.726-6.142     l3.171-9.914h2.971l3.01,9.713c0.722,2.328,1.285,4.375,1.726,6.342h0.12c0.321-1.967,0.843-4.014,1.485-6.302l2.77-9.754h3.492     l-6.262,19.427h-3.211l-2.971-9.272c-0.682-2.167-1.244-4.094-1.726-6.382h-0.081c-0.481,2.328-1.083,4.334-1.766,6.422     l-3.131,9.232h-3.211l-5.86-19.427H363.439z"/>
			<path d="M393.779,196.016c0.081,4.777,3.131,6.744,6.663,6.744c2.529,0,4.055-0.441,5.38-1.003l0.602,2.529     c-1.244,0.562-3.372,1.204-6.463,1.204c-5.98,0-9.553-3.934-9.553-9.795c0-5.86,3.453-10.477,9.113-10.477     c6.341,0,8.027,5.58,8.027,9.152c0,0.723-0.08,1.285-0.121,1.646H393.779z M404.135,193.488c0.04-2.248-0.923-5.74-4.896-5.74     c-3.573,0-5.138,3.292-5.419,5.74H404.135z"/>
			<path d="M412.398,205.088c0.081-1.324,0.16-3.292,0.16-5.018v-23.482h3.493v12.203h0.079c1.245-2.168,3.493-3.573,6.624-3.573     c4.816,0,8.229,4.014,8.188,9.915c0,6.944-4.375,10.396-8.71,10.396c-2.81,0-5.059-1.083-6.503-3.652h-0.121l-0.159,3.211     H412.398z M416.052,197.301c0,0.441,0.079,0.883,0.16,1.284c0.682,2.449,2.729,4.135,5.298,4.135c3.694,0,5.902-3.01,5.902-7.466     c0-3.893-2.008-7.225-5.78-7.225c-2.41,0-4.657,1.646-5.38,4.334c-0.08,0.402-0.2,0.883-0.2,1.445V197.301z"/>
			<path d="M435.555,201.475c1.043,0.683,2.889,1.405,4.656,1.405c2.569,0,3.772-1.284,3.772-2.89c0-1.685-1.003-2.609-3.613-3.572     c-3.491-1.245-5.138-3.171-5.138-5.499c0-3.132,2.53-5.701,6.704-5.701c1.967,0,3.692,0.563,4.776,1.205l-0.883,2.569     c-0.763-0.482-2.167-1.125-3.974-1.125c-2.088,0-3.252,1.204-3.252,2.649c0,1.605,1.164,2.328,3.692,3.292     c3.372,1.285,5.099,2.97,5.099,5.86c0,3.412-2.649,5.821-7.266,5.821c-2.127,0-4.094-0.522-5.458-1.325L435.555,201.475z"/>
			<path d="M456.504,180.201c0.039,1.205-0.844,2.168-2.248,2.168c-1.244,0-2.127-0.963-2.127-2.168     c0-1.244,0.922-2.207,2.206-2.207C455.66,177.994,456.504,178.957,456.504,180.201z M452.569,205.088v-19.427h3.533v19.427     H452.569z"/>
			<path d="M466.855,180.081v5.58h5.059v2.689h-5.059v10.476c0,2.409,0.683,3.774,2.649,3.774c0.923,0,1.605-0.121,2.047-0.241     l0.161,2.648c-0.682,0.281-1.767,0.482-3.131,0.482c-1.646,0-2.971-0.522-3.813-1.485c-1.004-1.044-1.364-2.77-1.364-5.058     V188.35h-3.012v-2.689h3.012v-4.657L466.855,180.081z"/>
			<path d="M478.253,196.016c0.079,4.777,3.131,6.744,6.663,6.744c2.528,0,4.054-0.441,5.379-1.003l0.602,2.529     c-1.244,0.562-3.371,1.204-6.462,1.204c-5.981,0-9.554-3.934-9.554-9.795c0-5.86,3.451-10.477,9.111-10.477     c6.343,0,8.029,5.58,8.029,9.152c0,0.723-0.081,1.285-0.121,1.646H478.253z M488.608,193.488c0.041-2.248-0.924-5.74-4.897-5.74     c-3.572,0-5.138,3.292-5.418,5.74H488.608z"/>
			<path d="M520.031,204.365c-0.922,0.482-2.971,1.125-5.578,1.125c-5.861,0-9.675-3.974-9.675-9.915     c0-5.981,4.095-10.316,10.437-10.316c2.088,0,3.934,0.522,4.897,1.003l-0.803,2.73c-0.843-0.482-2.168-0.924-4.095-0.924     c-4.455,0-6.864,3.292-6.864,7.346c0,4.496,2.891,7.265,6.744,7.265c2.007,0,3.332-0.521,4.335-0.963L520.031,204.365z"/>
			<path d="M524.805,176.588h3.533v12.123h0.079c0.563-1.003,1.445-1.887,2.528-2.489c1.044-0.602,2.289-1.004,3.613-1.004     c2.609,0,6.783,1.605,6.783,8.309v11.561h-3.531v-11.159c0-3.131-1.164-5.78-4.496-5.78c-2.287,0-4.094,1.605-4.736,3.532     c-0.201,0.481-0.24,1.003-0.24,1.686v11.721h-3.533V176.588z"/>
			<path d="M563.977,199.79c0,2.007,0.039,3.773,0.159,5.298h-3.13l-0.201-3.171h-0.08c-0.924,1.566-2.971,3.613-6.423,3.613     c-3.05,0-6.703-1.686-6.703-8.509v-11.359h3.533v10.757c0,3.693,1.123,6.182,4.334,6.182c2.368,0,4.015-1.646,4.657-3.211     c0.2-0.522,0.32-1.164,0.32-1.806v-11.921h3.533V199.79z"/>
			<path d="M571.758,185.661l4.255,11.479c0.442,1.285,0.924,2.81,1.244,3.974h0.081c0.361-1.164,0.763-2.649,1.244-4.054     l3.854-11.399h3.732l-5.299,13.848c-2.528,6.663-4.255,10.075-6.662,12.162c-1.726,1.526-3.452,2.128-4.335,2.289l-0.884-2.971     c0.884-0.28,2.048-0.843,3.092-1.726c0.962-0.763,2.167-2.127,2.97-3.934c0.16-0.361,0.28-0.642,0.28-0.843     c0-0.2-0.08-0.481-0.24-0.923l-7.186-17.902H571.758z"/>
			<path d="M591.584,196.016c0.08,4.777,3.131,6.744,6.663,6.744c2.528,0,4.054-0.441,5.379-1.003l0.602,2.529     c-1.244,0.562-3.371,1.204-6.462,1.204c-5.981,0-9.554-3.934-9.554-9.795c0-5.86,3.452-10.477,9.111-10.477     c6.343,0,8.029,5.58,8.029,9.152c0,0.723-0.081,1.285-0.121,1.646H591.584z M601.939,193.488c0.041-2.248-0.924-5.74-4.897-5.74     c-3.572,0-5.138,3.292-5.418,5.74H601.939z M598.408,177.271l3.854,5.741h-2.689l-2.328-3.814h-0.082l-2.326,3.814h-2.65     l3.814-5.741H598.408z"/>
			<path d="M610.365,190.919c0-2.007-0.041-3.653-0.161-5.258h3.131l0.202,3.211h0.079c0.963-1.847,3.212-3.653,6.423-3.653     c2.689,0,6.863,1.605,6.863,8.27v11.6h-3.532v-11.199c0-3.131-1.164-5.74-4.495-5.74c-2.328,0-4.135,1.646-4.736,3.612     c-0.161,0.442-0.241,1.043-0.241,1.646v11.681h-3.532V190.919z"/>
			<path d="M642.428,190.919c0-2.007-0.039-3.653-0.161-5.258h3.132l0.199,3.211h0.082c0.962-1.847,3.211-3.653,6.422-3.653     c2.689,0,6.863,1.605,6.863,8.27v11.6h-3.531v-11.199c0-3.131-1.164-5.74-4.496-5.74c-2.328,0-4.135,1.646-4.736,3.612     c-0.161,0.442-0.24,1.043-0.24,1.646v11.681h-3.533V190.919z"/>
			<path d="M682.08,185.661c-0.08,1.405-0.16,2.97-0.16,5.338v11.28c0,4.455-0.883,7.185-2.77,8.871     c-1.888,1.766-4.616,2.328-7.064,2.328c-2.328,0-4.897-0.562-6.463-1.605l0.883-2.689c1.284,0.803,3.292,1.526,5.7,1.526     c3.613,0,6.262-1.887,6.262-6.784v-2.167h-0.08c-1.084,1.807-3.172,3.251-6.182,3.251c-4.817,0-8.27-4.094-8.27-9.473     c0-6.583,4.296-10.316,8.751-10.316c3.372,0,5.218,1.767,6.062,3.372h0.08l0.16-2.93H682.08z M678.428,193.327     c0-0.602-0.04-1.124-0.201-1.605c-0.642-2.047-2.368-3.733-4.938-3.733c-3.371,0-5.78,2.85-5.78,7.346     c0,3.813,1.927,6.984,5.741,6.984c2.167,0,4.134-1.365,4.896-3.613c0.201-0.602,0.281-1.285,0.281-1.886V193.327z"/>
			<path d="M688.417,176.588h3.533v12.123h0.079c0.563-1.003,1.445-1.887,2.528-2.489c1.044-0.602,2.289-1.004,3.613-1.004     c2.609,0,6.783,1.605,6.783,8.309v11.561h-3.531v-11.159c0-3.131-1.164-5.78-4.496-5.78c-2.288,0-4.094,1.605-4.736,3.532     c-0.201,0.481-0.24,1.003-0.24,1.686v11.721h-3.533V176.588z"/>
			<path d="M715.266,180.201c0.039,1.205-0.844,2.168-2.248,2.168c-1.244,0-2.127-0.963-2.127-2.168     c0-1.244,0.922-2.207,2.206-2.207C714.422,177.994,715.266,178.957,715.266,180.201z M711.331,205.088v-19.427h3.533v19.427     H711.331z"/>
			<path d="M723.331,196.016c0.08,4.777,3.132,6.744,6.663,6.744c2.528,0,4.054-0.441,5.379-1.003l0.602,2.529     c-1.244,0.562-3.371,1.204-6.462,1.204c-5.981,0-9.554-3.934-9.554-9.795c0-5.86,3.452-10.477,9.111-10.477     c6.343,0,8.029,5.58,8.029,9.152c0,0.723-0.081,1.285-0.121,1.646H723.331z M733.687,193.488c0.041-2.248-0.923-5.74-4.897-5.74     c-3.572,0-5.138,3.292-5.418,5.74H733.687z M729.672,177.271l3.854,5.741h-2.729l-2.328-3.814h-0.081l-2.327,3.814h-2.609     l3.773-5.741H729.672z M730.476,210.346c0,1.125-0.804,2.088-2.047,2.088c-1.124,0-2.007-0.963-2.007-2.088     c0-1.124,0.924-2.047,2.088-2.047C729.593,208.299,730.476,209.223,730.476,210.346z"/>
			<path d="M742.111,192.002c0-2.489-0.079-4.496-0.16-6.342h3.172l0.161,3.332h0.079c1.445-2.369,3.733-3.774,6.904-3.774     c4.697,0,8.229,3.974,8.229,9.875c0,6.984-4.255,10.436-8.83,10.436c-2.569,0-4.817-1.124-5.982-3.05h-0.079v10.557h-3.493     V192.002z M745.604,197.18c0,0.522,0.079,1.003,0.161,1.445c0.642,2.449,2.769,4.134,5.297,4.134c3.733,0,5.902-3.05,5.902-7.506     c0-3.893-2.049-7.225-5.78-7.225c-2.409,0-4.657,1.726-5.34,4.375c-0.12,0.442-0.24,0.964-0.24,1.445V197.18z"/>
		</g>
		<line fill="none" stroke="#000000" stroke-miterlimit="10" x1="189.572" y1="165.48" x2="762.683" y2="165.48"/>
	</g>
</g>
</svg>